<?xml version="1.0" encoding="UTF-8" standalone="no"?>
<!-- Created with Inkscape (http://www.inkscape.org/) -->

<svg
   version="1.1"
   id="svg1"
   width="973.36035"
   height="973.1709"
   viewBox="0 0 973.3604 973.17093"
   xmlns="http://www.w3.org/2000/svg"
   xmlns:svg="http://www.w3.org/2000/svg">
  <defs
     id="defs1" />
  <g
     id="g1"
     transform="translate(-47.035372,-306.96261)">
    <path
       style="fill:#ffffff;fill-opacity:1;stroke:#1f81f3;stroke-width:6;stroke-dasharray:none;stroke-opacity:1"
       id="path12"
       d="M 1000.6054,793.71332 A 469.26889,453.28177 0 0 1 535.80562,1246.9745 469.26889,453.28177 0 0 1 62.15278,802.34657 469.26889,453.28177 0 0 1 517.93095,340.61654 469.26889,453.28177 0 0 1 1000.265,776.44995" />
    <path
       style="display:inline;fill:#233549;stroke:none"
       d="m 523.99996,308.56582 c -37.82373,4.96387 -74.52722,5.88013 -111.99999,15.29427 -103.96781,26.11938 -199.42404,91.26627 -264.1543,176.13988 -36.30299,47.6001 -64.482466,102.40991 -80.990735,160 -15.804112,55.13354 -22.663222,113.31225 -18.7356,170.66665 13.703017,200.10298 157.856825,375.93718 350.547305,430.78808 66.31339,18.8766 135.76113,23.1426 203.99998,14.1697 245.15843,-32.2365 428.00408,-257.399 417.28078,-502.29111 C 1011.0938,571.13767 870.24953,390.58339 677.33328,330.63263 630.83044,316.18138 573.005,302.13459 523.99996,308.56582 m -118.66666,655.43413 -40,-10.61418 -30.66666,3.94751 c 12.90238,18.26595 37.10978,37.48413 56,49.33332 -4.85987,11.8488 -8.80957,32.4922 -17.44755,41.8622 -3.32894,3.611 -11.3783,2.1705 -15.88578,2.9578 -23.47121,4.0989 -47.6176,-33.9886 -65.33333,-47.4867 0,35.2509 8.33866,86.0136 49.33333,97.1215 19.36311,5.2465 49.13984,-5.528 63.99999,8.2119 -14.26196,18.6354 -40.77449,29.1401 -62.66666,35.2325 -6.55613,1.8244 -15.82155,6.1692 -22.66666,4.5771 -10.77234,-2.5054 -21.7323,-13.1808 -30.66667,-19.3559 -30.78452,-21.2772 -58.72741,-48.3595 -81.78395,-77.7871 C 118.82278,938.75614 96.583946,791.25981 142.67078,655.99997 c 18.64425,-54.71883 51.14374,-107.08211 91.99587,-148 43.54455,-43.61466 94.06951,-78.90046 151.99999,-100.76643 50.40083,-19.02384 104.82856,-28.53279 158.66665,-27.21403 188.08926,4.60734 352.24696,143.0677 394.35283,325.31379 17.72551,76.72094 10.87964,156.67715 -14.81168,230.66665 -13.61719,39.2168 -34.74178,76.29755 -59.71403,109.33335 -5.76236,7.623 -17.96842,29.0584 -27.87963,30.6759 -7.73609,1.2626 -22.21517,-7.9072 -29.28084,-11.0833 -28.48674,-12.8053 -55.53369,-28.8419 -77.28084,-51.5926 -6.45801,-6.756 -14.46346,-15.13853 -17.83439,-24.00002 -7.12858,-18.73942 -1.75008,-45.59261 3.99381,-64 1.87151,-5.99747 2.7872,-13.38069 6.53809,-18.54736 9.03906,-12.45092 24.85172,-20.46419 36.58333,-30.0699 18.18197,-14.88721 33.972,-33.29508 42.58439,-55.38273 19.46435,-49.91902 10.19954,-110.40087 -6.1451,-159.99999 -5.03727,-15.28605 -16.9244,-29.95044 -20.19238,-45.33333 -6.22437,-29.29891 -1.22095,-72.26457 -19.96607,-97.27986 -17.88305,-23.86491 -63.54426,3.66837 -84.28083,12.51652 -7.1202,3.03816 -14.63383,8.17911 -22.66667,6.39607 -44.69604,-9.92089 -86.94669,-19.35669 -133.33332,-16.18009 -19.22986,1.31689 -38.42574,4.38184 -57.33333,8.14713 -7.94108,1.58138 -18.64848,6.99382 -26.66666,5.4301 -22.82711,-4.45166 -45.33126,-18.802 -68,-25.30868 -11.78519,-3.38273 -23.90289,-6.28263 -34.66152,1.61117 -21.54119,15.80518 -24.87147,58.7867 -26.55246,83.33431 -0.54934,8.02181 1.62286,17.6184 -0.8714,25.33333 -3.55701,11.00211 -14.19316,21.82861 -20.01133,32 -9.69381,16.94669 -16.82432,36.81005 -20.4434,55.99999 -12.7207,67.45076 14.02171,136.97762 63.65226,183.56689 12.65932,11.88362 25.83687,23.53125 40.22118,33.30761 16.03414,10.89771 33.70891,19.25212 40,39.12549 m 10.72018,-292.74999 c 7.95454,-2.18823 16.91397,3.44735 23.94649,6.45679 15.82157,6.77051 31.88028,13.52922 47.99999,19.55965 6.16699,2.30713 19.04631,4.74276 22.30863,11.03296 2.45244,4.7286 -0.27246,12.40332 -1.90738,17.03394 -5.80058,16.42879 -19.67884,28.97721 -36.40125,33.67179 -29.42891,8.2618 -59.16373,-8.93962 -68.33845,-37.67179 -3.8691,-12.11678 -3.526,-45.70451 12.39197,-50.08334 m 317.2798,1.27165 c 16.43693,-3.44165 19.99999,22.52189 19.99999,34.14502 0,24.03198 -16.40283,43.81006 -39.99999,48.64713 -21.78182,4.46501 -44.85307,-6.03727 -54.92077,-25.98046 -2.79472,-5.53606 -7.24374,-14.53565 -4.2747,-20.8086 2.51212,-5.3077 14.08081,-8.43278 19.19547,-10.62142 18.57259,-7.94751 40.39144,-21.27587 60,-25.38167 M 423.99997,855.99996 c 30.68619,28.24413 74.69644,40.99145 115.99999,41.33333 -8.29631,17.78873 -27.72441,24.4816 -45.33333,28.46606 -5.39937,1.22176 -13.20618,4.43359 -18.66667,2.677 -13.1844,-4.24137 -27.21557,-23.11474 -35.16048,-33.80973 -6.32857,-8.51912 -20.11873,-27.54679 -16.83951,-38.66666 m 241.33331,227.99994 c 25.07536,24.8677 60.41455,46.6506 94.66666,56 l -17.33333,12.5617 -45.33333,22.105 -17.89917,-61.3333 -14.10083,-29.3334 m -57.33333,118.6667 c -11.32552,1.9688 -17.75179,-5.8423 -25.33231,-13.3293 -10.74833,-10.6156 -22.59249,-20.0659 -33.33435,-30.6758 -3.84591,-3.7987 -15.65747,-11.5932 -15.72941,-17.3807 -0.0539,-4.3382 5.24422,-8.792 7.70988,-11.9475 6.35181,-8.1289 12.03255,-17.1409 16.01953,-26.6667 9.05595,4.2235 15.54236,13.4928 21.46911,21.3333 16.48393,21.8067 28.96814,50.9509 29.19755,78.6667 m -95.99999,5.3333 -66.66666,-8 c 6.88151,-5.7612 26.85844,-19.7096 36,-18.7273 9.83744,1.0569 24.90844,19.198 30.66666,26.7273 z"
       id="path9" />
    <path
       style="fill:#1f81f3;fill-opacity:1;stroke:#1f81f3;stroke-width:6;stroke-dasharray:none;stroke-opacity:1"
       d="m 494.31105,1187.4975 c -12.04916,-11.0478 -38.45066,-35.1101 -58.66999,-53.4717 l -36.76241,-33.3849 h -26.74946 c -14.7122,0 -29.13209,-0.8937 -32.0442,-1.986 -22.94887,-8.6076 -42.24308,-39.965 -45.01081,-73.1525 -0.69453,-8.3279 -0.82817,-15.1417 -0.29699,-15.1417 0.53119,0 11.86737,10.1953 25.19152,22.6563 l 24.22572,22.6563 14.10628,-1.1852 c 7.75845,-0.6518 15.04045,-2.1717 16.18221,-3.3777 2.28436,-2.4127 17.69442,-40.4886 17.68115,-43.6874 -0.005,-1.0986 -2.75902,-4.0109 -6.12101,-6.4718 -3.362,-2.461 -15.23478,-12.5377 -26.38396,-22.39278 -23.26756,-20.56679 -23.19663,-21.19501 2.40328,-21.2832 23.94316,-0.0825 54.8284,11.95646 63.43401,24.72628 7.98837,11.854 13.68032,34.2073 13.68032,53.7252 0,9.7066 0.75897,19.6446 1.6866,22.0845 0.92762,2.4398 35.18025,35.6959 76.11694,73.9024 54.87601,51.2161 73.72058,69.8635 71.7287,70.9782 -1.4859,0.8316 -13.94432,1.9315 -27.68538,2.4443 -13.74105,0.5128 -29.44351,1.2734 -34.89434,1.6902 l -9.9106,0.758 z"
       id="path11" />
  </g>
</svg>
