<?xml version="1.0" encoding="UTF-8" standalone="no"?>
<!-- Created with Inkscape (http://www.inkscape.org/) -->

<svg
   version="1.1"
   id="svg1"
   width="1020.9021"
   height="1017.7502"
   viewBox="0 0 1020.9022 1017.7503"
   xmlns="http://www.w3.org/2000/svg"
   xmlns:svg="http://www.w3.org/2000/svg">
  <defs
     id="defs1" />
  <path
     style="fill:#ffffff;stroke:none;stroke-width:6"
     id="path1"
     d="M 977.93933,508.60205 A 464.62506,481.21881 0 0 1 517.73912,989.79904 464.62506,481.21881 0 0 1 48.773489,517.76739 464.62506,481.21881 0 0 1 500.04133,27.579635 464.62506,481.21881 0 0 1 977.60224,490.27469" />
  <path
     id="path32"
     style="display:inline;fill:#1f81f3;fill-opacity:1;stroke:#000000;stroke-width:0.768629;stroke-opacity:1"
     d="m 337.04306,499.26939 -0.82421,11.66602 c -0.4529,6.41667 -0.93119,15.86666 -1.0625,21 -0.33224,12.9882 -0.59169,13.57798 -6.33008,14.34766 -13.40691,1.79825 -29.16486,13.85855 -36.12696,27.65039 -15.33572,30.37988 -0.61521,64.76723 32.64844,76.26953 8.60928,2.97702 23.58094,3.06089 32.11328,0.17969 32.42438,-10.94906 46.79921,-45.53696 31.93946,-76.85157 -4.72535,-9.95793 -20.2357,-22.5179 -33.01563,-26.73437 -1.85511,-0.61205 -2.19628,-1.89737 -1.71289,-6.47852 0.33171,-3.14365 0.92613,-13.66615 1.32031,-23.38281 l 0.7168,-17.66602 h -9.83398 z m -5.23046,64 c 2.39462,0 2.50503,0.72862 1.67968,11 -0.48614,6.05 -1.21337,13.42146 -1.61523,16.38282 -0.54804,4.03855 -0.11905,6.12112 1.71289,8.33008 3.52283,4.24783 9.77543,5.12754 13.72461,1.92968 2.91948,-2.36405 3.26853,-3.93181 4.20508,-18.91992 0.56164,-8.98816 1.2976,-16.61985 1.63672,-16.95898 1.18402,-1.18402 10.91015,4.70478 15.06054,9.11914 8.94578,9.51473 11.7736,21.69927 8.02735,34.58593 -5.6739,19.51753 -28.00948,30.96722 -47.10157,24.14454 -13.52909,-4.8347 -21.80474,-14.36133 -24.41015,-28.09961 -2.75488,-14.52641 4.11552,-29.33826 17.24023,-37.17188 4.00089,-2.38798 8.42939,-4.3418 9.83985,-4.3418 z m -32.74805,84.75 c -0.51181,0.0219 -0.87315,0.29332 -1.1836,0.78321 -0.62731,0.98992 -1.14917,2.39948 -1.1582,3.13281 -0.009,0.73333 -2.08517,6.73398 -4.61328,13.33398 -2.52811,6.6 -7.58957,20.1 -11.24805,30 -3.65848,9.9 -11.24032,29.9994 -16.84961,44.66602 -5.60929,14.6667 -12.78452,33.866 -15.94531,42.666 -8.27614,23.0417 -22.96683,62.1791 -25.96679,69.1778 -2.32124,5.4152 -2.4515,7.5119 -1.34961,21.7421 0.67069,8.6615 1.23264,16.9177 1.25,18.3477 0.0377,3.1019 -0.62829,3.8258 13.38281,-14.5352 12.63522,-16.558 10.91892,-12.5703 37.31445,-86.7324 9.3962,-26.4 18.00487,-50.3987 19.12891,-53.332 1.12404,-2.9334 7.73348,-20.634 14.68945,-39.334 6.95597,-18.7 13.01811,-34.94724 13.4707,-36.10547 0.60105,-1.53815 -0.68561,-2.78663 -4.77539,-4.63086 -3.0796,-1.38871 -7.98223,-4.25168 -10.89453,-6.36133 -2.75142,-1.99312 -4.27486,-2.86011 -5.25195,-2.81836 z m 80.04297,2.76368 c -1.17565,-0.0318 -4.67635,1.51444 -8.4375,3.77929 -4.29846,2.58839 -8.45009,4.71534 -9.22657,4.72657 -5.16851,0.0747 -4.92935,1.77427 7.13282,50.75 11.78648,47.85628 34.63612,142.51788 37.39648,154.92378 1.37319,6.1716 19.78844,40.3542 21.05664,39.086 0.34692,-0.3469 2.23481,-8.2195 4.19532,-17.4961 l 3.56445,-16.8672 -27.17578,-108.875 c -14.9464,-59.88129 -27.61354,-109.34233 -28.15039,-109.91406 -0.0671,-0.0715 -0.18752,-0.10874 -0.35547,-0.11328 z m -45.09571,46.70117 c -2.26813,0.0677 -4.2545,1.14112 -5.28906,3.07422 -0.67414,1.25964 -1.64448,13.09031 -2.1543,26.28905 l -0.92578,23.9961 3.15821,2.2129 c 4.16714,2.9187 5.55957,2.7959 8.875,-0.7871 2.56451,-2.7715 2.81076,-4.8748 3.23242,-27.60939 l 0.45703,-24.60938 -3.11328,-1.57031 c -1.41819,-0.71523 -2.87935,-1.03674 -4.24024,-0.99609 z m -100.70507,14.66015 c -2.61605,0.26723 -3.83759,0.89926 -5.31641,2.0625 -3.75142,2.95087 -4.21758,7.14598 -1.26367,11.36329 2.10679,3.00783 5.26937,3.54843 24.11719,4.11913 l 8.14453,0.2461 2.81445,-7.64062 c 1.54801,-4.20229 2.38319,-8.03117 1.85547,-8.50977 -0.52771,-0.47861 -8.02843,-1.16287 -16.66797,-1.51953 -7.05697,-0.29133 -11.06754,-0.38832 -13.68359,-0.1211 z m 79.30859,3.64844 c -3.31888,-0.0287 -4.76661,1.93795 -6.46289,7.59961 -0.90432,3.01837 -1.9646,6.32397 -2.35742,7.34767 -0.56182,1.4641 0.97595,1.8613 7.20898,1.8613 h 7.92383 l 0.28125,-7.8203 c 0.28165,-7.80472 0.27494,-7.82275 -3.9707,-8.67187 -0.99131,-0.19826 -1.85715,-0.30978 -2.62305,-0.31641 z m 36.08398,1.9961 v 8 7.99998 l 6.33204,0.5 c 3.48333,0.2747 6.98484,0.6081 7.77929,0.7403 0.79444,0.1322 1.77052,-0.087 2.16992,-0.4864 0.39941,-0.3994 -0.33037,-4.1501 -1.62109,-8.334 l -2.3457,-7.60738 -6.15821,-0.40625 z m 57.07813,0.28125 0.86719,3.59961 c 2.68273,11.12212 3.6445,13.46852 5.74804,14.04102 1.2688,0.3454 7.68383,0.5369 14.25782,0.4258 11.35297,-0.1917 12.05036,-0.3731 13.87304,-3.627 2.47896,-4.4254 1.04529,-10.32054 -2.86132,-11.76365 -1.62953,-0.60194 -9.47032,-1.4498 -17.42383,-1.88477 z" />
  <g
     id="layer5"
     style="display:inline"
     transform="translate(-12.634668,-274.06459)">
    <path
       style="display:inline;fill:#1f2a44;fill-opacity:1"
       d="M 476.66663,1290.5172 C 380.08086,1281.4836 280.14396,1240.8471 203.33332,1179.3739 102.51741,1098.6889 36.315474,984.17677 17.540011,857.99996 16.776157,852.86662 15.387738,843.56662 14.454636,837.33329 11.749618,819.26316 12.142059,750.53828 15.086578,726.66663 30.975913,597.84947 90.90239,483.66251 186.9674,399.15615 c 45.13228,-39.70192 103.27753,-74.30897 159.94939,-95.19911 18.08352,-6.66587 55.84079,-17.14743 78.59768,-21.81902 32.95387,-6.76484 47.70607,-7.99886 96.48549,-8.071 56.85698,-0.0841 74.51539,1.96351 127.01761,14.72836 68.00659,16.53442 137.30564,51.11573 194.3157,96.96658 101.56403,81.68377 167.72073,198.48447 185.91603,328.238 4.761,33.9514 5.6835,85.34415 2.1299,118.66666 -15.3711,144.13757 -84.71715,267.43498 -200.04593,355.68188 -49.52534,37.8957 -119.56202,72.0181 -179.99999,87.6974 -45.2354,11.7353 -80.48779,16.0086 -129.99999,15.7586 -17.96666,-0.091 -38.06666,-0.67 -44.66666,-1.2873 z m -13.30598,-68.4807 c 43.85449,-8.3907 99.28275,-35.9377 147.27432,-73.1931 27.71896,-21.5179 61.43953,-57.3692 82.93631,-88.1768 39.60479,-56.7586 62.42866,-126.15527 62.42866,-189.81609 0,-18.25144 -2.85338,-44.51674 -6.55158,-60.30724 -4.00043,-17.08089 -14.52426,-45.40275 -17.57026,-47.28528 -0.62201,-0.38442 -5.80408,-1.23193 -11.51571,-1.88336 -5.71163,-0.65142 -14.54042,-1.90808 -19.61954,-2.79257 l -9.23476,-1.60817 8.225,-2.9782 c 12.08073,-4.37432 21.99343,-10.76822 33.75866,-21.77501 23.46342,-21.95087 37.42762,-53.41234 41.22813,-92.88738 1.55959,-16.19911 0.93044,-38.89511 -1.53388,-55.33333 -6.81927,-45.4879 -31.50247,-89.84682 -58.94283,-105.92795 -8.5854,-5.03138 -19.1261,-6.85315 -25.13219,-4.34364 -9.85729,4.11864 -15.5373,16.04481 -16.72568,35.11853 l -0.75889,12.18027 -7.84511,-9.75204 c -13.78268,-17.13287 -28.64764,-28.82988 -48.28957,-37.99833 -17.8206,-8.31829 -30.89948,-10.85426 -60.82511,-11.79384 l -25.99999,-0.81633 -18,-12.16677 c -19.44243,-13.14176 -36.79746,-22.40292 -53.57361,-28.58849 -19.81795,-7.30711 -52.0405,-14.26844 -49.88239,-10.77655 0.52069,0.8425 1.49403,1.53182 2.16296,1.53182 2.37911,0 22.15636,12.36972 34.62638,21.65714 14.1173,10.5143 45.1004,40.7798 48.52384,47.4 l 2.2113,4.27618 -4.36757,0.0208 c -32.76451,0.15625 -64.76273,37.24285 -70.31111,81.49204 -1.7831,14.22048 0.18293,36.00291 4.46819,49.50477 10.96135,34.53672 38.16468,64.99109 79.97693,89.53488 6.69079,3.9275 22.66508,12.61102 35.49841,19.29672 20.07907,10.46047 22.49652,12.04209 17.33333,11.34038 -9.26333,-1.25896 -33.20707,-6.60776 -56,-12.50986 -34.24594,-8.86779 -55.96058,-12.1353 -80.66666,-12.13829 -42.39825,-0.005 -69.6101,7.23781 -102.33332,27.23796 -8.31427,5.08161 -12.13415,9.05479 -6.66667,6.93421 7.08618,-2.7484 32.38721,-9.00377 45.89599,-11.34723 21.79782,-3.78141 57.26889,-3.76878 79.13489,0.0282 17.35398,3.01345 41.6376,10.57401 57.49592,17.901 24.10094,11.13532 51.41188,33.27242 67.32615,54.57176 14.52292,19.43719 27.85862,50.51113 32.95919,76.79931 11.42417,58.87979 -3.59549,138.12418 -39.5228,208.52418 -21.92456,42.9614 -56.33848,88.7222 -90.95602,120.946 -6.96666,6.4849 -12.26944,11.8071 -11.78395,11.827 0.48549,0.02 5.50057,-0.8474 11.14464,-1.9273 z M 668.80803,935.24269 c -11.18671,-4.09963 -21.36138,-16.46619 -25.49415,-30.98627 -0.87372,-3.0697 -0.85765,-3.06775 6.90516,0.84001 18.94065,9.53462 39.56553,10.68734 55.74592,3.11562 4.95057,-2.31665 9.1918,-4.2121 9.42494,-4.2121 0.85623,0 -1.77963,7.56329 -4.48177,12.85992 -8.61475,16.8863 -25.75792,24.37179 -42.1001,18.38282 z m 2.42895,-68.48018 c -4.42841,-2.54003 -8.41412,-6.33288 -11.54616,-10.98749 -5.0079,-7.44236 -8.76284,-16.48087 -7.40914,-17.83457 0.43625,-0.43625 3.23303,0.45152 6.21506,1.97284 17.2364,8.79336 39.9146,8.76258 52.3757,-0.0711 1.94654,-1.3799 3.83276,-2.50891 4.1916,-2.50891 0.35885,0 0.10122,2.4533 -0.57249,5.45178 -5.08431,22.62862 -25.69093,34.05155 -43.25457,23.97744 z M 663.14775,708.3333 C 657.55004,691.33752 643.0845,675.59144 624.7579,666.54503 l -11.90871,-5.8784 8.18673,-0.91314 c 16.62274,-1.85408 27.69477,-10.15964 37.5979,-28.20366 6.1962,-11.28978 12.33093,-17.4372 19.32968,-19.36965 10.05651,-2.77674 21.07234,4.47952 25.20263,16.60127 6.45207,18.93577 -3.84741,51.13997 -22.85408,71.45963 -8.94932,9.56755 -15.63954,12.72169 -17.1643,8.09222 z m 28.85824,-50.80711 c 2.83631,-9.03332 3.59735,-25.28458 1.37825,-29.43101 -0.70531,-1.31788 -3.10177,-3.14976 -5.32547,-4.07085 -3.44723,-1.42789 -4.55406,-1.3399 -7.51019,0.59703 -2.2549,1.47747 -3.20669,3.04794 -2.72229,4.49184 0.40965,1.22105 2.30804,6.6516 4.21866,12.06787 1.91062,5.41628 3.82242,14.00556 4.24846,19.08729 0.87313,10.41476 1.70724,10.01436 5.71258,-2.74217 z m 17.99688,-38.02587 c -2.22684,-1.62831 -2.35297,-3.31239 -1.52065,-20.30463 1.74472,-35.61971 10.47073,-48.21477 34.36199,-49.59781 9.28266,-0.53737 10.48906,-0.34231 10.48906,1.69594 0,4.36902 -4.35432,11.45807 -10.19671,16.60075 l -5.85959,5.15782 0.84491,7.18887 c 1.02341,8.70766 -2.089,22.19886 -6.75053,29.26116 -5.37835,8.14829 -16.67173,13.43225 -21.36848,9.9979 z m -146.00291,-1.33298 c -12.81338,-3.70764 -21.70137,-9.92144 -28.47356,-19.90652 -6.27853,-9.25722 -9.36918,-20.46306 -8.52938,-30.92516 l 0.65743,-8.19023 -6.05434,-3.21182 c -7.44174,-3.94783 -18.72418,-14.14725 -22.13993,-20.01466 -2.49748,-4.29007 -2.49748,-4.34638 0,-3.38164 6.24911,2.41394 23.64404,5.01819 54.34091,8.13553 18.22395,1.85069 37.12395,4.34685 41.99999,5.54703 12.05613,2.96746 23.86788,8.8673 32.00682,15.98706 7.61548,6.66183 15.53872,21.09347 17.05057,31.05646 l 0.89988,5.93009 -5.8792,-4.7493 c -13.55742,-10.95189 -19.8792,-13.64735 -19.8792,-8.47606 0,3.99201 -5.50787,14.28079 -10.60533,19.81087 -10.08302,10.93879 -30.83363,16.6017 -45.39466,12.38835 z m 27.98097,-19.99652 c 7.02144,-4.64657 12.12113,-11.70692 12.95696,-17.93847 0.63124,-4.70627 0.37803,-5.28098 -2.66298,-6.04423 -1.84831,-0.46389 -4.23054,-1.17729 -5.29386,-1.58532 -1.27099,-0.48773 -2.5172,0.66774 -3.63768,3.37283 -3.62373,8.74846 -14.44075,12.19468 -22.2389,7.08513 -3.7764,-2.47438 -7.10451,-9.11111 -7.10451,-14.16738 0,-2.86983 -0.80854,-3.32244 -8.00575,-4.48152 -4.40316,-0.70911 -8.30316,-0.99187 -8.66667,-0.62837 -1.71554,1.71555 -0.347,14.77972 2.11779,20.21648 3.63849,8.02567 7.24724,11.71979 15.22129,15.58138 8.70986,4.21792 19.66395,3.65224 27.31431,-1.41053 z m 29.618,621.82298 c 33.3907,-6.498 62.90561,-16.8043 99.06768,-34.5935 55.44542,-27.2753 104.69028,-65.262 145.28046,-112.067 48.97657,-56.4755 84.58886,-128.5476 98.49466,-199.33335 7.27056,-37.00984 8.23139,-47.80089 8.13227,-91.33332 -0.0988,-43.38353 -0.89711,-52.66542 -7.39683,-86 C 957.50166,657.3019 947.70998,628.0052 929.68366,590.47013 893.69554,515.53432 837.77524,452.31083 767.33327,406.91675 747.43292,394.0926 711.92252,375.22481 696.66661,369.36933 670.19612,359.2095 662.84738,356.70386 645.99995,352.09392 605.46495,341.0024 575.0206,336.31358 535.99996,335.1525 c -96.52847,-2.87225 -194.36129,26.68772 -272.1683,82.23504 -66.53157,47.49765 -119.81873,112.59955 -152.05049,185.76285 -18.075129,41.02899 -28.498935,78.76237 -34.692754,125.58514 -3.878696,29.32138 -4.168242,85.57343 -0.565847,109.93109 3.947064,26.68816 9.857399,53.36948 16.244492,73.33333 5.844075,18.26656 22.666519,58.67423 24.421289,58.66016 0.4464,-0.004 2.82739,-5.85358 5.29109,-13 11.23058,-32.57646 32.46024,-78.88073 50.73676,-110.66258 21.53982,-37.45656 46.87873,-71.52127 76.11846,-102.3309 10.12727,-10.67101 18.85288,-23.0774 23.29482,-33.12141 3.87899,-8.77109 8.93337,-31.82735 14.07649,-64.21192 5.91014,-37.21419 10.49802,-55.24158 21.45623,-84.30902 14.18873,-37.63662 31.95328,-66.57464 56.69028,-92.34707 l 12.36198,-12.87943 -1.9006,-7.20486 c -3.34159,-12.66736 -3.96109,-31.55374 -1.41099,-43.01597 3.31737,-14.91093 4.00041,-15.44994 20.76377,-16.38545 27.27829,-1.52232 63.24888,5.08363 92.09886,16.91385 l 13.01813,5.33822 11.07319,-1.38846 c 20.38784,-2.55642 56.72801,-1.73192 81.14313,1.84102 30.53509,4.46854 43.28519,8.01215 78.14471,21.71864 5.44973,2.14279 5.52901,2.12967 15.33334,-2.53756 17.64906,-8.40163 30.50843,-11.7439 45.18455,-11.7439 13.06744,0 15.5026,1.27519 19.72128,10.3272 3.43204,7.36408 3.5808,8.61395 3.69737,31.06414 l 0.12146,23.39135 7.55516,10.60865 c 8.84707,12.42269 22.13879,38.36579 26.95359,52.60865 5.03672,14.89934 9.44752,35.95544 11.40078,54.42451 1.39656,13.20526 1.41908,20.26136 0.11488,36 -3.29111,39.71603 -13.1988,70.67654 -31.11681,97.23679 -6.29245,9.32744 -6.45017,9.79186 -4.56398,13.43934 5.45194,10.54289 16.11087,45.74791 21.53247,71.11884 2.79159,13.06356 5.83493,47.46932 5.87755,66.44717 0.035,15.59023 -2.9439,51.76525 -5.23127,63.52718 -9.92221,51.02127 -26.43007,93.88487 -52.17832,135.48417 -29.53884,47.7234 -70.89565,90.8032 -120.53062,125.5521 -16.64883,11.6557 -16.23133,12.0648 7.58284,7.4304 z m -177.73981,-59.3772 3.56458,-16.8666 -27.17529,-108.875 c -14.9464,-59.88129 -27.61452,-109.34283 -28.15137,-109.91456 -0.53685,-0.57173 -4.49302,1.07827 -8.79148,3.66667 -4.29846,2.58839 -8.45068,4.71536 -9.22715,4.72659 -5.16851,0.0747 -4.92959,1.77476 7.13258,50.75049 11.78648,47.85631 34.63699,142.51761 37.39735,154.92351 1.37319,6.1716 19.78724,40.3544 21.05544,39.0862 0.34692,-0.3469 2.23483,-8.2207 4.19534,-17.4973 z m -195.8412,-9.2191 c 12.63522,-16.558 10.91894,-12.5688 37.31447,-86.7309 9.3962,-26.4 18.00367,-50.4 19.12771,-53.3333 1.12404,-2.9334 7.73496,-20.63335 14.69093,-39.33335 6.95597,-18.7 13.01753,-34.94764 13.47012,-36.10587 0.60105,-1.53815 -0.6866,-2.78655 -4.77638,-4.63078 -3.0796,-1.38871 -7.98206,-4.25101 -10.89436,-6.36066 -4.19264,-3.03714 -5.53256,-3.46101 -6.43568,-2.03588 -0.62732,0.98992 -1.14797,2.39986 -1.157,3.13319 -0.009,0.73333 -2.08487,6.73333 -4.61298,13.33333 -2.52811,6.6 -7.58987,20.1 -11.24835,30 -3.65848,9.9 -11.24121,30 -16.8505,44.66662 -5.60929,14.6667 -12.78481,33.8667 -15.9456,42.6667 -8.27614,23.0417 -22.96684,62.1788 -25.96681,69.1774 -2.32124,5.4153 -2.45132,7.5109 -1.34943,21.7411 0.67069,8.6615 1.23365,16.9182 1.25101,18.3482 0.0377,3.1019 -0.62825,3.8252 13.38285,-14.5358 z m 102.2932,-125.0642 c 2.56451,-2.7715 2.81075,-4.8747 3.23241,-27.60934 l 0.45644,-24.60932 -3.11256,-1.56975 c -3.78183,-1.90728 -7.87563,-1.01454 -9.53092,2.07841 -0.67414,1.25964 -1.64284,13.08925 -2.15266,26.288 l -0.92694,23.9978 3.15821,2.2121 c 4.16714,2.9187 5.56059,2.7951 8.87602,-0.7879 z m 102.84658,-19.7591 c 2.47896,-4.4254 1.04498,-10.31991 -2.86164,-11.76302 -1.62952,-0.60194 -9.47018,-1.45034 -17.42369,-1.88531 l -14.46093,-0.79088 0.86814,3.59915 c 2.68273,11.12216 3.64328,13.46916 5.74682,14.04166 1.2688,0.3454 7.68562,0.5371 14.25961,0.426 11.35297,-0.1917 12.04901,-0.3737 13.87169,-3.6276 z m -75.54266,2.0329 c 0.39941,-0.3994 -0.32986,-4.1494 -1.62058,-8.3333 l -2.34677,-7.60719 -6.15719,-0.40638 -6.15719,-0.40639 v 8 7.99996 l 6.33333,0.4994 c 3.48333,0.2747 6.98333,0.6076 7.77778,0.7397 0.79444,0.1322 1.77122,-0.086 2.17062,-0.4858 z m -45.77045,-9.76114 c 0.28165,-7.80472 0.27356,-7.82238 -3.97208,-8.6715 -5.28696,-1.0574 -6.99745,0.31357 -9.08518,7.28177 -0.90432,3.01837 -1.96562,6.32547 -2.35844,7.34917 -0.56182,1.4641 0.9766,1.8612 7.20963,1.8612 h 7.92385 z m -57.40688,-2.48653 c 1.54801,-4.20229 2.3828,-8.03211 1.85508,-8.51071 -0.52771,-0.47861 -8.02819,-1.162 -16.66773,-1.51866 -14.11394,-0.58266 -16.04235,-0.38567 -19,1.94081 -3.75142,2.95087 -4.21819,7.14637 -1.26428,11.36368 2.10679,3.00785 5.26963,3.54805 24.11745,4.11875 l 8.14492,0.2466 z m 95.65808,-71.91166 c 32.42438,-10.94906 46.79914,-45.53735 31.93939,-76.85196 -4.72535,-9.95793 -20.2365,-22.51764 -33.01643,-26.73411 -1.85511,-0.61205 -2.19483,-1.8982 -1.71144,-6.47935 0.33171,-3.14365 0.92561,-13.66573 1.31979,-23.38239 l 0.71669,-17.66667 h -9.83326 -9.83327 l -0.82345,11.66667 c -0.4529,6.41667 -0.93089,15.86666 -1.0622,21 -0.33224,12.9882 -0.59223,13.57742 -6.33062,14.3471 -13.40691,1.79825 -29.16443,13.85878 -36.12653,27.65062 -15.33572,30.37988 -0.61555,64.76828 32.6481,76.27058 8.60928,2.97702 23.58089,3.06071 32.11323,0.17951 z m -28.31921,-17.5014 c -13.52909,-4.8347 -21.80335,-14.35949 -24.40876,-28.09777 -2.75488,-14.52641 4.11513,-29.33991 17.23984,-37.17353 4.00089,-2.38798 8.42837,-4.34178 9.83883,-4.34178 2.39462,0 2.50594,0.72862 1.68059,11 -0.48614,6.05 -1.21268,13.42293 -1.61454,16.38429 -0.54804,4.03855 -0.12022,6.12036 1.71172,8.32931 3.52283,4.24784 9.77606,5.12657 13.72524,1.92871 2.91948,-2.36405 3.26783,-3.93161 4.20438,-18.91972 0.56164,-8.98816 1.29863,-16.61957 1.63775,-16.9587 1.18402,-1.18402 10.90868,4.70491 15.05907,9.11927 8.94578,9.51473 11.77389,21.69928 8.02764,34.58594 -5.6739,19.51753 -28.00967,30.96666 -47.10176,24.14398 z"
       id="path26" />
  </g>
</svg>
