<?xml version="1.0" encoding="UTF-8" standalone="no"?>
<!-- Created with Inkscape (http://www.inkscape.org/) -->

<svg
   version="1.1"
   id="svg1"
   width="991.50946"
   height="983.72546"
   viewBox="0 0 991.50951 983.7255"
   xmlns="http://www.w3.org/2000/svg"
   xmlns:svg="http://www.w3.org/2000/svg">
  <defs
     id="defs1" />
  <g
     id="g1"
     transform="translate(-26.913668,-292.76864)">
    <g
       id="g18">
      <path
         style="display:inline;fill:#046fdc"
         d="m 697.66661,1261.6865 c 3.48334,-0.2746 9.18333,-0.2746 12.66667,0 3.48333,0.2747 0.63333,0.4994 -6.33333,0.4994 -6.96667,0 -9.81667,-0.2247 -6.33334,-0.4994 z m -11.70167,-41.9648 c -20.28125,-16.7511 -51.62104,-30.2461 -87.35542,-37.6157 -29.20026,-6.022 -45.44839,-7.6387 -84.27623,-8.3857 l -36.99999,-0.7119 v -28.3616 c 0,-23.1201 0.346,-28.4943 1.87224,-29.08 6.56994,-2.5211 32.41932,-3.8354 63.34506,-3.2208 28.92088,0.5748 37.1616,1.2151 54.11602,4.2047 20.00112,3.5268 35.14178,7.1553 42.66666,10.225 2.2,0.8975 5.2,1.8472 6.66667,2.1103 5.44828,0.9776 15.33333,5.0173 15.33333,6.2662 0,0.7107 0.37153,0.9207 0.82561,0.4666 1.8146,-1.8146 22.10257,10.0501 35.7386,20.9004 2.66293,2.1189 4.97537,3.6189 5.13875,3.3333 0.16337,-0.2856 1.79704,-3.5099 3.63037,-7.1652 1.83333,-3.6554 7.20288,-10.755 11.93232,-15.7771 28.90546,-30.694 75.81304,-51.655 127.401,-56.9299 16.14716,-1.6511 54,-1.3749 54,0.394 0,0.614 0.50246,0.8058 1.11658,0.4263 0.61411,-0.3796 3.00778,0.935 5.31927,2.9213 l 4.2027,3.6114 -4.31928,9.6391 -4.31927,9.639 -17.33333,0.038 c -47.12795,0.1039 -94.10153,13.0217 -125.91724,34.6274 -10.37664,7.0466 -24.437,21.3707 -29.50275,30.0562 -3.86067,6.6193 -3.8884,6.8206 -3.90082,28.3333 l -0.0125,21.6667 -9,0.01 c -4.95,0.01 -12.91575,0.3795 -17.70167,0.8317 -7.91964,0.7482 -9.05801,0.5278 -12.66667,-2.4527 z m 189.07522,-74.0368 c 3.50546,-0.2756 8.90546,-0.2722 12,0.01 3.09454,0.2796 0.22644,0.5051 -6.37356,0.501 -6.6,0 -9.1319,-0.2328 -5.62644,-0.5084 z m -348.65095,-114.662 c -2.02844,-1.258 -6.11851,-6.8999 -9.33333,-12.8744 -3.14742,-5.8492 -7.60961,-13.107 -9.91597,-16.1285 -6.90295,-9.04316 -22.0654,-18.65268 -45.38735,-28.76513 -7.10682,-3.08153 -8.40171,-7.28413 -8.41183,-27.30078 l -0.007,-14.71252 3.91076,-2.31014 c 2.15092,-1.27058 10.56848,-7.09995 18.7057,-12.95414 8.13722,-5.8542 15.16102,-10.644 15.60844,-10.644 0.44742,0 3.57986,1.68415 6.96096,3.74256 3.38111,2.05842 10.19938,5.44924 15.15171,7.53516 4.95233,2.08593 9.75233,4.69363 10.66667,5.7949 1.11351,1.34116 1.94684,9.96947 2.52381,26.1315 1.01535,28.4418 1.50029,30.14041 14.52673,50.88312 5.77334,9.19317 9.27854,16.18947 9.27854,18.51967 0,11.5457 -14.31647,19.2606 -24.27741,13.0827 z m 7.5017,-14.4989 c 4.64134,-1.7811 2.67958,-6.1044 -15.01121,-33.08167 -5.25053,-8.00668 -9.6072,-15.20668 -9.6815,-16 -0.0743,-0.79331 -0.0327,-3.34172 0.0925,-5.66313 0.45203,-8.38468 -5.5491,-15.11258 -13.48006,-15.11258 -4.57713,0 -10.4773,7.10946 -10.4773,12.62471 0,5.72435 4.83496,11.37529 9.73274,11.37529 4.06849,0 4.93318,1.05035 18.66015,22.66666 10.16286,16.00382 16.01009,24.00002 17.54999,24.00002 0.27812,0 1.45475,-0.3642 2.61473,-0.8093 z M 427.29442,881.0492 c -16.02555,-24.10483 -19.21283,-29.676 -17.74737,-31.02136 3.2425,-2.97676 26.53426,-18.39204 27.00278,-17.87136 0.78337,0.87057 31.98507,48.23689 35.17246,53.39419 l 3.01407,4.87687 -13.95416,10.00158 -13.95416,10.00158 z m -57.67206,-39.13018 c -3.62235,-2.5372 -6.95748,-8.7043 -6.95074,-12.85285 0.009,-5.53376 4.73282,-10.98918 17.10936,-19.75915 21.4238,-15.18084 34.70904,-22.64039 40.32182,-22.64039 7.40466,0 14.5801,6.99558 14.52143,14.15743 -0.0649,7.92134 1.7491,6.31597 -36.00596,31.86483 -17.80855,12.05105 -22.73124,13.61807 -28.99591,9.23013 z m -22.28905,-47.35656 c -7.33334,-2.84166 -14.53334,-5.74817 -16,-6.4589 -53.21683,-25.78828 -60.34387,-29.62791 -71.33333,-38.43016 -20.06298,-16.06989 -69.68731,-64.02199 -68.40381,-66.09875 0.44871,-0.72602 0.22634,-0.95571 -0.49415,-0.51043 -1.19606,0.73921 -9.77964,-8.53218 -30.30274,-32.73092 -4.19813,-4.95 -7.16188,-9 -6.58612,-9 0.57577,0 -0.13666,-0.83024 -1.58316,-1.84497 -1.44651,-1.01474 -4.56671,-4.5443 -6.93378,-7.84347 l -4.30376,-5.99849 34.74338,-0.98358 c 19.10886,-0.54097 34.24555,-1.43102 33.63709,-1.97788 -1.4634,-1.31527 -44.58334,-19.16237 -53.10628,-21.9804 -3.66666,-1.21235 -8.01666,-3.08066 -9.66666,-4.15181 -1.65,-1.07115 -3,-1.67829 -3,-1.34921 0,1.02272 -15.98612,-5.60866 -21.95938,-9.10923 -7.64034,-4.47753 -13.11165,-10.98455 -18.91172,-22.49165 -5.228356,-10.37285 -11.529405,-27.64657 -10.470927,-28.70505 0.358725,-0.35873 0.129548,-1.30744 -0.509283,-2.10824 -4.401581,-5.51761 -31.300414,-144.76842 -28.758989,-148.88054 0.422226,-0.68317 1.633398,-1.24213 2.691495,-1.24213 3.202131,0 22.953826,7.26497 39.918804,14.68273 21.47885,9.39141 73.79592,36.37605 96.1646,49.60078 13.4715,7.96457 31.78211,22.97864 30.51813,25.02382 -0.36708,0.59394 0.26716,1.43854 1.40943,1.87687 1.14227,0.43832 1.70341,1.4012 1.24699,2.13971 -0.45643,0.73851 -0.26835,1.34275 0.41796,1.34275 2.51055,0 11.69678,27.1043 10.71504,31.61514 -0.12587,0.57834 0.14256,1.95152 0.59649,3.05152 0.45394,1.1 1.78911,10.60562 2.96703,21.1236 2.90832,25.96894 3.17373,26.46368 8.01671,14.94351 2.17118,-5.16469 4.26674,-9.39262 4.6568,-9.39539 0.39005,-0.003 0.83812,-1.35505 0.99571,-3.00505 0.53786,-5.63161 6.50108,-22.34931 7.61199,-21.33999 0.60939,0.55366 0.67684,-0.19334 0.14989,-1.66001 -0.56094,-1.56125 -0.47476,-2.11396 0.2079,-1.33333 21.57602,24.67241 45.21231,58.05357 60.42221,85.33333 2.45323,4.4 4.93502,8.2 5.5151,8.44444 0.58007,0.24444 1.05467,1.17031 1.05467,2.05749 0,2.36652 18.61873,32.8921 35.50232,58.20639 9.10369,13.64955 15.26395,24.31023 16.17977,28 3.99457,16.09388 5.17502,64.03525 2.07549,84.29167 -0.91222,5.96162 -1.79314,6.21132 -4.70394,1.33333 -1.20339,-2.01667 -10.90482,-15.96667 -21.55874,-31 -10.65392,-15.03333 -25.84869,-36.51239 -33.76616,-47.73125 -7.91747,-11.21885 -17.14097,-24.11885 -20.49665,-28.66666 -3.35569,-4.54781 -13.11009,-17.86875 -21.67644,-29.60208 -21.57866,-29.55628 -35.87726,-48.28165 -57.0308,-74.68723 -49.22525,-61.44697 -69.28354,-84.76212 -95.19012,-110.6461 -14.51928,-14.50662 -36.58746,-33.19169 -37.78591,-31.99324 -0.893397,0.8934 7.51341,13.24134 23.68166,34.78372 7.75658,10.33477 18.00075,24.13477 22.76483,30.66667 12.22291,16.75851 43.74732,60.28597 53.98705,74.54285 4.74033,6.6 15.38353,21.39744 23.65155,32.88321 8.26802,11.48576 19.83276,27.92187 25.69943,36.52469 5.86667,8.60282 13.91518,20.20538 17.88558,25.78346 16.256,22.83829 93.82077,138.88999 93.21263,139.46388 -0.23735,0.22398 -6.43155,-1.91775 -13.76488,-4.75942 z"
         id="path19" />
      <path
         style="display:inline;fill:#03172b"
         d="M 497.33329,1275.9125 C 430.50734,1273.2231 364.24765,1255.5249 299.44306,1223.0553 185.42968,1165.9301 97.325628,1066.3044 53.839539,945.33328 37.099354,898.76487 28.613094,850.9511 27.098363,794.66663 25.257361,726.2585 37.150808,662.11354 64.059554,595.32375 c 8.579862,-21.29594 23.666894,-52.5697 27.187109,-56.35588 1.243009,-1.33692 2.090038,-0.0589 3.976603,6 4.126424,13.25245 13.821554,30.55152 20.336154,36.2859 l 5.9457,5.23361 -8.25706,20.42296 c -20.562493,50.85909 -30.634236,90.99689 -34.645155,138.06745 -2.30359,27.03404 -0.993994,79.80805 2.539969,102.3555 5.550183,35.41137 18.004866,79.81217 27.437886,97.81573 l 1.77821,3.39385 3.10885,-7.27146 c 14.81712,-34.65659 41.79558,-79.82711 65.26326,-109.27145 14.21438,-17.83445 41.48787,-45.25289 55.2689,-55.56266 12.30478,-9.20537 30.47159,-20.43734 33.05574,-20.43734 0.97229,0 5.3325,2.16457 9.68936,4.81016 4.35686,2.64558 17.82156,9.57729 29.92156,15.40378 12.1,5.8265 23.2,11.17599 24.66667,11.88776 5.18574,2.51665 29.33947,11.62167 29.76488,11.22022 0.60814,-0.57389 -76.95663,-116.62559 -93.21263,-139.46388 -3.9704,-5.57808 -12.01891,-17.18064 -17.88558,-25.78346 -5.86667,-8.60282 -17.43141,-25.03893 -25.69943,-36.52469 -8.26802,-11.48577 -18.91122,-26.28321 -23.65155,-32.88321 -10.23973,-14.25688 -41.76414,-57.78434 -53.98705,-74.54285 -4.76408,-6.5319 -15.00825,-20.3319 -22.76483,-30.66667 -16.16825,-21.54238 -24.575057,-33.89032 -23.68166,-34.78372 1.19845,-1.19845 23.26663,17.48662 37.78591,31.99324 37.05299,37.02067 99.04134,112.49326 152.22092,185.33333 8.56635,11.73333 18.32075,25.05427 21.67644,29.60208 3.35568,4.54781 12.57918,17.44781 20.49665,28.66666 7.91747,11.21886 23.11224,32.69792 33.76616,47.73125 10.65392,15.03333 20.35535,28.98333 21.55874,31 2.9108,4.87799 3.79172,4.62829 4.70394,-1.33333 3.09953,-20.25642 1.91908,-68.19779 -2.07549,-84.29167 -0.91582,-3.68977 -7.07608,-14.35045 -16.17977,-28 -18.09776,-27.13475 -35.50232,-55.89158 -35.50232,-58.65902 0,-4.26398 21.4397,-45.34383 31.99988,-61.31385 13.81667,-20.89476 22.15558,-31.23159 36.20486,-44.87919 20.64289,-20.0527 39.59111,-33.04515 66.62227,-45.6817 24.68015,-11.5375 48.88786,-18.19791 78.50631,-21.59989 19.51772,-2.2418 58.95038,-0.89347 78.2744,2.67646 35.54703,6.56698 65.08677,20.63987 79.45015,37.85046 7.79816,9.34396 9.69348,12.58836 12.88041,22.04862 3.28974,9.76543 3.45645,18.07994 0.56887,28.3712 -2.12234,7.56397 -2.25422,7.70892 -7.66667,8.42635 -3.02895,0.40149 -9.94815,0.8775 -15.37602,1.05778 l -9.86884,0.32779 -4.72498,-9.33333 c -9.54648,-18.85734 -28.32398,-32.56496 -54.204,-39.56904 -9.08798,-2.45954 -14.41602,-2.90239 -35.99999,-2.99221 -28.28319,-0.11769 -38.32922,1.44382 -57.33333,8.91163 -16.64386,6.54033 -25.69252,12.51855 -38.70686,25.57265 -14.37709,14.421 -21.7461,27.37284 -26.71212,46.9495 -14.69331,57.92273 18.93489,113.23185 78.75231,129.52585 12.38659,3.37405 44.27748,3.02782 54,-0.58626 l 7.33333,-2.72597 0.90982,-10.84976 c 2.06761,-24.6566 8.36312,-44.70577 18.00862,-57.35167 3.44907,-4.52196 6.28076,-5.03932 12.63324,-2.3081 1.84273,0.79227 2.4798,-0.36107 3.76245,-6.81143 0.84926,-4.27086 4.58069,-14.06519 8.29206,-21.76519 5.77129,-11.9737 8.31443,-15.56082 17.57088,-24.78391 14.82217,-14.76873 33.46893,-24.54942 46.80313,-24.54942 7.11514,0 17.22575,6.18764 27.10547,16.58841 12.28876,12.93688 21.13772,30.31781 26.23549,51.53122 3.36933,14.02081 3.59827,16.67732 2.91976,33.88036 -0.40493,10.26667 -1.68454,22.48831 -2.84358,27.15921 -4.86698,19.61377 -16.76541,40.3137 -30.46369,52.99826 -13.60722,12.60024 -26.3295,19.28993 -24.42361,12.84252 4.41135,-14.92309 6.02358,-39.93861 3.37112,-52.30662 -2.27742,-10.61922 -6.10941,-14.13168 -18.26617,-16.74304 -22.40201,-4.81211 -32.67467,-9.5884 -39.56894,-18.39765 -4.19856,-5.36476 -5.21897,-4.12118 -3.24263,3.9518 5.35835,21.88786 20.21798,31.26158 43.21006,27.25768 4.93087,-0.85867 9.29852,-1.22793 9.70589,-0.82056 0.40736,0.40736 -2.16502,4.99328 -5.71642,10.19093 -4.6164,6.75635 -9.09728,11.30441 -15.71893,15.95461 -12.72872,8.93903 -21.62895,12.07964 -36.61011,12.91855 -10.5217,0.58919 -13.51439,0.25695 -20.44369,-2.26959 -4.46468,-1.62791 -8.4516,-2.62584 -8.85981,-2.21763 -1.04086,1.04087 3.09578,15.3782 8.31374,28.81486 2.42063,6.23333 5.59917,14.63333 7.06341,18.66666 1.46424,4.03334 5.44675,14.79401 8.85002,23.91261 13.57492,36.37219 19.24883,71.4455 17.48559,108.08739 -3.30883,68.76061 -25.81595,128.21391 -69.27791,183.00001 -5.67212,7.15 -10.94955,13 -11.72762,13 -0.77808,0 -11.38885,-0.963 -23.57949,-2.14 -26.46729,-2.5553 -70.24773,-1.8895 -84.35678,1.283 -11.24621,2.5287 -17.40453,5.6586 -33.14136,16.8435 -21.04333,14.9566 -64.54182,54.5828 -62.33695,56.7876 0.46589,0.4659 9.13229,-3.5078 19.25868,-8.8304 10.12638,-5.3226 30.71161,-15.977 45.74494,-23.6765 l 27.33333,-13.9989 0.35888,28.7038 0.35889,28.7038 36.97444,0.7115 c 38.8008,0.7466 55.05551,2.3644 84.25068,8.3853 36.45658,7.5185 62.18368,18.7182 89.2764,38.8643 1.62122,1.2055 6.84629,1.4148 19.82441,0.794 l 17.62295,-0.843 0.0125,-21.4607 c 0.0124,-21.2851 0.0443,-21.5152 3.90082,-28.1273 5.06575,-8.6855 19.12611,-23.0096 29.50275,-30.0562 23.67259,-16.0758 58.68567,-28.3423 93.25057,-32.6696 16.76795,-2.0992 49.22572,-2.4369 65.93946,-0.6861 9.1072,0.9541 11.03867,1.6139 13.66667,4.6692 3.77269,4.386 3.83899,8.5279 0.32442,20.2689 -5.03029,16.8045 -5.05732,16.8457 -10.4818,15.9942 -49.80977,-7.8191 -104.54606,0.047 -139.25319,20.0118 -16.16104,9.2965 -26.18808,19.0373 -28.24608,27.4399 l -0.89123,3.6388 13.85027,-6.5332 c 15.92459,-7.5116 31.28993,-12.8779 53.09149,-18.5421 23.4532,-6.0933 36.11556,-7.4374 69.99999,-7.4305 33.15795,0.01 46.20589,1.5754 52.17752,6.2727 9.32848,7.3378 9.51798,25.6814 0.33176,32.1157 -2.37847,1.6659 -7.08629,1.8643 -29.00761,1.2225 -40.26413,-1.1788 -66.81448,2.3935 -100.835,13.567 -17.33974,5.695 -44.59808,18.7997 -61.19908,29.4221 -17.54149,11.2241 -19.09221,11.5786 -48.40697,11.0662 -22.04227,-0.3852 -25.78576,-0.7736 -31.08147,-3.2248 -5.83886,-2.7026 -6.22307,-2.7181 -12.70959,-0.5133 -12.23334,4.1583 -55.65389,13.1325 -76.60287,15.8325 -24.18858,3.1174 -52.73759,4.0252 -85.33333,2.7135 z M 281.33331,1124.7293 c 62.02973,-40.5621 114.68643,-101.6603 137.94822,-160.06268 3.81476,-9.57756 14.05177,-39.22547 14.05177,-40.69602 0,-2.27269 -21.34029,-29.45973 -21.84769,-27.83346 -0.31966,1.02455 -2.83373,9.36281 -5.58681,18.52948 -7.87961,26.23595 -19.58778,52.35568 -34.29541,76.50949 -26.19481,43.01879 -69.42443,89.17399 -115.35377,123.16019 -8.29604,6.1388 -14.89603,11.6602 -14.66667,12.2698 0.22937,0.6095 3.69666,3.8209 7.7051,7.1363 8.643,7.1488 6.33861,7.7969 32.04526,-9.0131 z m 259.76516,-92.8473 c 4.84779,-1.6899 9.56815,-8.568 9.56815,-13.9418 0,-2.3302 -3.5052,-9.3265 -9.27854,-18.51967 -13.02644,-20.74271 -13.51138,-22.44132 -14.52673,-50.88312 -0.57697,-16.16203 -1.4103,-24.79034 -2.52381,-26.1315 -0.91434,-1.10127 -5.71434,-3.70897 -10.66667,-5.7949 -4.95233,-2.08592 -11.7706,-5.47674 -15.15171,-7.53516 -3.3811,-2.05841 -6.51354,-3.74256 -6.96096,-3.74256 -0.44742,0 -7.47122,4.7898 -15.60844,10.644 -8.13722,5.85419 -16.55478,11.68356 -18.7057,12.95414 l -3.91076,2.31014 0.007,14.71252 c 0.0101,20.01665 1.30501,24.21925 8.41183,27.30078 23.32195,10.11245 38.4844,19.72197 45.38735,28.76513 2.30636,3.0215 6.76855,10.2793 9.91597,16.1285 7.69281,14.2965 13.27715,17.4864 24.04259,13.7335 z m -13.13487,-17.5487 c -1.54379,-1.65 -7.95063,-11.1 -14.23741,-21.00002 -13.72697,-21.61631 -14.59166,-22.66666 -18.66015,-22.66666 -4.89778,0 -9.73274,-5.65094 -9.73274,-11.37529 0,-5.51525 5.90017,-12.62471 10.4773,-12.62471 7.93096,0 13.93209,6.7279 13.48006,15.11258 -0.12515,2.32141 -0.16675,4.86982 -0.0925,5.66313 0.0743,0.79332 4.43097,7.99332 9.6815,16 17.69079,26.97727 19.65255,31.30057 15.01121,33.08167 -2.91185,1.1173 -2.79005,1.1624 -5.92731,-2.1907 z M 471.72229,885.55067 c -3.18739,-5.1573 -34.38909,-52.52362 -35.17246,-53.39419 -0.46852,-0.52068 -23.76028,14.8946 -27.00278,17.87136 -1.46546,1.34536 1.72182,6.91653 17.74737,31.02136 l 19.53362,29.3815 13.95416,-10.00158 13.95416,-10.00158 z m 147.6608,-9.61544 c 7.67269,-9.97124 11.95848,-19.29777 14.5677,-31.70155 2.02439,-9.62363 2.85712,-32.23372 1.18717,-32.23372 -0.4741,0 -4.11681,2.16042 -8.09492,4.80094 -11.33543,7.52403 -19.59461,9.86572 -34.79649,9.86572 -20.79452,0 -41.84103,-6.56544 -57.7996,-18.03052 -3.54584,-2.54744 -6.44699,-4.27432 -6.44699,-3.83752 0,2.20355 11.42142,22.20002 16.679,29.20138 11.61222,15.46363 37.24877,39.18702 55.87071,51.70126 l 5.21638,3.5055 3.76577,-2.68147 c 2.07118,-1.47481 6.50425,-6.24032 9.85127,-10.59002 z M 398.61827,832.68889 c 37.75506,-25.54886 35.94106,-23.94349 36.00596,-31.86483 0.0587,-7.16185 -7.11677,-14.15743 -14.52143,-14.15743 -5.61278,0 -18.89802,7.45955 -40.32182,22.64039 -16.46226,11.6651 -19.82118,17.59092 -15.12196,26.67821 2.72271,5.26513 7.04168,8.01473 12.58926,8.01473 3.63835,0 8.30541,-2.47027 21.36999,-11.31107 z m 508.05237,251.11971 c -4.45848,-3.7087 -15.67837,-9.2882 -29.03709,-14.4398 -6.03182,-2.3262 -10.95129,-4.6357 -10.93214,-5.1324 0.0191,-0.4967 5.8245,-8.4031 12.90078,-17.5698 27.60089,-35.7544 50.36473,-78.84623 65.15246,-123.33331 11.66994,-35.10758 16.85372,-58.39882 20.77258,-93.33333 2.15245,-19.18793 2.14636,-74.69544 -0.0103,-93.33333 C 953.87449,636.04927 910.49,545.15091 840.73382,475.22333 749.1262,383.39061 628.2893,336.46123 499.99996,342.89265 c -42.28507,2.11985 -78.70158,9.00375 -118.98517,22.49206 -54.43572,18.22693 -101.46836,43.92695 -141.68148,77.41893 -5.86666,4.88612 -12.39539,10.71917 -14.50828,12.96233 l -3.84162,4.07848 -4.82505,-3.8507 c -5.56434,-4.4407 -33.04226,-20.58157 -37.3831,-21.9593 -1.60713,-0.51009 -2.73904,-1.41471 -2.51534,-2.01027 0.2237,-0.59556 5.50673,-5.72551 11.74007,-11.39988 32.85866,-29.91215 66.71292,-53.14984 108.40588,-74.4102 52.34143,-26.6903 115.69976,-45.66258 172.92743,-51.78211 20.8464,-2.22917 81.81765,-2.21452 102.66666,0.0247 58.89402,6.32524 113.57904,21.85154 167.89167,47.66823 41.67217,19.80824 89.63309,53.01606 125.4484,86.85965 83.66949,79.06329 135.53877,182.384 150.11227,299.01543 5.3162,42.54553 3.3854,98.85294 -4.8921,142.66666 -6.1467,32.53501 -17.29992,70.68935 -28.77791,98.44707 -7.76599,18.78083 -23.98859,50.36017 -34.92218,67.98057 -10.72083,17.2774 -34.1173,49.6036 -35.84647,49.528 -0.55754,-0.024 -2.51189,-1.2906 -4.343,-2.8137 z M 578.73805,587.10437 c -7.71575,-2.82141 -18.07613,-13.1698 -19.9532,-19.93011 -1.83585,-6.61187 -1.85757,-17.91823 -0.0437,-22.75416 2.60509,-6.94541 8.36351,-13.89767 14.49857,-17.50443 5.25453,-3.0891 7.57671,-3.58236 16.8648,-3.58236 9.66231,0 11.44318,0.41543 17.29809,4.03524 16.34643,10.10622 20.2151,33.10324 8.21542,48.83588 -8.09995,10.61975 -24.43966,15.44898 -36.87997,10.89994 z"
         id="path18" />
      <path
         id="path21"
         style="display:inline;fill:#ffffff;fill-opacity:1"
         d="m 484,344.03516 c -74.55416,6.54509 -150.65102,33.19719 -210,73.55078 -25.45511,17.30788 -34.30382,24.08119 -45.625,34.91601 l -6.96094,6.66016 6.69141,7.07422 c 12.23534,12.93706 17.63349,29.4245 21.89648,66.88672 3.01397,26.486 3.10714,26.61885 8.99219,12.58203 2.69912,-6.43787 6.51174,-16.99249 8.47266,-23.45508 1.96092,-6.46258 3.97359,-11.26194 4.4707,-10.66602 0.4971,0.59592 4.2007,4.98333 8.23047,9.75 16.6214,19.66084 42.84904,57.86823 52.80859,76.92969 2.02967,3.88457 4.06777,6.91385 4.5293,6.73242 0.46152,-0.18144 6.62739,-11.72877 13.70117,-25.66211 17.53015,-34.52938 31.10309,-53.77712 54.06836,-76.66796 21.87367,-21.80278 34.27707,-30.8036 60.61719,-43.98829 C 505.01886,439.09287 535.94774,432 582.21484,432 c 42.44653,0 79.72626,8.34332 105.62696,23.64062 28.9591,17.10366 42.88347,44.38397 35.44336,69.4375 -2.38355,8.0263 -2.34792,8.01103 -20.61914,8.54883 L 690,534 l -4.64258,-9.33398 c -13.71964,-27.58463 -46.77451,-43.21924 -91.55859,-43.30664 -17.0072,-0.0332 -41.40167,4.06614 -54.52539,9.1621 -35.66382,13.84831 -59.56295,40.8206 -67.34375,76.00196 -15.40219,69.64195 41.07282,133.9857 113.27929,129.0625 11.35118,-0.77394 24.68008,-3.91722 26.05664,-6.14453 0.39276,-0.63551 1.62653,-8.26941 2.74219,-16.96485 2.38252,-18.56934 6.01952,-31.59355 11.66602,-41.78711 8.28115,-14.94989 9.46729,-15.89155 15.86719,-12.58203 2.2217,1.14888 4.19379,1.89561 4.38281,1.6582 0.18903,-0.2374 1.36723,-4.58751 2.61719,-9.66601 3.10864,-12.63016 11.33774,-29.22067 19.04687,-38.40039 16.35581,-19.47583 42.3726,-32.79551 58.24219,-29.81836 6.76569,1.26925 19.6609,11.51674 27.50781,21.86133 20.25879,26.70723 28.38371,64.07352 21.95313,100.94922 -4.75379,27.26022 -22.14879,54.56513 -43.83204,68.80468 -9.16855,6.02106 -13.48512,6.77781 -12.32617,2.16016 7.3401,-29.24528 5.37708,-59.72144 -4.17578,-64.83398 -1.44456,-0.7731 -8.99964,-2.91143 -16.78906,-4.75196 -16.34777,-3.86273 -22.85524,-6.85827 -30.7832,-14.16601 -3.12578,-2.88124 -6.01223,-5.23828 -6.41407,-5.23828 -1.18673,0 2.3788,13.64302 4.75,18.17578 2.6662,5.0967 9.35702,10.89636 15.57618,13.50195 5.22642,2.18968 14.38836,2.5913 25.70312,1.125 4.68956,-0.60773 7.66602,-0.49813 7.66602,0.2832 0,0.70253 -2.48571,4.9998 -5.52344,9.54883 -15.75496,23.59325 -50.30244,36.06994 -74.39649,26.86719 -3.98962,-1.52384 -7.49417,-2.52926 -7.78906,-2.23438 -0.87752,0.87752 3.47223,15.02531 9.6543,31.40039 3.18383,8.43334 6.41634,17.13204 7.18359,19.33204 0.76725,2.2 3.84742,10.3 6.8457,18 13.28168,34.10921 17.89415,59.74388 17.87305,99.33398 -0.0283,52.95845 -8.45163,89.29356 -31.375,135.334 -11.84039,23.7808 -21.49138,39.0118 -36.95898,58.332 -8.00086,9.9937 -11.73563,13.6606 -13.89453,13.6406 -1.6238,-0.015 -11.95118,-0.9084 -22.95118,-1.9843 -41.77512,-4.0863 -81.18422,-1.7045 -97.00586,5.8632 -15.18841,7.2647 -43.16417,29.3413 -68.98046,54.4356 -7.70763,7.4921 -13.25813,13.643 -12.33399,13.668 2.07311,0.055 24.34488,-10.9815 48.32031,-23.9453 25.05413,-13.5472 41.41995,-20.951 50.36719,-22.7852 10.97956,-2.2508 68.99486,-3.1579 87.35352,-1.3652 54.02104,5.2748 99.93459,20.7785 125.51953,42.3828 2.882,2.4336 5.582,4.3991 6,4.3691 0.418,-0.03 2.19166,-3.1072 3.94336,-6.8379 7.26984,-15.4829 33.04899,-37.3464 59.48242,-50.4492 30.33499,-15.0367 63.17537,-22.9252 99.24219,-23.8144 a 449.54099,469.53284 0 0 0 8.20508,-10.7813 c -0.13092,-0.052 -0.26245,-0.1058 -0.39454,-0.1582 -7.57113,-3.0023 -7.60237,-3.0369 -5.33398,-6.0254 1.25481,-1.6532 7.66561,-10.0479 14.24609,-18.6562 32.1071,-42.001 57.6483,-96.35427 72.21094,-152.82622 a 449.54099,469.53284 0 0 0 3.15234,-12.17968 449.54099,469.53284 0 0 0 9.67383,-96.88282 c -0.082,-21.98392 -0.98482,-33.67804 -2.57422,-47.45117 a 449.54099,469.53284 0 0 0 -0.68359,-8.97851 C 949.47204,621.08225 897.8874,523.96029 821.33398,456.92383 745.14419,390.20579 658.32532,352.42802 562,344.08008 c -20.35024,-1.76362 -58.17602,-1.78527 -78,-0.0449 z m 109.51758,178.70898 c 4.70313,0.0125 6.92957,0.78024 11.56445,3.12891 12.14391,6.15379 18.52136,18.33759 17.21485,32.89062 -1.10961,12.35973 -7.40294,21.60323 -18.67383,27.43164 -4.71135,2.43633 -17.4485,3.56128 -22.29883,1.97071 -17.0894,-5.60414 -27.37378,-21.8709 -24.02539,-38 1.9182,-9.23996 7.78404,-18.41465 14.70117,-22.99219 4.44802,-2.94356 7.41724,-3.73493 15.80859,-4.22071 2.299,-0.13308 4.14128,-0.21313 5.70899,-0.20898 z m -470.53516,64.41992 c -0.84286,0.0606 -2.23955,1.92495 -3.27148,4.44532 -19.27439,47.07506 -24.246539,61.97654 -32.308596,96.79101 C 75.668818,739.06941 74.075416,808.69511 83.476562,860 c 4.771036,26.03696 17.642578,70.45857 24.050778,83 1.03044,2.01667 2.11694,3.66602 2.41407,3.66602 0.29714,0 4.77381,-8.76347 9.94726,-19.47461 24.11852,-49.93514 50.99552,-89.48286 83.90039,-123.45313 17.54556,-18.11365 31.05346,-29.16933 49.46289,-40.48828 l 13.14649,-8.08398 -14.78711,-12.58399 C 218.81776,714.6784 179.42341,673.83267 151.03711,638.30273 L 141.20703,626 l 35.0625,-1.35156 35.06445,-1.35352 L 206,620.88086 c -11.54008,-5.22618 -37.78469,-16.0553 -46,-18.98047 -7.06629,-2.51605 -30.88997,-12.03603 -36.77539,-14.69531 -0.0744,-0.0336 -0.155,-0.0473 -0.24219,-0.041 z m 405.43946,217.22852 c -0.73714,0.0315 0.45641,2.76042 3.75781,9.3125 11.39218,22.60937 36.29327,49.11707 65.08789,69.28906 l 8.59961,6.02539 3.57226,-2.64062 c 4.85486,-3.58935 16.61589,-19.25772 19.33399,-25.75586 5.28566,-12.63637 8.85615,-36.61085 6.7207,-45.11914 l -0.87695,-3.49805 -7.09571,4.71094 c -15.45743,10.26315 -30.80734,13.10008 -50.66015,9.36523 -17.82679,-3.3537 -36.79187,-11.54616 -45.86133,-19.8125 -1.33764,-1.21918 -2.20522,-1.8929 -2.57812,-1.87695 z m -115.9961,91.99609 c -0.81106,0.0523 -2.12458,3.15788 -3.0332,7.24024 -8.27354,37.17222 -35.04384,89.12817 -65.45703,127.03709 -23.08054,28.7691 -63.20191,66.8824 -90.66602,86.127 -5.81149,4.0723 -10.87763,7.9064 -11.25781,8.5215 -0.38017,0.6151 2.75648,4.1433 6.9707,7.8398 l 7.66211,6.7207 6.01172,-3.5176 c 13.94517,-8.1621 41.6179,-27.5629 54.00977,-37.8633 17.25793,-14.3451 44.33428,-41.4498 55.68359,-55.7441 25.64919,-32.305 44.19065,-66.57184 56.21289,-103.88867 l 4.87695,-15.14063 -9.73242,-13.41992 c -5.35281,-7.38123 -10.37764,-13.63565 -11.16601,-13.89844 -0.0374,-0.0124 -0.0754,-0.0162 -0.11524,-0.0137 z" />
    </g>
  </g>
</svg>
