<?xml version="1.0" encoding="UTF-8" standalone="no"?>
<!-- Created with Inkscape (http://www.inkscape.org/) -->

<svg
   version="1.1"
   id="svg1"
   width="974.39526"
   height="955.755"
   viewBox="0 0 974.39531 955.75504"
   xmlns="http://www.w3.org/2000/svg"
   xmlns:svg="http://www.w3.org/2000/svg">
  <defs
     id="defs1" />
  <g
     id="g1"
     transform="translate(-41.431738,-301.47982)">
    <g
       id="g2">
      <path
         style="display:inline;fill:#fdfdfd"
         d="m 565.08329,1256.4224 c 0.9625,-0.3851 2.1125,-0.3377 2.55555,0.1053 0.44306,0.4431 -0.34444,0.7582 -1.75,0.7003 -1.55325,-0.064 -1.86919,-0.3799 -0.80555,-0.8056 z m 10.66667,-1.3333 c 0.9625,-0.3851 2.1125,-0.3378 2.55555,0.1053 0.44306,0.443 -0.34444,0.7582 -1.75,0.7003 -1.55326,-0.064 -1.8692,-0.3799 -0.80555,-0.8056 z m -131.08333,-1.3733 c -5.31135,-1.2775 -4.4037,-2.3808 1.5679,-1.9059 4.13267,0.3287 5.51525,0.8631 4.27135,1.6509 -1.01159,0.6407 -2.13925,1.1046 -2.50591,1.0307 -0.36667,-0.074 -1.86667,-0.4229 -3.33334,-0.7757 z m 139.69203,0.027 c 1.29729,-0.338 3.09729,-0.3158 4,0.049 0.90271,0.3652 -0.15871,0.6418 -2.35871,0.6147 -2.2,-0.027 -2.93858,-0.326 -1.64129,-0.6641 z m 10.30796,-0.4093 c -1.7092,-1.1046 -1.66073,-1.2955 0.33333,-1.3129 1.28334,-0.011 2.33334,0.5795 2.33334,1.3129 0,1.6261 -0.15039,1.6261 -2.66667,0 z m -188.24998,-0.9109 c 0.96249,-0.3851 2.11249,-0.3377 2.55555,0.1053 0.44306,0.4431 -0.34444,0.7582 -1.75,0.7003 -1.55326,-0.064 -1.8692,-0.3799 -0.80555,-0.8056 z m 29.58333,-0.5012 c 0,-0.7766 0.6,-1.0412 1.33333,-0.5879 0.73333,0.4532 1.33333,1.0886 1.33333,1.412 0,0.3234 -0.6,0.588 -1.33333,0.588 -0.73333,0 -1.33333,-0.6354 -1.33333,-1.4121 z m 185.33331,-3.9213 c 2.62683,-1.6975 5.71583,-1.6975 4.66667,0 -0.45322,0.7334 -2.13863,1.3242 -3.74535,1.313 -2.37498,-0.017 -2.54728,-0.2622 -0.92132,-1.313 z m 6.66667,-1.0496 c 0,-0.5772 1.34244,-1.1507 2.98319,-1.2743 2.34453,-0.1766 2.55862,0.044 1,1.0292 -2.43785,1.5414 -3.98319,1.6365 -3.98319,0.2451 z m 61.08333,-18.5278 c 0.9625,-0.3852 2.1125,-0.3378 2.55556,0.1052 0.44305,0.4431 -0.34445,0.7582 -1.75,0.7003 -1.55326,-0.064 -1.8692,-0.3799 -0.80556,-0.8055 z m 8.25,-3.0892 c 0,-0.7334 0.63541,-1.3334 1.41202,-1.3334 0.77661,0 1.0412,0.6 0.58798,1.3334 -0.45323,0.7333 -1.08864,1.3333 -1.41202,1.3333 -0.32339,0 -0.58798,-0.6 -0.58798,-1.3333 z m -375.33331,-4 c -0.45322,-0.7334 -0.18863,-1.3334 0.58798,-1.3334 0.77661,0 1.41202,0.6 1.41202,1.3334 0,0.7333 -0.26459,1.3333 -0.58797,1.3333 -0.32339,0 -0.9588,-0.6 -1.41203,-1.3333 z m -11.86265,-6.4445 c -0.37769,-0.6111 0.1869,-1.1111 1.25464,-1.1111 1.06774,0 1.94135,0.5 1.94135,1.1111 0,0.6111 -0.56459,1.1111 -1.25464,1.1111 -0.69006,0 -1.56367,-0.5 -1.94135,-1.1111 z m -9.46124,-4.2069 c -0.46712,-0.7558 0.0681,-0.9794 1.25465,-0.524 2.30989,0.8863 2.73251,1.842 0.8146,1.842 -0.69005,0 -1.62121,-0.5931 -2.06925,-1.318 z m -5.89063,-6.6085 c -1.43791,-0.8887 -1.42644,-1.2142 0.0637,-1.8068 1.30091,-0.5174 1.17666,-0.7527 -0.43711,-0.8281 -1.24005,-0.058 -2.59088,-0.6493 -3.00184,-1.3142 -1.12894,-1.8267 4.28837,-0.094 5.94422,1.901 1.7384,2.0947 -0.10963,3.568 -2.56893,2.0481 z m 452.18905,0.145 c -1.21371,-0.7703 -0.64826,-1.6072 2,-2.96 2.03066,-1.0373 6.45847,-3.5448 9.83957,-5.5722 3.38111,-2.0275 6.68111,-3.6795 7.33334,-3.6712 0.65222,0.01 -3.16719,2.6052 -8.48758,5.771 -5.3204,3.1658 -9.2704,6.159 -8.77778,6.6516 1.21606,1.2161 0.16307,1.0951 -1.90755,-0.2192 z m 15.02544,-6.8851 c 0.45323,-0.7334 1.08864,-1.3334 1.41202,-1.3334 0.32339,0 0.58798,0.6 0.58798,1.3334 0,0.7333 -0.63541,1.3333 -1.41202,1.3333 -0.77661,0 -1.0412,-0.6 -0.58798,-1.3333 z m 7.33333,-6.588 c 0,-0.6901 0.59313,-1.6212 1.31806,-2.0693 0.75582,-0.4671 0.97935,0.068 0.52402,1.2547 -0.88639,2.3099 -1.84208,2.7325 -1.84208,0.8146 z m 4.10527,-2.3333 c -0.1521,-2.2945 2.20747,-3.3968 3.34195,-1.5611 0.57505,0.9304 0.38896,1.2052 -0.46066,0.6801 -0.784,-0.4846 -1.72934,-0.1273 -2.10075,0.794 -0.48333,1.1988 -0.7052,1.2235 -0.78054,0.087 z m -581.39801,-49.2488 c -0.0223,-0.8269 0.82379,-2.2207 1.8802,-3.0975 1.0706,-0.8885 1.55026,-2.5837 1.08369,-3.8299 -0.72525,-1.9372 -0.54053,-1.9947 1.38305,-0.4304 2.57088,2.0906 2.2441,7.1514 -0.50961,7.8923 -1.55769,0.4191 -1.56943,0.289 -0.0689,-0.7629 1.18159,-0.8283 1.32562,-1.5669 0.41528,-2.1296 -0.76655,-0.4737 -2.01237,0.2013 -2.76847,1.5 -0.7561,1.2988 -1.39298,1.6849 -1.41528,0.858 z m 650.62607,-3.7361 c 0,-0.3667 1.2,-1.3089 2.66667,-2.0938 1.46666,-0.785 2.66666,-1.1272 2.66666,-0.7605 0,0.3667 -1.2,1.3089 -2.66666,2.0938 -1.46667,0.7849 -2.66667,1.1272 -2.66667,0.7605 z m 9.63492,-8.1988 c 1.26587,-1.3216 2.58859,-2.116 2.93936,-1.7652 0.35078,0.3508 -0.68494,1.4321 -2.30158,2.403 -2.80842,1.6865 -2.83683,1.6581 -0.63778,-0.6378 z m 4.47521,-3.0502 c -0.39265,-0.6353 0.41237,-2.1744 1.78894,-3.4202 1.88353,-1.7045 2.75155,-1.8626 3.5079,-0.6388 0.68788,1.113 0.44777,1.2818 -0.76088,0.5348 -1.27104,-0.7856 -1.53463,-0.4887 -0.94058,1.0594 0.60745,1.583 0.25752,1.9329 -1.32547,1.3255 -1.43257,-0.5497 -1.82888,-0.3044 -1.18674,0.7346 0.53024,0.8579 0.66408,1.5599 0.29741,1.5599 -0.36666,0 -0.98793,-0.5198 -1.38058,-1.1552 z M 180.0386,1116.052 c -1.07876,-0.6822 -1.61426,-1.5875 -1.19,-2.0118 0.42426,-0.4242 1.53035,0.1431 2.45798,1.2609 1.92346,2.3176 1.55465,2.536 -1.26798,0.7509 z m 683.96133,0.1225 c 0,-1.8299 3.67607,-4.444 4.46172,-3.1728 0.38452,0.6221 -0.46206,1.8563 -1.8813,2.7427 -1.41923,0.8863 -2.58042,1.0799 -2.58042,0.4301 z m -99.94,-11.1746 c -1.62921,-3.85 -3.31117,-7.8484 -3.73768,-8.8854 -0.53806,-1.3081 -0.19584,-1.584 1.11777,-0.9011 1.18432,0.6157 1.10109,0.3232 -0.22229,-0.7812 -2.96486,-2.4744 -5.49624,-7.5697 -4.53409,-9.1265 0.44386,-0.7182 0.28273,-1.3058 -0.35806,-1.3058 -1.75551,0 -5.83525,-9.3027 -4.80839,-10.9642 0.49213,-0.7963 0.34814,-1.1099 -0.31997,-0.697 -0.66811,0.4129 -2.21626,-1.5944 -3.44033,-4.4607 -1.45125,-3.3982 -1.70747,-5.2114 -0.73643,-5.2114 0.81904,0 0.3951,-0.8 -0.9421,-1.7778 -2.23903,-1.6372 -2.12741,-1.79 1.41183,-1.933 5.5896,-0.2258 9.08343,-0.8456 9.84308,-1.7462 1.2159,-1.4414 9.51495,-2.5822 8.65426,-1.1896 -0.4464,0.7223 -0.17622,1.3133 0.60039,1.3133 0.77661,0 1.41202,-0.949 1.41202,-2.1088 0,-1.6424 1.03586,-1.9692 4.6834,-1.4776 3.69141,0.4974 5.17407,0.012 7,-2.2916 2.14894,-2.7113 22.76356,-15.0008 24.36422,-14.5249 0.39285,0.1168 0.81493,-0.7947 0.93795,-2.0257 0.12302,-1.2309 0.60174,-5.2381 1.06381,-8.9048 0.57484,-4.5614 -0.0298,-10.6132 -1.9148,-19.1647 -1.51521,-6.87402 -2.36916,-13.17402 -1.89766,-14.00005 0.4715,-0.82603 0.36691,-1.0577 -0.23242,-0.51483 -1.25946,1.14081 -7.56602,-13.53914 -6.5339,-15.20914 0.37773,-0.61118 0.14768,-1.11123 -0.51123,-1.11123 -1.57317,0 -4.52969,-6.53787 -3.62123,-8.00778 0.38795,-0.62771 0.003,-1.57546 -0.85574,-2.1061 -0.97497,-0.60256 -1.20389,-0.38685 -0.60972,0.57453 0.52325,0.84664 0.63136,1.53935 0.24025,1.53935 -0.39112,0 -1.59578,-1.71075 -2.67703,-3.80166 -1.37943,-2.66753 -1.5461,-4.22147 -0.55869,-5.20889 0.98742,-0.98742 0.81668,-1.34491 -0.57232,-1.19834 -2.28731,0.24136 -12.01374,-13.43815 -10.8703,-15.28827 0.41999,-0.67957 0.21098,-1.07071 -0.46447,-0.86921 -0.67545,0.2015 -4.62877,-3.77057 -8.78516,-8.82682 -10.95177,-13.32286 -15.67363,-18.33148 -21.26872,-22.56038 -2.7528,-2.08064 -4.56612,-4.40091 -4.06854,-5.20601 0.55358,-0.8957 0.2754,-1.06786 -0.7257,-0.44915 -0.89285,0.55181 -2.63556,0.13763 -3.87268,-0.92041 -4.53713,-3.88032 -17.33213,-10.33752 -20.48391,-10.33752 -1.78383,0 -6.08163,1.8 -9.55067,4 -7.24305,4.5934 -8.8814,4.90964 -8.8814,1.71428 0,-2.15501 -0.13016,-2.15555 -2.27619,-0.01 -1.83553,1.83553 -1.9493,2.60069 -0.58767,3.95238 1.35967,1.34974 1.50507,1.15684 0.74662,-0.99048 -0.76835,-2.1753 -0.61473,-2.36336 0.83369,-1.02064 1.45487,1.3487 0.82799,2.48268 -3.47043,6.27783 -2.88531,2.5475 -5.73143,4.65678 -6.32471,4.68731 -0.59328,0.0305 -0.70787,0.6555 -0.25464,1.38884 0.45322,0.73333 0.23263,1.33333 -0.49022,1.33333 -0.72284,0 -1.58865,-1.05 -1.92402,-2.33333 -0.37514,-1.43555 -0.66927,-0.92253 -0.76443,1.33333 -0.0851,2.01667 -0.73584,3.66667 -1.44615,3.66667 -0.71032,0 -0.90836,0.99842 -0.44008,2.21872 0.54451,1.41898 0.32657,1.89436 -0.60463,1.31885 -0.80082,-0.49493 -2.77727,-4.87019 -4.39211,-9.7228 -2.79446,-8.39734 -2.82973,-9.04595 -0.73129,-13.44643 1.51365,-3.17415 2.84115,-4.37932 4.23478,-3.84453 1.11649,0.42844 1.70226,0.24872 1.30172,-0.39937 -0.93679,-1.51577 3.051,-3.07545 4.91609,-1.92276 0.78047,0.48235 1.04392,0.27008 0.58547,-0.47172 -0.71163,-1.15143 9.83232,-8.01141 12.75487,-8.29842 0.55,-0.054 2.13268,-1.14821 3.51707,-2.43154 1.38439,-1.28334 5.63605,-4.43334 9.44813,-7 13.20116,-8.88832 43.7773,-35.98078 49.61904,-43.96572 0.96199,-1.31494 5.06535,-6.51058 9.11857,-11.54587 8.5305,-10.59741 15.83352,-21.72506 25.02905,-38.13693 3.58965,-6.40668 7.01467,-11.20668 7.61115,-10.66666 0.59648,0.54002 0.64456,0.21835 0.10685,-0.71481 -0.54667,-0.94871 0.51757,-4.37193 2.41413,-7.76524 l 3.39179,-6.06857 -6.0812,-6.5013 c -3.71077,-3.96711 -5.69427,-7.12737 -5.08855,-8.10744 0.60777,-0.98339 0.43067,-1.25882 -0.45677,-0.71036 -3.51734,2.17384 -26.65463,-38.65013 -27.32914,-48.22019 -0.16507,-2.34205 -0.67215,-4.25946 -1.12685,-4.26092 -0.81243,-0.003 -4.08961,-10.47354 -4.562,-14.57612 -0.13257,-1.15126 -0.67055,-3.09634 -1.19552,-4.32241 -0.52497,-1.22606 -1.11765,-3.02606 -1.31707,-4 -0.19942,-0.97393 -0.72164,-2.67078 -1.1605,-3.77078 -2.08598,-5.22856 -4.82147,-16.44351 -4.24021,-17.384 0.35858,-0.5802 0.14315,-1.25616 -0.47874,-1.50212 -1.42186,-0.56237 -11.14729,-22.33048 -11.32542,-25.34932 -0.0726,-1.2295 -0.48082,-2.01981 -0.90725,-1.75626 -1.12388,0.69459 -12.73701,-19.48958 -12.20879,-21.21945 0.24445,-0.80053 0.002,-1.01305 -0.53881,-0.47226 -0.5408,0.54079 -2.70773,-1.36165 -4.81541,-4.22766 -4.06423,-5.52649 -4.02546,-4.74192 -1.05427,-21.33381 1.97534,-11.0308 1.58614,-41.20805 -0.66978,-51.93232 -1.08193,-5.14334 -3.42896,-13.53554 -5.21561,-18.64933 -1.78665,-5.11379 -2.85143,-9.74102 -2.36618,-10.28273 0.48526,-0.54172 0.13228,-0.55333 -0.78438,-0.0258 -0.91667,0.52751 -1.66667,0.44371 -1.66667,-0.18624 0,-0.62994 0.75,-1.98642 1.66667,-3.01438 1.40819,-1.57917 1.31965,-1.60753 -0.57089,-0.1829 -1.8261,1.37608 -2.97628,1.30412 -6.25492,-0.39133 -6.44235,-3.33147 -21.53202,-4.93274 -32.21119,-3.41816 -9.88428,1.40184 -29.75558,6.22797 -33.23786,8.07245 -1.13216,0.59968 -5.35847,2.62474 -9.3918,4.50012 -4.03334,1.87539 -10.73032,5.46559 -14.8822,7.97823 -4.15188,2.51264 -7.99807,4.16543 -8.5471,3.67286 -0.54903,-0.49257 -0.56401,-0.14134 -0.0333,0.78051 0.5791,1.00589 0.0301,2.0348 -1.37294,2.57321 -1.34846,0.51745 -2.56099,0.22781 -2.86506,-0.68439 -0.28994,-0.86984 -1.00553,-1.28588 -1.59019,-0.92454 -0.58466,0.36134 -4.4681,-0.51454 -8.62986,-1.9464 -4.16177,-1.43185 -17.32373,-4.12376 -29.2488,-5.982 -37.51082,-5.84519 -82.05222,-3.97065 -111.49722,4.6924 -15.04481,4.42635 -16.62754,4.50507 -23.5969,1.17362 -3.5217,-1.68342 -6.70309,-3.40214 -7.06976,-3.81938 -0.36667,-0.41723 -1.56667,-0.95529 -2.66667,-1.19568 -1.1,-0.2404 -3.8,-1.24841 -6,-2.24003 -40.2848,-18.15786 -94.12111,-23.64832 -116.81429,-11.91322 -2.9928,1.54764 -5.52267,5.17329 -9.93389,14.23662 -3.25516,6.68808 -5.91847,13.28911 -5.91847,14.66895 0,1.37984 -0.47143,2.21744 -1.04762,1.86133 -0.57619,-0.3561 -1.11347,0.35849 -1.19395,1.58798 -0.0805,1.22949 -0.54619,3.73544 -1.03493,5.56878 -9.88421,37.0774 -9.60693,81.67201 0.69802,112.26177 1.45879,4.33034 2.32593,8.40149 1.92699,9.04699 -0.39894,0.6455 -0.1586,1.5239 0.53408,1.952 0.69883,0.4319 -0.99386,5.66597 -3.80277,11.7588 -8.02381,17.40452 -16.8053,37.89784 -22.24024,51.90197 -2.75813,7.10685 -5.59307,12.56414 -6.29986,12.12732 -0.70679,-0.43682 -0.91104,-0.18902 -0.45389,0.55066 0.88632,1.43411 -5.26939,16.86579 -12.40403,31.09547 -5.3084,10.58734 -4.79704,10.0625 -7.64958,7.85132 -2.24271,-1.73847 -2.24806,-1.69502 -0.10306,0.8367 2.13766,2.52306 2.11204,2.90803 -0.46427,6.97703 -1.49972,2.36864 -3.36784,4.30662 -4.15138,4.30662 -0.78354,0 -1.04472,0.3799 -0.58039,0.84422 0.9784,0.97841 -6.97166,12.48911 -8.62581,12.48911 -0.60902,0 -1.01042,0.45 -0.892,1 0.11842,0.55 -0.48158,2.68906 -1.33333,4.75347 -2.05941,4.99142 -1.95232,7.86981 0.40895,10.99169 2.4161,3.19437 2.60572,5.08398 0.37574,3.74425 -1.14627,-0.68866 -1.0991,-0.3015 0.15108,1.23997 0.99975,1.23269 2.26693,1.96364 2.81595,1.62433 0.54901,-0.33931 3.43665,1.9173 6.41697,5.01468 2.98032,3.09739 7.87267,7.62349 10.87189,10.05801 3.00124,2.43616 5.05122,5.07668 4.55927,5.87267 -0.54979,0.88958 -0.26898,1.0601 0.72951,0.44299 1.98597,-1.22739 7.06437,3.06648 5.88454,4.97548 -0.49999,0.809 -0.17677,0.95048 0.79681,0.34878 0.94335,-0.58302 2.86849,0.085 4.53935,1.57519 1.59571,1.42316 9.33635,6.66749 17.20143,11.65406 7.86507,4.98658 13.92236,9.67774 13.46065,10.42481 -0.47994,0.77656 -0.18073,0.95118 0.69862,0.40771 1.93516,-1.196 17.91928,7.67862 16.54908,9.1883 -0.55467,0.61113 -0.27907,0.69225 0.61245,0.18028 1.8679,-1.07268 12.37906,3.90628 12.37906,5.86376 0,0.71843 -0.6,1.30623 -1.33333,1.30623 -0.73334,0 -2.44274,1.05 -3.79867,2.33334 -10.32015,9.76758 -14.22513,12.94059 -15.45193,12.55555 -0.77884,-0.24444 -0.98795,-0.0163 -0.46469,0.50694 0.52326,0.52326 -3.14476,5.52326 -8.15116,11.11111 -5.00639,5.58785 -11.81412,13.88012 -15.12829,18.42726 -3.31417,4.54714 -6.49234,7.84714 -7.06261,7.33333 -0.57027,-0.51381 -0.62631,-0.21827 -0.12453,0.65674 0.50177,0.87501 -1.22936,4.93891 -3.84696,9.03088 -10.13144,15.83799 -20.12058,38.41418 -28.04252,63.37817 -4.21037,13.2679 -11.22028,47.1138 -11.29805,54.5503 -0.0394,3.7685 0.60559,4.3166 -13.20102,-11.217 -10.81173,-12.1641 -31.80907,-40.6667 -29.95843,-40.6667 0.5712,0 -0.10348,-0.835 -1.4993,-1.8557 -2.08983,-1.5281 -2.24108,-2.21324 -0.85676,-3.88124 1.30095,-1.56754 1.31836,-2.24975 0.077,-3.01696 -0.98051,-0.60598 -1.25638,-0.42878 -0.70966,0.45584 0.49194,0.79596 0.31475,1.80547 -0.39376,2.24335 -1.68984,1.04438 -4.48509,-4.22505 -3.27762,-6.17878 0.53077,-0.8588 0.34389,-1.14687 -0.43267,-0.66693 -2.58512,1.59769 -22.64583,-35.07076 -20.87476,-38.15643 0.50817,-0.88535 0.40792,-1.13991 -0.22278,-0.56567 -2.07229,1.88678 -18.58003,-37.81452 -17.47702,-42.03244 0.3378,-1.29175 0.16364,-2.07018 -0.38703,-1.72985 -1.08221,0.66884 -8.09168,-21.21382 -11.30149,-35.28177 -8.62765,-37.81323 -12.6329,-83.09825 -10.20071,-115.33333 3.45777,-45.82746 11.87791,-85.18954 26.24024,-122.66666 6.72419,-17.54614 8.77426,-22 10.12639,-22 0.66524,0 0.87216,-0.54585 0.45984,-1.21301 -1.14812,-1.8577 0.68694,-5.55255 2.27136,-4.57332 0.80896,0.49997 1.00474,0.22607 0.4639,-0.64903 -1.26077,-2.03997 12.47329,-28.41984 14.23066,-27.33373 0.7892,0.48775 0.96844,0.19523 0.42206,-0.68883 -1.21052,-1.95866 3.26079,-9.66455 4.98831,-8.59689 0.71208,0.44009 0.89505,0.15353 0.40659,-0.63681 -1.21641,-1.96821 4.39165,-11.1846 6.14596,-10.10038 0.77615,0.47968 1.02031,0.24208 0.5437,-0.52909 -1.17258,-1.89728 8.44414,-16.50849 10.16532,-15.44473 0.75156,0.46448 0.98538,0.2279 0.5196,-0.52573 -0.81465,-1.31814 14.742,-23.1715 17.87211,-25.10602 0.84015,-0.51923 2.05127,-0.1172 2.69138,0.89342 0.76519,1.20809 1.17084,1.29356 1.18426,0.24951 0.0112,-0.87339 -0.60218,-1.97276 -1.36314,-2.44306 -1.53795,-0.95051 14.56426,-18.85951 16.42612,-18.26926 0.63561,0.20151 0.83877,-0.14636 0.45146,-0.77303 -0.99936,-1.617 13.08625,-15.21363 14.46315,-13.96104 0.62536,0.5689 0.74822,0.35361 0.273,-0.47843 -0.50079,-0.87682 4.1739,-5.82151 11.11956,-11.76181 6.59098,-5.63695 11.9836,-9.95234 11.9836,-9.58976 0,0.36259 1.79336,-1.13412 3.98524,-3.326 2.28631,-2.28631 4.64777,-3.57578 5.53935,-3.02476 0.91742,0.567 1.197,0.38269 0.68244,-0.44988 -0.75883,-1.22781 4.2968,-5.25143 17.50325,-13.93028 1.89309,-1.24409 4.02543,-1.90138 4.73853,-1.46066 0.7131,0.44072 0.94054,0.22528 0.50543,-0.47875 -2.40186,-3.88629 47.23019,-29.95427 86.80242,-45.59079 10.12509,-4.00081 35.73586,-11.44246 53.2143,-15.46232 51.1498,-11.76395 116.32685,-13.01387 165.02901,-3.16482 7.33334,1.48302 15.27852,2.99914 17.65597,3.36915 2.37746,0.37001 4.02663,1.1517 3.66483,1.7371 -0.3618,0.5854 0.48886,0.7645 1.89036,0.398 2.76597,-0.72332 31.17077,7.47359 31.90272,9.20632 0.24597,0.58227 0.93223,0.75893 1.52502,0.39256 0.59279,-0.36637 3.39155,0.33598 6.21945,1.56076 2.82791,1.22479 5.96532,2.37853 6.97202,2.56387 3.25448,0.59915 9.50296,3.48954 9.50296,4.39583 0,0.48442 1.65,1.0168 3.66667,1.18306 2.01666,0.16627 3.86791,0.90087 4.11388,1.63245 0.24596,0.73158 0.99596,0.991 1.66666,0.57649 0.6707,-0.41452 1.21946,-0.0829 1.21946,0.73705 0,0.81989 0.51097,1.17491 1.13549,0.78893 1.57525,-0.97355 29.26214,13.06458 31.72443,16.0853 1.10247,1.3525 1.59728,1.6649 1.09957,0.69422 -1.53199,-2.98781 11.65551,4.37502 32.70717,18.26103 13.95852,9.20726 21.30193,15.14262 20.4468,16.52626 -0.47235,0.76428 -0.23664,1.00508 0.5238,0.5351 0.76045,-0.46998 3.00373,0.42064 4.98507,1.97917 2.83119,2.22701 3.22156,3.10642 1.82339,4.10761 -1.29624,0.92819 -1.09995,1.05262 0.72327,0.45848 2.89291,-0.94273 6.54314,1.53894 5.27697,3.58765 -0.48713,0.7882 -0.21597,0.99147 0.62735,0.47027 1.84073,-1.13763 8.45821,4.55557 28.70668,24.69715 9.96911,9.91648 15.41691,16.2842 14.79399,17.29211 -0.56951,0.92147 -0.42195,1.24679 0.34929,0.77013 0.73443,-0.4539 3.07713,1.0462 5.20601,3.33354 2.12889,2.28734 3.2207,3.7924 2.42626,3.34457 -0.79444,-0.44782 -1.44444,0.002 -1.44444,1 0,0.99783 0.74713,1.52752 1.6603,1.17711 3.17097,-1.21682 37.50339,46.28933 35.6363,49.31034 -0.45086,0.72951 -0.18991,0.93711 0.57989,0.46135 1.27677,-0.78908 1.92477,0.007 3.08073,3.78633 0.22432,0.73334 1.23522,2.1607 2.24644,3.17192 1.01122,1.01122 1.51095,2.69239 1.11051,3.73592 -0.40044,1.04353 -0.14657,1.53794 0.56416,1.09869 1.42231,-0.87904 14.90604,25.3202 13.66833,26.55792 -0.42289,0.42288 -0.13887,0.76888 0.63116,0.76888 0.77002,0 1.71838,1.05 2.10745,2.33334 0.38907,1.28333 3.35391,8.33333 6.58853,15.66666 7.00663,15.88505 17.48282,48.19124 16.47718,50.81191 -0.39146,1.02012 -0.1715,1.85476 0.4888,1.85476 1.82588,0 7.10784,25.83368 11.31347,55.33333 4.44067,31.14836 3.86366,73.55351 -1.42376,104.6337 -1.06351,6.25146 -2.18828,13.16629 -2.4995,15.36629 -1.6486,11.65406 -3.78725,20.66667 -4.90411,20.66667 -0.69358,0 -0.89878,0.58615 -0.45602,1.30257 0.73714,1.19271 -0.98618,9.8853 -2.91379,14.69743 -0.44063,1.1 -1.02129,3.2 -1.29035,4.66666 -0.5413,2.95063 -6.49769,21.85797 -8.74419,27.75665 -1.08445,2.84744 -1.73569,3.33149 -2.69079,2 -0.89457,-1.2471 -1.01463,-1.00756 -0.41389,0.8258 1.07102,3.26859 -4.38292,17.03911 -6.28332,15.8646 -0.7645,-0.47249 -1.01623,-0.25429 -0.5594,0.48488 1.00336,1.62346 -1.87651,9.73474 -3.45626,9.73474 -0.61583,0 -0.8229,0.48023 -0.46014,1.06719 1.02318,1.65555 -18.83538,38.31336 -20.53137,37.89977 -0.8263,-0.2015 -1.10528,0.27612 -0.61996,1.06138 1.09969,1.77934 -9.87868,18.88151 -11.48378,17.88951 -0.64342,-0.3977 -0.77477,0.3065 -0.29188,1.5649 0.64282,1.6752 0.405,1.9957 -0.88795,1.1966 -1.09851,-0.6789 -1.44528,-0.5726 -0.91751,0.2814 1.10741,1.7918 -6.80475,12.7143 -8.46628,11.6874 -0.7001,-0.4327 -0.96149,0.025 -0.58088,1.0167 0.38061,0.9919 -1.63409,4.323 -4.47713,7.4026 -2.84303,3.0795 -4.84906,5.5992 -4.45784,5.5992 0.39122,0 -0.99276,1.7786 -3.07551,3.9526 -2.08275,2.1739 -4.28813,3.6427 -4.90085,3.2641 -0.61271,-0.3787 -0.79359,0.1465 -0.40195,1.1671 0.39164,1.0206 -0.33041,2.7017 -1.60455,3.7359 -1.97789,1.6053 -2.1516,1.6065 -1.188,0.01 0.77185,-1.2807 0.63514,-1.5677 -0.43248,-0.9079 -0.8586,0.5307 -1.26117,1.4501 -0.8946,2.0432 1.01934,1.6494 -9.99408,13.5381 -11.61392,12.537 -0.7865,-0.4861 -1.0356,-0.2546 -0.55784,0.5185 1.44703,2.3413 -43.07278,42.9537 -46.05767,42.0152 -0.58312,-0.1833 -1.06022,0.3021 -1.06022,1.0787 0,0.7766 -0.69271,0.9839 -1.53935,0.4607 -0.92877,-0.5741 -1.17839,-0.3674 -0.62932,0.521 0.74685,1.2085 -2.76683,4.2729 -4.89924,4.2729 -0.31711,0 -1.90955,-3.15 -3.53877,-7 z m 12.60668,-45 c -0.45323,-0.7333 -1.65323,-1.3333 -2.66667,-1.3333 -1.01344,0 -2.21344,0.6 -2.66667,1.3333 -0.46921,0.7592 0.67905,1.3334 2.66667,1.3334 1.98762,0 3.13588,-0.5742 2.66667,-1.3334 z m 10.97222,0.5278 c -0.44306,-0.443 -1.59306,-0.4904 -2.55556,-0.1052 -1.06364,0.4256 -0.7477,0.7415 0.80556,0.8055 1.40555,0.058 2.19305,-0.2572 1.75,-0.7003 z m -598.74996,-45.3955 c 0,-1.3126 -0.44929,-1.3837 -1.77777,-0.2812 -0.97778,0.8115 -1.77778,1.602 -1.77778,1.7567 0,0.1546 0.8,0.2811 1.77778,0.2811 0.97777,0 1.77777,-0.7904 1.77777,-1.7566 z m 679.11106,-9.2758 c 0,-1.1035 -2.58897,-1.7275 -3.18255,-0.7671 -0.38508,0.6231 0.17346,1.1329 1.2412,1.1329 1.06775,0 1.94135,-0.1646 1.94135,-0.3658 z m -54.34677,-36.99208 c 0.84962,0.52509 1.03571,0.25035 0.46066,-0.68011 -1.13448,-1.83562 -3.49405,-0.73341 -3.34195,1.5611 0.0753,1.13658 0.29721,1.11185 0.78054,-0.087 0.37141,-0.92124 1.31675,-1.27853 2.10075,-0.79399 z m 7.06487,-4.47815 c -0.0923,-0.15425 -1.45848,0.0571 -3.03588,0.46955 -2.40046,0.62773 -2.62039,1.1465 -1.34908,3.18219 1.44072,2.30696 1.59704,2.28278 3.03589,-0.46955 0.83432,-1.59596 1.4414,-3.02795 1.34907,-3.18219 z m 5.94857,3.61378 c 0,-1.46667 -0.6,-2.66667 -1.33333,-2.66667 -0.73333,0 -1.33333,1.2 -1.33333,2.66667 0,1.46667 0.6,2.66667 1.33333,2.66667 0.73333,0 1.33333,-1.2 1.33333,-2.66667 z m 4.91082,-2.91667 c -0.42563,-1.06364 -0.74158,-0.7477 -0.80555,0.80556 -0.0579,1.40555 0.25723,2.19305 0.70029,1.75 0.44305,-0.44306 0.49042,-1.59306 0.10526,-2.55556 z m -9.26969,-2.94668 c 0.1723,-0.1723 -0.21718,-2.16282 -0.8655,-4.42339 -0.77993,-2.71946 -0.68199,-4.6069 0.28947,-5.57836 1.06876,-1.06876 1.03291,-1.46823 -0.13176,-1.46823 -0.88,0 -1.6,-0.9 -1.6,-2 0,-1.1 0.9681,-2 2.15133,-2 1.60217,0 2.01026,0.9612 1.59867,3.76549 -0.51904,3.53644 1.54806,7.1408 3.87519,6.7571 2.67387,-0.44087 4.45509,0.26881 3.70814,1.47741 -0.45951,0.7435 0.53789,1.3243 2.25464,1.31291 1.69328,-0.0112 2.47869,-0.46123 1.74536,-1 -2.31071,-1.69764 -2.3139,-4.71867 -0.004,-3.8323 1.22628,0.47057 2.42176,-0.0177 2.86384,-1.16976 0.41736,-1.08764 1.33006,-1.97752 2.02822,-1.97752 0.69815,0 0.89855,0.6 0.44532,1.33333 -0.45322,0.73334 -0.18863,1.33334 0.58798,1.33334 0.77661,0 1.41202,-1.13164 1.41202,-2.51475 0,-1.57117 1.78026,-3.35953 4.7446,-4.7662 2.60953,-1.2383 4.50344,-2.95667 4.20869,-3.81859 -0.29475,-0.86192 0.66199,-2.61713 2.12608,-3.90046 1.75539,-1.53866 2.04759,-2.33334 0.85798,-2.33334 -1.40312,0 -1.44846,-0.35555 -0.20402,-1.6 0.88,-0.88 1.6,-2.68 1.6,-4 0,-1.32 0.86459,-2.4 1.92131,-2.4 1.05672,0 2.28789,-0.59312 2.73592,-1.31806 0.44803,-0.72493 0.0334,-1.02079 -0.92131,-0.65747 -1.35367,0.51513 -1.73592,-2.26298 -1.73592,-12.61651 0,-14.0522 -1.37658,-18.0251 -5.15812,-14.8867 -1.15251,0.9565 -2.25297,1.09828 -2.71551,0.34987 -0.81832,-1.32406 2.26563,-3.06308 6.20697,-3.50009 2.03181,-0.22528 2.99259,1.65791 2.50722,4.91432 -0.0781,0.5236 0.63594,0.65352 1.58664,0.28871 2.69089,-1.03259 8.22575,4.35296 6.58297,6.40538 -0.74275,0.92797 -1.80379,3.18722 -2.35786,5.02056 l -1.00739,3.33333 2.64213,-3.22925 2.64212,-3.22926 0.89415,3.56259 c 1.14058,4.54443 4.52948,4.61072 5.65891,0.11069 1.19774,-4.77215 -0.31545,-17.94249 -2.26777,-19.73804 -1.21516,-1.11758 -1.34022,-0.99032 -0.5142,0.52327 0.70199,1.28634 0.0581,1.09366 -1.8044,-0.53998 -1.59272,-1.39699 -2.89586,-2.10414 -2.89586,-1.57143 0,0.5327 -0.9,0.0685 -2,-1.03145 -1.1,-1.1 -2,-2.67826 -2,-3.50726 0,-0.82899 -0.75,-1.11978 -1.66666,-0.6462 -0.91667,0.47358 -0.2271,-0.31115 1.53237,-1.74385 2.24518,-1.8282 2.67061,-2.78106 1.42679,-3.19566 -3.20314,-1.06772 -0.29264,-5.09888 3.66566,-5.07709 2.9688,0.0163 3.30958,0.29844 1.70851,1.41424 -1.48959,1.0381 -0.90241,1.17782 2.3008,0.54745 2.36544,-0.4655 5.06508,-0.37401 5.9992,0.20331 3.61243,2.2326 11.65916,-0.1959 11.65916,-3.51875 0,-3.40489 -3.44266,-4.67848 -14.8216,-5.48314 -10.32078,-0.72983 -12.69918,-1.33112 -14.61276,-3.69428 -1.25707,-1.55242 -2.9394,-2.82258 -3.73852,-2.82258 -0.79912,0 -1.30295,-0.72272 -1.11961,-1.60606 0.18333,-0.88333 -0.51667,-1.63333 -1.55556,-1.66666 -2.35855,-0.0757 -3.63026,-3.39394 -1.30071,-3.39394 0.9732,0 0.59339,-0.83645 -0.88889,-1.9576 -1.4235,-1.07667 -1.86879,-1.97667 -0.98955,-2 1.18093,-0.0313 1.09383,-1.25057 -0.33333,-4.66624 -2.25022,-5.38553 -2.51217,-10.86019 -0.57688,-12.05627 1.98471,-1.22662 0.0453,-3.63091 -2.22587,-2.75939 -1.08022,0.41452 -1.57468,0.16027 -1.11977,-0.57577 1.4702,-2.37884 -4.30923,-1.37759 -7.5284,1.30424 -1.73124,1.44227 -2.52628,2.64227 -1.76676,2.66667 1.38114,0.0444 1.92914,2.82088 1.91667,9.71103 -0.004,2.01666 0.62719,3.66666 1.40188,3.66666 0.80684,0 1.2741,2.27827 1.09384,5.33334 -0.23506,3.98367 -0.88224,5.33333 -2.55742,5.33333 -1.2335,0 -2.98967,0.9 -3.90259,2 -0.91291,1.1 -2.25057,2 -2.97257,2 -0.722,0 -0.96737,-0.9 -0.54526,-2 0.42211,-1.1 0.0363,-2.04737 -0.85734,-2.10526 -1.23297,-0.0799 -1.22288,-0.26746 0.0418,-0.77778 0.91667,-0.36989 1.66667,-1.82252 1.66667,-3.22807 0,-1.51634 0.92174,-2.55556 2.26666,-2.55556 1.68825,0 1.88124,-0.38543 0.75629,-1.51037 -0.8916,-0.89161 -2.50302,-1.07857 -3.93333,-0.45638 -1.33262,0.5797 -3.32295,0.97683 -4.42295,0.88251 -1.33617,-0.11458 -1.44405,0.0747 -0.32503,0.57025 0.92124,0.40796 1.25606,1.44051 0.74406,2.29454 -0.51201,0.85403 0.18182,0.65279 1.54185,-0.44721 2.19802,-1.77778 2.3993,-1.77778 1.8115,0 -0.96322,2.91323 -2.99072,2.47059 -7.63409,-1.66667 -4.20902,-3.75026 -8.17883,-4.33993 -16.80496,-2.49621 -2.92878,0.62598 -4.04051,1.65495 -4.15128,3.84224 -0.0923,1.82178 0.6217,2.9873 1.82992,2.9873 1.68634,0 1.71228,0.34728 0.17426,2.33334 -1.7209,2.22222 -1.67605,2.22222 0.94173,0 2.72668,-2.31466 6.60412,-3.26323 5.40446,-1.32214 -0.34373,0.55616 1.27086,1.00616 3.58798,1 2.79608,-0.007 4.08972,0.58265 3.84656,1.75457 -0.2015,0.97118 0.19381,1.41957 0.87847,0.99643 0.68465,-0.42314 2.73279,0.99899 4.55141,3.16029 1.81862,2.16131 3.81691,3.51292 4.44066,3.00358 0.62374,-0.50934 -0.038,0.46308 -1.47042,2.16092 -2.40544,2.85106 -2.67049,2.90201 -3.46794,0.66666 -0.4749,-1.33117 -0.54452,-3.26874 -0.15471,-4.30571 0.4162,-1.10719 0.12562,-1.525 -0.70402,-1.01226 -0.77701,0.48022 -5.22897,1.19553 -9.89325,1.58958 -11.55937,0.97655 -15.95867,1.90621 -19.43599,4.1072 -1.62551,1.02888 -4.02551,2.04372 -5.33333,2.25521 -3.90479,0.63146 -6.54308,2.71322 -8.80245,6.94566 -1.17441,2.2 -2.20148,3.1 -2.28239,2 -0.10492,-1.42658 -0.42837,-1.28418 -1.12813,0.49669 -0.92195,2.34631 -1.11706,2.36065 -3.23962,0.23809 -1.24222,-1.24222 -2.25858,-1.73573 -2.25858,-1.09668 0,0.63905 0.67848,1.84039 1.50774,2.66965 1.12143,1.12143 1.05457,3.04253 -0.26096,7.49795 -1.58603,5.37157 -1.95954,5.75978 -3.61659,3.75893 -1.68381,-2.03318 -1.76322,-1.99452 -0.89435,0.43537 0.52444,1.46667 0.91347,3.68002 0.86451,4.91856 -0.0494,1.24973 1.35942,2.7347 3.16567,3.33678 3.15562,1.05188 3.0689,1.19712 -2.84886,4.77158 -3.35695,2.02767 -5.6689,2.98341 -5.13768,2.12387 0.6162,-0.99703 0.38745,-1.20532 -0.63188,-0.57535 -0.87876,0.54311 -2.62147,0.19615 -3.87268,-0.77101 -1.73225,-1.339 -1.66902,-1.04832 0.26506,1.21855 1.39699,1.63736 1.99699,3.02859 1.33333,3.09163 -0.66365,0.063 0.59335,0.75218 2.79335,1.53144 6.32976,2.24206 29.85311,3.34305 30.58322,1.43143 0.33383,-0.87406 1.83917,-1.49638 3.34521,-1.38293 2.24713,0.16927 2.73824,1.11783 2.73824,5.28886 0,4.2312 0.57387,5.30078 3.42586,6.3851 1.88423,0.71639 4.88423,0.93649 6.66667,0.48913 3.55085,-0.89121 4.50475,1.67841 1.67393,4.50923 -1.44672,1.44672 -1.55892,6.73713 -0.46904,22.11678 0.4175,5.89139 2.59147,7.88477 7.36651,6.75457 1.83183,-0.43357 3.47157,-0.92928 3.64386,-1.10157 z m -2.30779,-21.54867 c 0,-1.14328 0.6,-1.70787 1.33333,-1.25465 0.73333,0.45323 1.33333,1.38864 1.33333,2.07869 0,0.69006 -0.6,1.25465 -1.33333,1.25465 -0.73333,0 -1.33333,-0.93541 -1.33333,-2.07869 z m 2,-6.95642 c -2.78374,-2.0145 -1.91703,-4.75669 3.28823,-10.40373 2.95814,-3.2092 5.37843,-4.96943 5.37843,-3.91162 0,1.05782 -1.19403,2.56233 -2.65339,3.34336 -1.45937,0.78103 -2.56412,1.85214 -2.45499,2.38024 0.10912,0.52811 -0.16172,1.86019 -0.60187,2.96019 -0.44016,1.1 -0.98541,3.0342 -1.21168,4.29822 -0.22627,1.26403 -1.0114,1.86403 -1.74473,1.33334 z m -7.33334,-2.72294 c 0,-1.61141 2.5296,-3.49013 3.45427,-2.56547 0.33559,0.3356 -0.30432,1.36915 -1.42205,2.29678 -1.26717,1.05166 -2.03222,1.15281 -2.03222,0.26869 z m 18.96197,-15.12784 c 0.28463,-0.85391 1.98463,-2.47652 3.77777,-3.6058 l 3.26026,-2.05324 -3.23242,3.6058 c -3.48941,3.89248 -4.62247,4.50379 -3.80561,2.05324 z m -36.2953,-1.11411 c 0,-0.73333 0.6,-1.33333 1.33333,-1.33333 0.73334,0 1.33334,0.6 1.33334,1.33333 0,0.73333 -0.6,1.33333 -1.33334,1.33333 -0.73333,0 -1.33333,-0.6 -1.33333,-1.33333 z m -20.5397,-4.20543 c 0.38339,-0.62035 3.46167,-1.1279 6.84061,-1.1279 3.37895,0 5.72582,0.41772 5.21527,0.92826 -1.34772,1.34772 -12.8835,1.53875 -12.05588,0.19964 z m 15.08358,-1.3782 c -1.48503,-1.05577 -1.38974,-1.17778 0.45612,-0.58399 1.28333,0.41282 2.33333,0.13401 2.33333,-0.61958 0,-0.7536 0.53449,-1.03985 1.18776,-0.63611 0.65326,0.40374 3.65326,-1.73144 6.66667,-4.74484 6.03682,-6.03683 7.68424,-5.08359 1.81224,1.04862 -4.77814,4.98988 -9.97526,7.29965 -12.45612,5.5359 z m 49.45612,-1.7497 c 0.91292,-1.1 2.16755,-2 2.78808,-2 0.62052,0 0.78286,0.9 0.36075,2 -0.42211,1.1 -1.67674,2 -2.78808,2 -1.64492,0 -1.71199,-0.37186 -0.36075,-2 z M 810.6666,892.58793 c 0,-1.14328 0.6,-1.70787 1.33334,-1.25464 0.73333,0.45322 1.33333,1.38863 1.33333,2.07869 0,0.69005 -0.6,1.25464 -1.33333,1.25464 -0.73334,0 -1.33334,-0.93541 -1.33334,-2.07869 z m 45.44444,1.73115 c 0.30556,-0.19115 2.05556,-1.54115 3.88889,-3 l 3.33334,-2.65246 -2.53999,3 c -1.39699,1.65 -3.14699,3 -3.88889,3 -0.74189,0 -1.0989,-0.15639 -0.79335,-0.34754 z m -38.52851,-10.98579 c 1.59407,-1.83334 3.49469,-3.33334 4.22361,-3.33334 0.72891,0 -0.0839,1.5 -1.8062,3.33334 -1.72233,1.83333 -3.62295,3.33333 -4.2236,3.33333 -0.60066,0 0.21213,-1.5 1.80619,-3.33333 z m 9.75074,76.66666 c -0.45323,-0.73333 -1.42405,-1.33333 -2.15738,-1.33333 -0.73333,0 -0.96251,0.6 -0.50929,1.33333 0.45323,0.73333 1.42405,1.33333 2.15738,1.33333 0.73333,0 0.96251,-0.6 0.50929,-1.33333 z M 247.74248,939.298 c -0.41052,-0.41051 -1.15607,0.32949 -1.65678,1.64445 -0.72357,1.90026 -0.57042,2.05341 0.7464,0.74639 0.91122,-0.90444 1.32089,-1.98032 0.91038,-2.39084 z m 544.25746,-15.1554 c 0,-0.65487 -0.86945,-1.52431 -1.9321,-1.93209 -1.29136,-0.49555 -1.68622,-0.10068 -1.19068,1.19068 0.80929,2.10897 3.12278,2.65825 3.12278,0.74141 z m -37.86667,-12.72319 c 0,-1.78597 -0.42656,-2.98359 -0.94791,-2.66138 -0.75449,0.4663 -0.73339,3.02892 0.0459,5.57526 0.41419,1.35336 0.90201,-0.2225 0.90201,-2.91388 z m 14.56862,-3.16195 c -0.41052,-0.41052 -1.48639,-8.5e-4 -2.39084,0.91038 -1.30702,1.31682 -1.15387,1.46997 0.74639,0.74639 1.31496,-0.50071 2.05496,-1.24626 1.64445,-1.65677 z m 92.63138,-2.3362 c 0,-1.14328 -0.60979,-1.70182 -1.35509,-1.2412 -0.74529,0.46062 -1.00988,1.39603 -0.58797,2.07869 1.14298,1.84939 1.94306,1.50455 1.94306,-0.83749 z m 26.99999,-10.80435 c -0.91666,-0.36988 -2.41666,-0.36988 -3.33333,0 -0.91667,0.36989 -0.16667,0.67252 1.66667,0.67252 1.83333,0 2.58333,-0.30263 1.66666,-0.67252 z m -117.13733,-7.33918 c -0.37768,-0.61111 -1.25129,-1.11111 -1.94135,-1.11111 -0.69005,0 -1.25464,0.5 -1.25464,1.11111 0,0.61111 0.87361,1.11111 1.94135,1.11111 1.06774,0 1.63233,-0.5 1.25464,-1.11111 z m -477.20539,-1.09584 c 0.46712,-0.75581 -0.0681,-0.97934 -1.25465,-0.52401 -2.30989,0.88639 -2.73251,1.84207 -0.8146,1.84207 0.69005,0 1.62121,-0.59312 2.06925,-1.31806 z m 583.34273,-5.3486 c 0,-0.73334 -0.6,-1.33334 -1.33334,-1.33334 -0.73333,0 -1.33333,0.6 -1.33333,1.33334 0,0.73333 0.6,1.33333 1.33333,1.33333 0.73334,0 1.33334,-0.6 1.33334,-1.33333 z m 17.98655,-0.0217 c -0.46062,-0.7453 -1.49799,-0.94687 -2.30527,-0.44794 -0.94452,0.58374 -1.16426,0.11615 -0.61638,-1.31159 0.46827,-1.2203 0.27023,-2.21872 -0.44009,-2.21872 -0.71031,0 -1.29148,1.2 -1.29148,2.66666 0,1.80326 0.88889,2.66667 2.74535,2.66667 1.52009,0 2.37158,-0.60478 1.90787,-1.35508 z M 895.99993,876 c 0,-0.73333 -0.63541,-1.33333 -1.41202,-1.33333 -0.77661,0 -1.0412,0.6 -0.58798,1.33333 0.45323,0.73334 1.08864,1.33334 1.41202,1.33334 0.32339,0 0.58798,-0.6 0.58798,-1.33334 z m -79.99999,-12 c 0,-0.73333 -0.6,-1.33333 -1.33334,-1.33333 -0.73333,0 -1.33333,0.6 -1.33333,1.33333 0,0.73334 0.6,1.33334 1.33333,1.33334 0.73334,0 1.33334,-0.6 1.33334,-1.33334 z m 54.66666,0 c -2.61116,-1.68746 -4.37624,-1.68746 -3.33333,0 0.45322,0.73334 1.83863,1.32415 3.07868,1.31292 1.94304,-0.0176 1.97823,-0.19905 0.25465,-1.31292 z m -8,-6.66666 c 0,-0.73333 -0.63541,-1.33333 -1.41202,-1.33333 -0.77662,0 -1.04121,0.6 -0.58798,1.33333 0.45322,0.73333 1.08863,1.33333 1.41202,1.33333 0.32339,0 0.58798,-0.6 0.58798,-1.33333 z m 4.97222,-3.47222 c -0.44305,-0.44306 -1.59305,-0.49043 -2.55555,-0.10527 -1.06365,0.42564 -0.74771,0.74158 0.80555,0.80556 1.40556,0.0579 2.19306,-0.25724 1.75,-0.70029 z m 24,0 c -0.44306,-0.44306 -1.59306,-0.49043 -2.55556,-0.10527 -1.06364,0.42564 -0.7477,0.74158 0.80556,0.80556 1.40556,0.0579 2.19305,-0.25724 1.75,-0.70029 z M 782.22216,808.72528 c 0,-1.06775 -0.50979,-1.62629 -1.13286,-1.24121 -0.62307,0.38508 -0.78766,1.25869 -0.36575,1.94135 1.07816,1.74451 1.49861,1.54808 1.49861,-0.70014 z m 23.11111,-62.56206 c 0,-0.27687 -1.05,-1.32687 -2.33333,-2.33333 -2.11474,-1.6585 -2.1619,-1.61134 -0.50341,0.5034 1.74183,2.221 2.83674,2.92731 2.83674,1.82993 z m -14.20656,-18.88743 c -0.43425,-1.13163 -1.0755,-1.77154 -1.425,-1.42204 -0.34951,0.3495 -0.23997,1.27538 0.2434,2.0575 1.31474,2.12729 2.08318,1.71402 1.1816,-0.63546 z m -622.517,-152.51702 c 0.42191,-0.68266 0.25732,-1.55627 -0.36575,-1.94135 -0.62307,-0.38508 -1.13286,0.17346 -1.13286,1.2412 0,2.24822 0.42045,2.44466 1.49861,0.70015 z m 28.88906,-44.44769 c -1.31682,-1.30702 -1.46997,-1.15387 -0.74639,0.7464 0.5007,1.31496 1.24625,2.05496 1.65677,1.64444 0.41051,-0.41052 8.4e-4,-1.48639 -0.91038,-2.39084 z m 4.50121,-2.31111 c -0.45322,-0.73333 -1.53863,-1.32414 -2.41202,-1.31291 -0.95415,0.0123 -0.7897,0.5363 0.41202,1.31291 2.5615,1.65537 3.02308,1.65537 2,0 z m 43.33333,-41.83674 c 0,-0.27687 -1.05,-1.32687 -2.33333,-2.33333 -2.11474,-1.65849 -2.1619,-1.61133 -0.50341,0.50341 1.74183,2.221 2.83674,2.9273 2.83674,1.82992 z m 63.19599,-52.6077 c 0.37769,-0.61111 -0.16051,-1.11111 -1.19599,-1.11111 -1.03548,0 -1.57368,0.5 -1.19599,1.11111 0.37768,0.61111 0.91588,1.11111 1.19599,1.11111 0.28011,0 0.8183,-0.5 1.19599,-1.11111 z m 11.02623,-8.76176 c 0,-1.06835 -0.8117,-1.5614 -1.88957,-1.14779 -1.55503,0.59672 -1.5747,0.9247 -0.11111,1.85247 0.97815,0.62005 1.82846,1.13655 1.88957,1.14778 0.0611,0.0112 0.11111,-0.82238 0.11111,-1.85246 z M 878.0569,1102.6666 c 0.67954,-1.1 1.24472,-2.3499 1.25595,-2.7777 0.0387,-1.4731 8.8526,-10.8346 9.54706,-10.1401 0.38257,0.3826 -0.50442,1.8956 -1.97109,3.3623 -1.46667,1.4666 -2.41667,3.0166 -2.11111,3.4444 0.30555,0.4278 0.16076,0.483 -0.32177,0.1227 -1.21019,-0.9037 -4.57684,2.0475 -3.78934,3.3217 0.35052,0.5672 -0.37127,1.8492 -1.60396,2.849 -1.93018,1.5654 -2.06978,1.5401 -1.00574,-0.1823 z m -727.56507,-5.7893 c 0.81676,-0.9842 1.04023,-2.2804 0.49659,-2.8805 -0.54364,-0.6001 -0.2093,-0.6414 0.74298,-0.092 1.33397,0.7698 1.37301,1.431 0.17007,2.8804 -0.85873,1.0347 -1.86133,1.8813 -2.228,1.8813 -0.36667,0 0.002,-0.8052 0.81836,-1.7893 z m 8.61927,-2.8187 c 0,-1.0677 0.50979,-1.6263 1.13286,-1.2412 0.62307,0.3851 0.78766,1.2587 0.36575,1.9413 -1.07816,1.7445 -1.49861,1.5481 -1.49861,-0.7001 z m -6.3071,-4.5031 c -0.37769,-0.6111 0.1605,-1.1111 1.19599,-1.1111 1.03548,0 1.57368,0.5 1.19599,1.1111 -0.37769,0.6111 -0.91588,1.1111 -1.19599,1.1111 -0.28011,0 -0.81831,-0.5 -1.19599,-1.1111 z m 742.30704,-6.4493 c 0,-0.9106 0.43202,-1.3886 0.96004,-1.0623 0.52802,0.3263 1.70148,-0.3 2.6077,-1.392 1.31426,-1.5836 1.29986,-1.9853 -0.0711,-1.9853 -0.94534,0 -1.35873,-0.3601 -0.91863,-0.8002 0.4401,-0.4401 1.46923,-0.3867 2.28697,0.1187 1.09028,0.6739 1.08332,1.4051 -0.0261,2.7418 -0.83208,1.0026 -1.20526,2.3206 -0.82931,2.9289 0.37596,0.6083 -0.37238,1.106 -1.66299,1.106 -1.2906,0 -2.34655,-0.745 -2.34655,-1.6556 z m 6.88889,-1.7729 c 0.45322,-0.7334 1.08863,-1.3334 1.41202,-1.3334 0.32339,0 0.58798,0.6 0.58798,1.3334 0,0.7333 -0.63541,1.3333 -1.41202,1.3333 -0.77662,0 -1.04121,-0.6 -0.58798,-1.3333 z m 0.77193,-7.519 c -0.0579,-0.8354 0.94474,-2.6637 2.22807,-4.0628 1.28333,-1.3992 1.83168,-1.7919 1.21855,-0.8728 -0.61314,0.9191 -0.67043,2.3901 -0.12733,3.2688 0.59654,0.9653 0.42313,1.249 -0.438,0.7168 -0.784,-0.4845 -1.72934,-0.1272 -2.10074,0.794 -0.4327,1.0733 -0.7131,1.1293 -0.78055,0.156 z m 15.62109,-20.6043 c -0.91664,-2.3887 2.14533,-6.937 4.94692,-7.3482 1.10335,-0.1619 1.66178,0.2627 1.24094,0.9436 -0.42083,0.6809 -1.26081,0.9317 -1.86663,0.5573 -0.60582,-0.3744 -1.43816,0.1966 -1.84964,1.2689 -0.41148,1.0723 -0.17435,2.3042 0.52695,2.7377 0.70131,0.4334 1.26592,1.5026 1.25469,2.376 -0.0136,1.057 -0.40548,0.9802 -1.17193,-0.2296 -0.93554,-1.4766 -1.26094,-1.4892 -1.73489,-0.067 -0.44852,1.3456 -0.75976,1.2905 -1.34641,-0.2383 z m -142.39301,-1.0674 c 0,-0.6549 0.98487,-1.5686 2.18859,-2.0305 1.82996,-0.7022 1.91245,-0.5071 0.50341,1.1907 -1.92017,2.3136 -2.692,2.5544 -2.692,0.8398 z m -657.44439,-0.476 c -0.70859,-2.1257 -0.52959,-6.0626 0.25365,-5.5786 0.56161,0.3471 0.9316,1.8193 0.82221,3.2715 -0.17083,2.2679 -0.70623,3.416 -1.07586,2.3071 z m 816.79275,-21.8308 c -1.2604,-1.9236 -1.63263,-3.0902 -0.82718,-2.5924 1.5392,0.9512 4.64357,6.0899 3.67907,6.0899 -0.30813,0 -1.59148,-1.5739 -2.85189,-3.4975 z m -163.10656,-15.9345 c -4.81136,-4.3541 -7.88427,-8.1157 -7.36749,-9.0188 0.48761,-0.8521 0.38905,-1.0979 -0.21901,-0.5463 -1.69902,1.5412 -5.91891,-2.9665 -5.00546,-5.34692 0.5032,-1.31131 0.26061,-1.75803 -0.64931,-1.19567 -1.67236,1.03358 -8.64808,-6.953 -11.71146,-13.40859 -1.14446,-2.41179 -2.54221,-4.38507 -3.1061,-4.38507 -1.68117,0 -7.08494,-10.54058 -6.16602,-12.02742 0.46636,-0.75459 0.0942,-1.20712 -0.82693,-1.00562 -1.89371,0.41425 -12.79578,-20.14375 -16.0806,-30.32313 -1.62501,-5.03575 -1.77668,-7.10918 -0.62667,-8.56644 1.16606,-1.4776 1.13148,-1.69085 -0.14941,-0.92131 -1.71778,1.032 -1.79148,0.90006 -2.32145,-4.15608 -0.37652,-3.59214 0.35583,-3.70917 4.69144,-0.74969 4.93834,3.37091 9.43361,8.44943 8.62999,9.74971 -0.39058,0.63198 -0.0855,1.53511 0.67797,2.00696 0.76346,0.47184 1.22325,0.3633 1.02175,-0.24121 -0.2015,-0.6045 0.23363,-1.0991 0.96696,-1.0991 0.73334,0 1.16847,0.4946 0.96697,1.0991 -0.20151,0.60451 0.15342,0.77786 0.78873,0.38522 0.6353,-0.39264 3.16787,1.36276 5.62792,3.90089 2.46006,2.53813 3.92162,4.61479 3.24793,4.61479 -0.67369,0 0.10861,0.93402 1.73844,2.0756 1.62984,1.14159 2.96334,2.64705 2.96334,3.34547 0,0.69843 1.67781,3.02553 3.72846,5.17134 2.05066,2.14581 4.60066,5.58477 5.66667,7.64214 1.06601,2.05736 4.17226,7.14307 6.90277,11.30157 5.46655,8.32543 12.1218,22.48862 11.06427,23.54615 -0.3698,0.3698 -0.0605,1.40962 0.68734,2.31071 1.88158,2.2672 5.34738,21.0405 4.11547,22.2924 -0.55135,0.5603 -4.71678,-2.3425 -9.25651,-6.4507 z m -9.57513,-13.90135 c 0,-0.73334 -0.26459,-1.33334 -0.58798,-1.33334 -0.32339,0 -0.9588,0.6 -1.41202,1.33334 -0.45323,0.73335 -0.18864,1.33335 0.58797,1.33335 0.77662,0 1.41203,-0.6 1.41203,-1.33335 z m -660.91365,16.33335 c 0.17061,-3.4621 1.59927,-3.9446 2.75577,-0.9308 0.43673,1.1381 0.25217,1.7344 -0.41013,1.3251 -0.6623,-0.4094 -1.49428,0.01 -1.84883,0.9307 -0.35456,0.9212 -0.57813,0.325 -0.49681,-1.325 z m -1.14113,-5.7554 c -0.48337,-0.7821 -0.59291,-1.708 -0.2434,-2.0575 0.3495,-0.3495 0.99075,0.2904 1.425,1.422 0.90158,2.3495 0.13314,2.7628 -1.1816,0.6355 z m -14.611837,-9.2446 c -0.453225,-0.7334 -0.188635,-1.33335 0.587978,-1.33335 0.776612,0 1.412022,0.59995 1.412022,1.33335 0,0.7333 -0.26459,1.3333 -0.587977,1.3333 -0.323388,0 -0.958798,-0.6 -1.412023,-1.3333 z m 9.278508,-0.089 c -0.483378,-0.7822 -0.592912,-1.70803 -0.243407,-2.05753 0.349504,-0.34951 0.990755,0.29041 1.425001,1.42203 0.901578,2.3495 0.133139,2.7628 -1.181594,0.6355 z m 854.054759,-1.24465 c 0.78494,-1.46667 1.72716,-2.66667 2.09382,-2.66667 0.36667,0 0.0245,1.2 -0.76049,2.66667 -0.78493,1.46665 -1.72715,2.66665 -2.09382,2.66665 -0.36667,0 -0.0245,-1.2 0.76049,-2.66665 z M 87.510647,986.95596 c 0.256416,-0.39086 -0.202051,-1.51586 -1.018815,-2.5 -1.014143,-1.22197 -1.035426,-1.78934 -0.06712,-1.78934 2.088664,0 3.413769,2.73338 1.914661,3.9495 -0.712214,0.57777 -1.08514,0.7307 -0.828726,0.33984 z M 961.33326,975.56374 c 0,-1.32036 3.9028,-8.89712 4.58293,-8.89712 0.28294,0 0.40377,0.75407 0.2685,1.67571 -0.28682,1.95423 -4.85143,8.74871 -4.85143,7.22141 z m 13.33333,-17.04066 c 0,-1.93843 2.38552,-2.5123 3.0665,-0.73769 0.37359,0.97356 -0.16354,1.77012 -1.19362,1.77012 -1.03008,0 -1.87288,-0.46459 -1.87288,-1.03243 z m 9.84435,-44.1064 c 0.37104,-1.23747 1.33585,-4.70557 2.14403,-7.7069 0.93182,-3.46054 2.01733,-5.11832 2.9671,-4.53133 0.98748,0.61029 1.19859,0.14619 0.61971,-1.36235 -0.52151,-1.35904 -0.34283,-1.95724 0.44008,-1.47337 2.12116,1.31094 1.52698,5.99056 -0.76063,5.99056 -1.14328,0 -1.70182,0.60978 -1.2412,1.35508 0.46062,0.74529 1.38916,1.01413 2.06342,0.59741 0.68281,-0.422 0.82894,0.27687 0.32984,1.57751 -0.6675,1.73948 -1.05087,1.87082 -1.50285,0.51488 -0.38041,-1.14124 -1.56314,-0.12129 -3.17045,2.73408 -1.41002,2.5049 -2.2601,3.5419 -1.88905,2.30443 z m 30.36616,-9.08339 c 0,-1.83334 0.3026,-2.58334 0.6725,-1.66667 0.3699,0.91667 0.3699,2.41667 0,3.33333 -0.3699,0.91667 -0.6725,0.16667 -0.6725,-1.66666 z m -21.43858,-27.44445 c 0.064,-1.55325 0.37992,-1.8692 0.80555,-0.80555 0.38517,0.9625 0.3378,2.1125 -0.10526,2.55555 -0.44305,0.44306 -0.75819,-0.34444 -0.70029,-1.75 z m -554.38733,-4.876 c -7.48849,-1.52165 -13.33766,-3.21608 -12.99816,-3.76541 0.33951,-0.54933 -0.50649,-0.70491 -1.87999,-0.34573 -3.68026,0.96241 -16.83511,-4.95317 -14.5927,-6.56217 1.2745,-0.91448 1.09504,-1.04484 -0.6575,-0.4776 -3.14053,1.01649 -13.32385,-4.13449 -12.09729,-6.11911 0.55261,-0.89413 0.31628,-1.11524 -0.59201,-0.55388 -2.07456,1.28214 -7.19167,-1.63875 -6.0649,-3.46189 0.53787,-0.8703 0.30149,-1.09636 -0.57804,-0.55278 -2.5077,1.54984 -57.94456,-24.18961 -56.64113,-26.2986 0.43772,-0.70826 0.14006,-0.88243 -0.66146,-0.38706 -1.93926,1.19852 -19.02901,-7.28974 -18.00678,-8.94373 0.43859,-0.70966 0.11313,-0.86736 -0.72324,-0.35045 -2.03728,1.25911 -13.80164,-5.72158 -12.68562,-7.52735 0.52524,-0.84986 0.23447,-1.01787 -0.72999,-0.4218 -1.9995,1.23576 -24.29313,-12.58941 -23.187,-14.37918 0.43448,-0.70299 0.16777,-0.89363 -0.59267,-0.42365 -1.77285,1.09567 -8.64241,-4.24461 -7.60966,-5.91563 0.42816,-0.69278 -0.0161,-1.09473 -0.9873,-0.89323 -0.97117,0.2015 -1.60713,-0.40955 -1.41324,-1.3579 0.59025,-2.88694 7.24213,-12.2716 8.25462,-11.64585 0.52162,0.32238 0.9484,-0.17786 0.9484,-1.11166 0,-2.1914 13.67196,-26.54265 15.62574,-27.83114 0.81695,-0.53877 1.02318,-0.98877 0.45828,-1 -1.31994,-0.0262 4.23824,-11.0465 6.20621,-12.30511 0.81815,-0.52325 1.34236,-1.42325 1.1649,-2 -0.17746,-0.57675 0.97734,-4.18512 2.56623,-8.0186 2.43843,-5.88314 3.19784,-6.71477 4.8702,-5.33333 1.74263,1.43948 1.75473,1.26634 0.10043,-1.43734 -1.67104,-2.73103 -1.61744,-3.22361 0.4805,-4.41528 1.29876,-0.73772 2.0126,-1.90564 1.58633,-2.59537 -0.42628,-0.68973 1.32632,-6.20285 3.89468,-12.25138 2.56835,-6.04853 7.36353,-17.71644 10.65594,-25.92868 l 5.98622,-14.93135 -3.99907,-7.38348 c -2.19948,-4.06092 -3.64588,-7.95493 -3.21423,-8.65337 0.43166,-0.69844 -0.0465,-1.75677 -1.06257,-2.35184 -7.67127,-4.49275 -16.49984,-44.87881 -14.95959,-68.43233 1.42827,-21.84112 9.25744,-52.14202 12.89209,-49.89569 0.63888,0.39485 0.84118,-0.11712 0.44954,-1.13771 -0.99064,-2.58155 2.71589,-5.30882 7.4423,-5.47606 2.17849,-0.0771 3.96227,-0.59015 3.96394,-1.14015 0.004,-1.19966 21.27598,-1.31124 28.3099,-0.1485 2.90947,0.48096 4.62234,1.39038 4.12732,2.19134 -0.49065,0.79388 -0.19095,0.96422 0.71325,0.40539 2.00425,-1.2387 16.31835,1.92544 15.40391,3.40503 -0.37941,0.61391 0.23603,0.76091 1.36764,0.32667 2.72946,-1.04739 15.50237,3.59896 14.47287,5.26473 -0.44213,0.71539 -0.12001,0.87804 0.71583,0.36147 1.64155,-1.01454 18.89231,7.00593 18.89231,8.78368 0,0.59227 0.82682,1.07686 1.83737,1.07686 1.01056,0 2.83835,1.35 4.06175,3 1.22341,1.65 1.82419,2.19014 1.33506,1.20031 -0.71842,-1.45385 -0.33877,-1.50505 1.9756,-0.26644 1.5757,0.84329 2.4554,2.19586 1.95489,3.0057 -0.50966,0.82465 -0.30607,1.09919 0.46275,0.62403 0.75503,-0.46663 3.84254,0.94066 6.86114,3.12732 3.01859,2.18666 6.24355,3.97156 7.16656,3.96645 0.92302,-0.005 6.17822,-1.54235 11.67821,-3.41608 20.6101,-7.02142 39.29297,-10.35536 58.66667,-10.46902 15.38832,-0.0903 18.77382,0.27724 23.33333,2.53301 8.25465,4.0839 10.22147,6.12938 8.28501,8.61633 -1.42767,1.83351 -1.34045,1.86031 0.74027,0.22748 2.12773,-1.66973 3.43291,-0.74592 13.33333,9.43738 19.76467,20.32939 35.12117,39.93683 33.49438,42.76616 -0.52096,0.90605 -0.44765,1.19402 0.1629,0.63992 2.83818,-2.57572 19.31324,29.35118 23.40832,45.36281 1.41668,5.53916 2.57578,13.25639 2.57578,17.1494 0,6.18539 -0.29432,6.9679 -2.33333,6.20374 -2.09684,-0.78582 -2.135,-0.63095 -0.37658,1.528 1.76013,2.16105 1.6276,2.66901 -1.31894,5.05497 -6.93527,5.61584 -24.01349,0.33214 -21.76209,-6.7328 0.52324,-1.64193 0.38358,-1.77253 -0.53271,-0.49815 -0.93023,1.29376 -2.09787,0.43369 -4.65295,-3.4273 -6.42585,-9.71011 -13.86033,-15.76176 -23.08268,-18.78924 -4.76486,-1.56419 -10.9845,-2.84399 -13.82142,-2.84399 -15.79725,0 -53.22453,11.20695 -81.05666,24.271 -3.08222,1.44675 -6.38222,2.18144 -7.33333,1.63263 -0.95111,-0.54881 -1.28074,-0.50307 -0.73249,0.10163 0.54824,0.6047 -4.55176,4.19127 -11.33334,7.97015 -6.78157,3.77888 -14.38774,8.14922 -16.90259,9.71187 -2.51486,1.56265 -5.15756,2.47958 -5.87268,2.03761 -0.71512,-0.44197 -0.91266,-0.1765 -0.43899,0.58992 0.47368,0.76643 -0.63361,2.37296 -2.46065,3.57008 -1.82704,1.19712 -3.32189,1.84188 -3.32189,1.43279 0,-0.40909 -1.89292,1.41212 -4.2065,4.04714 -3.21047,3.65653 -4.49736,4.37787 -5.43484,3.0464 -0.95443,-1.35554 -1.09784,-1.29858 -0.6431,0.25545 0.32187,1.1 -0.25549,3.66476 -1.28304,5.69947 -1.79959,3.56349 -1.99862,15.93299 -0.23889,14.84683 1.28141,-0.79092 2.61918,3.47188 1.60469,5.11336 -0.51873,0.83933 -0.2443,1.02799 0.67176,0.46184 0.87907,-0.5433 1.91658,10e-4 2.3994,1.25956 0.46786,1.21921 3.31362,4.57123 6.32392,7.44894 l 5.47327,5.23219 -4.26975,3.67959 c -5.37262,4.63002 -19.77775,12.43293 -20.89329,11.31739 -0.46033,-0.46032 -0.83696,-0.2021 -0.83696,0.57383 0,0.77593 -2.55,2.42603 -5.66666,3.66688 -9.84463,3.9195 -14.33334,8.16673 -14.33334,13.56225 0,7.19291 7.03887,17.46909 15.51847,22.65572 1.36484,0.83482 2.40611,2.43737 2.31392,3.56122 -0.0922,1.12386 0.56169,1.76352 1.45305,1.42147 0.89136,-0.34205 2.46679,0.4554 3.50094,1.77211 1.74901,2.22686 1.69411,2.25886 -0.78638,0.45831 -2.07254,-1.50443 -2.29834,-1.52229 -1.01349,-0.0802 0.90924,1.02054 2.53429,1.98485 3.61122,2.14291 3.12049,0.45799 15.42273,11.42782 14.49652,12.92646 -0.48007,0.77676 -0.18096,0.95144 0.69849,0.40792 1.93517,-1.196 17.91928,7.67861 16.54908,9.18829 -0.55467,0.61113 -0.28525,0.69608 0.59872,0.18877 0.88396,-0.5073 5.28809,0.6269 9.78697,2.52045 19.53817,8.2235 45.39124,10.58518 71.11338,6.4962 13.59149,-2.1606 33.3128,-8.49089 42.40524,-13.61153 3.49707,-1.96947 5.09971,-2.30716 5.5614,-1.17186 0.4115,1.01189 0.6972,0.86381 0.78154,-0.40509 0.16518,-2.48505 15.56354,-12.47507 17.44062,-11.31497 0.75334,0.46559 1.20484,0.0519 1.00333,-0.91925 -0.2015,-0.97118 0.42823,-1.60091 1.39941,-1.39941 0.97117,0.20151 1.43664,-0.16617 1.03438,-0.81705 -1.06557,-1.72412 8.31867,-9.83927 10.10286,-8.73658 0.94405,0.58346 1.13913,0.33415 0.52106,-0.6659 -0.59192,-0.95775 1.06735,-3.84631 4.13934,-7.20601 2.82001,-3.08412 6.77564,-7.70749 8.7903,-10.27416 3.07268,-3.91459 3.89061,-4.34434 5.07532,-2.66666 1.14447,1.6207 1.27062,1.48885 0.66518,-0.69525 -0.50928,-1.8372 1.16249,-5.44525 5.25124,-11.33334 3.2991,-4.75094 7.5475,-10.95771 9.44087,-13.79282 1.89337,-2.83511 4.58426,-5.45333 5.97975,-5.81826 1.3955,-0.36493 2.25646,-1.11785 1.91327,-1.67315 -0.97099,-1.5711 4.34083,-7.0381 5.90128,-6.07369 0.7693,0.47545 1.11393,0.084 0.77258,-0.87757 -0.83004,-2.33815 9.00624,-9.54314 17.69615,-12.96227 9.59384,-3.77481 16.04116,-3.5772 22.43124,0.68748 6.98195,4.65969 16.56577,14.05182 15.72566,15.41113 -0.37295,0.60346 0.10306,0.79779 1.05782,0.43186 0.95475,-0.36593 3.26239,0.75068 5.12808,2.48136 1.86569,1.73069 6.02868,4.88696 9.2511,7.01394 l 5.85895,3.86724 -9.25111,0.79749 c -9.93995,0.85686 -19.56146,4.09556 -24.01669,8.08425 -1.52107,1.36179 -3.22107,2.0205 -3.77777,1.46379 -0.55671,-0.55671 -0.81686,-0.41219 -0.57811,0.32114 0.75181,2.30925 -3.8613,7.70737 -5.64465,6.6052 -1.14913,-0.7102 -1.30588,-0.46705 -0.51935,0.80559 0.61961,1.00255 1.26871,4.84525 1.44243,8.53934 0.47947,10.19539 0.96115,12.5949 2.35534,11.73325 0.73297,-0.453 0.90127,0.18434 0.39622,1.50048 -0.49593,1.29238 -0.33355,1.9515 0.37319,1.51471 0.68813,-0.42529 1.89624,0.4321 2.68468,1.90531 0.78844,1.47321 3.51536,4.0932 6.05981,5.82221 2.54446,1.729 4.17948,3.63664 3.63338,4.23921 -0.54611,0.60256 -0.3068,0.70344 0.53178,0.22419 0.83858,-0.47926 4.13858,0.061 7.33333,1.20052 7.60348,2.7121 15.75193,1.51736 24.81216,-3.63801 6.10068,-3.47134 7.11109,-3.70476 7.83793,-1.81063 0.98469,2.56604 -4.68376,14.28013 -6.39759,13.22092 -0.64713,-0.39994 -1.09068,-0.23257 -0.98567,0.37193 0.54307,3.12621 -0.30768,4.64759 -2.19411,3.9237 -1.32601,-0.50884 -1.73536,-0.2538 -1.13966,0.71006 2.21037,3.57646 -23.21315,22.2479 -32.79109,24.0823 -1.1,0.21068 -2.34337,0.84594 -2.76305,1.41169 -0.41968,0.56575 -5.79559,1.97781 -11.94645,3.13792 -13.79193,2.60128 -35.09203,2.00486 -50.30213,-1.40848 -2.59269,-0.58184 -3.98833,-1.55212 -3.46065,-2.40592 0.52922,-0.8563 0.25572,-1.04236 -0.6811,-0.46337 -1.77719,1.09836 -11.16466,-1.62657 -10.32216,-2.99625 0.30196,-0.4909 -1.56575,-1.04794 -4.15047,-1.23787 -3.18198,-0.23382 -7.07253,0.93997 -12.0485,3.63507 -4.04197,2.18922 -7.96144,3.60192 -8.70993,3.13932 -0.77359,-0.4781 -0.95526,-0.18474 -0.42097,0.67976 0.89869,1.45412 -3.00343,3.61555 -19.19458,10.63208 -10.48303,4.54288 -36.05681,12.34559 -41.99751,12.81368 -3.14998,0.24819 -6.34591,0.83362 -7.10205,1.30094 -3.32096,2.05247 -30.42492,4.75502 -46.90043,4.67648 -12.65977,-0.0604 -22.03942,-0.90662 -31.61544,-2.85245 z m -19.85523,-52.79066 c 0.37769,-0.61111 -0.16051,-1.11111 -1.19599,-1.11111 -1.03549,0 -1.57368,0.5 -1.19599,1.11111 0.37768,0.61111 0.91588,1.11111 1.19599,1.11111 0.28011,0 0.8183,-0.5 1.19599,-1.11111 z m -30.3071,-24.83024 c 0,-1.06774 -0.50979,-1.62628 -1.13286,-1.2412 -0.62307,0.38508 -0.78766,1.25869 -0.36576,1.94135 1.07817,1.74451 1.49862,1.54808 1.49862,-0.70015 z m 234.44442,-30.05865 c -0.45322,-0.73333 -1.53863,-1.32414 -2.41202,-1.31291 -0.95415,0.0123 -0.7897,0.5363 0.41202,1.31291 2.5615,1.65537 3.02308,1.65537 2,0 z M 420.65719,737.34857 c 0.46712,-0.75582 -0.0681,-0.97935 -1.25464,-0.52402 -2.30989,0.88639 -2.73251,1.84208 -0.81461,1.84208 0.69006,0 1.62122,-0.59313 2.06925,-1.31806 z m 275.34276,-3.49214 c 0,-1.1035 -2.58898,-1.72754 -3.18255,-0.76711 -0.38509,0.62308 0.17346,1.13286 1.2412,1.13286 1.06774,0 1.94135,-0.16459 1.94135,-0.36575 z M 315.17538,695.26405 c 0.45533,-1.18657 0.2318,-1.72177 -0.52401,-1.25465 -0.72493,0.44804 -1.31806,1.3792 -1.31806,2.06925 0,1.91791 0.95569,1.49529 1.84207,-0.8146 z m 13.5865,-48.57837 c 0,-1.56586 -0.48952,-2.1581 -1.19811,-1.44951 -0.65896,0.65896 -0.79498,1.85039 -0.30226,2.64762 1.25369,2.02852 1.50037,1.83153 1.50037,-1.19811 z m 25.43294,-25.97197 c 1.5335,-1.07411 3.2632,-1.52411 3.84377,-1 0.58057,0.52411 0.66756,0.27345 0.19332,-0.55703 -0.47425,-0.83047 0.19816,-2.93047 1.49424,-4.66666 3.21975,-4.31308 8.59128,-14.92348 12.22937,-24.15672 1.66146,-4.21666 3.29059,-7.66666 3.6203,-7.66666 0.3297,0 1.91002,0.6331 3.51181,1.40688 2.66116,1.28555 2.70905,1.24263 0.55521,-0.49772 -2.22791,-1.8002 -2.19136,-2.0101 0.66666,-3.82876 1.66309,-1.05827 6.6238,-2.67372 11.0238,-3.58988 15.77843,-3.28535 21.80129,-5.43062 22.63675,-8.06293 1.38238,-4.3555 1.98578,-8.49456 1.11078,-7.61957 -1.2789,1.2789 -4.5029,-1.91914 -3.52684,-3.49844 0.48934,-0.79177 0.21533,-0.99108 -0.63773,-0.46386 -0.82266,0.50843 -2.25969,-0.29886 -3.19341,-1.79398 -0.93372,-1.49513 -2.15166,-2.71841 -2.70653,-2.71841 -0.55488,0 -4.58741,-2.63438 -8.96119,-5.85417 -14.14847,-10.41551 -41.58514,-19.65639 -52.35956,-17.63509 -6.34332,1.19001 -11.25613,6.41275 -13.8036,14.67441 -2.86643,9.29605 -3.9542,32.86801 -2.02735,43.93276 2.99101,17.17569 13.98646,35.54875 21.27431,35.54875 1.24723,0 3.52238,-0.87881 5.05589,-1.95292 z M 42.666663,873.49067 c 0,-0.73334 0.6,-1.70416 1.333334,-2.15738 0.733333,-0.45323 1.333333,-0.22405 1.333333,0.50929 0,0.73333 -0.6,1.70415 -1.333333,2.15737 -0.733334,0.45323 -1.333334,0.22405 -1.333334,-0.50928 z m 0,-5.26849 c 0,-0.61111 0.9,-1.11111 2,-1.11111 1.1,0 2,0.5 2,1.11111 0,0.61111 -0.9,1.11111 -2,1.11111 -1.1,0 -2,-0.5 -2,-1.11111 z M 1000.1052,836.55551 c 0.064,-1.55326 0.3799,-1.8692 0.8055,-0.80555 0.3852,0.9625 0.3378,2.1125 -0.1052,2.55555 -0.4431,0.44306 -0.7582,-0.34444 -0.7003,-1.75 z m 1.3333,-13.33333 c 0.064,-1.55326 0.3799,-1.8692 0.8056,-0.80556 0.3851,0.9625 0.3378,2.1125 -0.1053,2.55556 -0.443,0.44305 -0.7582,-0.34445 -0.7003,-1.75 z m 1.6656,-17.22222 c 0.01,-5.13334 0.2469,-7.06995 0.5356,-4.3036 0.2886,2.76636 0.2837,6.96636 -0.011,9.33334 -0.2946,2.36697 -0.5307,0.10359 -0.5248,-5.02974 z M 41.438593,776.55551 c 0.06398,-1.55325 0.379921,-1.86919 0.805556,-0.80555 0.385161,0.9625 0.337792,2.1125 -0.105263,2.55555 -0.443056,0.44306 -0.758187,-0.34444 -0.700293,-1.75 z M 1004.2599,765.99996 c 0.027,-2.2 0.326,-2.93858 0.664,-1.64129 0.3381,1.29729 0.3158,3.09729 -0.049,4 -0.3652,0.90271 -0.6418,-0.15871 -0.6146,-2.35871 z m -1.2571,-10.66667 c 0.015,-2.93333 0.2879,-3.97633 0.6068,-2.31778 0.3189,1.65855 0.3068,4.05855 -0.027,5.33333 -0.3337,1.27478 -0.5947,-0.0822 -0.5799,-3.01555 z M 42.926595,737.99996 c 0.02717,-2.2 0.325998,-2.93858 0.664056,-1.64129 0.338058,1.29729 0.315825,3.09729 -0.04941,4 -0.365231,0.90271 -0.641824,-0.15871 -0.614651,-2.35871 z m 509.406695,-4.18625 c -1.65,-0.36623 -3,-1.25956 -3,-1.98517 0,-0.72561 -0.61219,-0.94094 -1.36042,-0.47851 -1.97474,1.22046 -11.53111,-6.22397 -16.2812,-12.68309 -2.24711,-3.0556 -4.14702,-7.24671 -4.22202,-9.31357 -0.075,-2.06686 -0.58636,-3.4815 -1.13636,-3.14365 -1.99118,1.22316 -0.0137,-18.30712 2.06396,-20.38483 0.40482,-0.40482 1.83104,-0.0993 3.16937,0.67898 1.33834,0.77825 1.86587,1.43325 1.1723,1.45555 -0.69357,0.0223 1.40643,1.76393 4.66666,3.87029 3.26024,2.10637 7.16046,4.95637 8.66715,6.33334 9.48845,8.6715 38.52687,18.29955 54.59389,18.10127 l 4,-0.0494 -5.88363,5.11573 c -9.98675,8.68332 -18.63557,12.11932 -31.89009,12.66929 -6.35779,0.2638 -12.90961,0.17998 -14.55961,-0.18626 z M 1000.3362,723.3333 c 0.015,-2.93334 0.2878,-3.97634 0.6067,-2.31779 0.319,1.65855 0.3069,4.05855 -0.027,5.33333 -0.3337,1.27478 -0.5946,-0.0822 -0.5798,-3.01554 z M 704.26189,700.68243 c -4.30987,-3.62651 -6.296,-8.51503 -3.82511,-9.41485 0.85974,-0.31309 3.06317,-0.72639 4.8965,-0.91844 1.83333,-0.19205 3.63333,-0.73921 4,-1.21591 0.36666,-0.4767 1.86666,-1.0767 3.33333,-1.33333 1.46667,-0.25663 3.05611,-1.00403 3.5321,-1.66089 1.96231,-2.70796 5.13457,0.52396 5.13457,5.23113 0,3.27906 -0.48495,4.48749 -1.53935,3.83584 -0.90715,-0.56065 -1.17916,-0.36859 -0.66234,0.46765 1.4452,2.33838 -0.48272,5.56916 -2.79405,4.68223 -1.30004,-0.49888 -1.77186,-0.26457 -1.23065,0.61114 0.88566,1.43302 -1.8119,3.03296 -5.11369,3.03296 -0.98376,0 -3.56285,-1.49288 -5.73131,-3.31753 z M 49.438593,692.55552 c 0.06398,-1.55326 0.37992,-1.8692 0.805555,-0.80556 0.385161,0.9625 0.337793,2.1125 -0.105263,2.55556 -0.443056,0.44305 -0.758187,-0.34445 -0.700292,-1.75 z m 945.438527,-4.55556 c 0,-1.83333 0.30263,-2.58333 0.67251,-1.66666 0.36988,0.91666 0.36988,2.41666 0,3.33333 -0.36988,0.91667 -0.67251,0.16667 -0.67251,-1.66667 z m -1.4386,-6.11111 c 0.064,-1.55325 0.37992,-1.8692 0.80555,-0.80555 0.38517,0.9625 0.3378,2.1125 -0.10526,2.55555 -0.44305,0.44306 -0.75819,-0.34444 -0.70029,-1.75 z M 666.66661,664.8713 c -1.83333,-0.9658 -3.18333,-2.45696 -3,-3.31367 0.18334,-0.85672 -0.33085,-1.55766 -1.14265,-1.55766 -0.81179,0 -1.11866,-0.93117 -0.68194,-2.06925 0.43673,-1.13809 0.29915,-1.76339 -0.30572,-1.38956 -1.04852,0.64802 -8.32939,-13.08511 -8.41618,-15.87453 -0.0228,-0.73333 -0.51016,-1.63333 -1.08298,-2 -2.50284,-1.60207 -17.27961,-33.37772 -16.55883,-35.60777 0.56727,-1.75512 0.43661,-1.92278 -0.49063,-0.62952 -0.92808,1.29443 -2.46688,-0.65372 -5.79244,-7.33333 -2.49074,-5.00282 -5.05549,-9.47896 -5.69944,-9.94697 -0.64395,-0.46801 -0.70125,-1.61072 -0.12732,-2.53934 0.65463,-1.05922 0.50562,-1.356 -0.39986,-0.79638 -0.79384,0.49062 -1.79228,-0.20734 -2.21875,-1.55103 -0.42647,-1.34369 -4.74556,-9.3024 -9.59799,-17.68603 -4.85242,-8.38363 -8.84669,-15.96656 -8.87615,-16.85097 -0.0294,-0.88441 -0.51036,-1.3257 -1.06867,-0.98064 -0.55831,0.34506 -1.44562,-0.72903 -1.9718,-2.38687 -0.52618,-1.65783 -1.91937,-3.80374 -3.09599,-4.76869 -1.81772,-1.49071 -1.33804,-1.6234 3.19096,-0.88274 2.93165,0.47944 5.77247,1.56664 6.31292,2.416 0.54045,0.84936 0.99182,1.13363 1.00305,0.63172 0.0295,-1.3195 16.50112,4.38856 17.66667,6.1222 0.53877,0.80137 0.98877,1.00101 1,0.44365 0.0217,-1.07603 19.91518,8.73252 28.40197,14.00368 2.77653,1.72451 4.72653,3.55717 4.33334,4.07259 -0.3932,0.51541 -0.33601,0.65822 0.12708,0.31736 1.80789,-1.33073 5.70989,2.04201 4.98259,4.30676 -0.53228,1.65749 -0.3945,1.82943 0.48616,0.60672 1.31219,-1.82186 5.84816,0.9529 11.95894,7.31557 1.61498,1.68155 3.46988,3.05737 4.12199,3.05737 0.65211,0 4.95966,4.05 9.57234,9 12.91624,13.86081 13.64274,14.81226 12.5993,16.50058 -0.58955,0.95391 -0.40463,1.2254 0.4675,0.68639 1.29523,-0.80049 10.30253,10.03273 10.30253,12.39102 0,0.5202 1.05,1.99582 2.33333,3.27915 2.16769,2.16769 2.87939,4.01783 2.49123,6.47619 -0.0868,0.55 0.3458,1 0.96142,1 1.14204,0 4.21402,5.82253 4.21402,7.98712 0,0.65723 -4.35,-0.63383 -9.66667,-2.86904 -8.64563,-3.63476 -16.60719,-4.91382 -22.22222,-3.5701 -5.36426,1.2837 -11.01668,10.92503 -13.55381,23.11869 -2.12125,10.19494 -3.25358,11.76584 -7.03064,9.75368 -2.58035,-1.37463 -2.68107,-1.30671 -1.03006,0.69469 2.19461,2.66038 1.8586,2.7173 -2.4966,0.42296 z m 20,-76.06201 c 0,-0.28821 -0.93116,-0.88134 -2.06925,-1.31806 -1.18656,-0.45533 -1.72176,-0.2318 -1.25464,0.52401 0.78301,1.26694 3.32389,1.87393 3.32389,0.79405 z m -58.66666,-10.95285 c 0,-1.10351 -2.58897,-1.72754 -3.18255,-0.76711 -0.38508,0.62307 0.17346,1.13286 1.2412,1.13286 1.06774,0 1.94135,-0.16459 1.94135,-0.36575 z m -24.66666,-37.85647 c -0.45323,-0.73333 -1.53864,-1.32414 -2.41203,-1.31291 -0.95415,0.0123 -0.7897,0.5363 0.41203,1.31291 2.56149,1.65537 3.02307,1.65537 2,0 z m 386.88886,125.77777 c -1.23199,-1.23198 -1.11726,-4.44444 0.15873,-4.44444 0.57619,0 1.04761,1.2 1.04761,2.66667 0,3.00646 0.009,2.99315 -1.20634,1.77777 z m -2.6805,-8.71955 c -1.08336,-4.14277 -0.25688,-4.35504 1.54643,-0.39719 0.83674,1.83643 1.00418,3.33897 0.3721,3.33897 -0.63208,0 -1.49542,-1.3238 -1.91853,-2.94178 z m -12.87506,-39.6462 c 0,-0.69005 0.59313,-1.62122 1.31806,-2.06925 0.75581,-0.46712 0.97934,0.0681 0.52402,1.25464 -0.88639,2.30989 -1.84208,2.73252 -1.84208,0.81461 z m -3.2212,-8.93395 c -0.66374,-1.72968 -0.45825,-1.87189 0.98002,-0.67823 1.00093,0.8307 2.31086,1.06556 2.91096,0.52192 0.6001,-0.54363 0.65948,-0.23843 0.13197,0.67824 -1.32602,2.30422 -3.02294,2.08407 -4.02295,-0.52193 z m -8.59068,-19.99351 c -1.60174,-3.57398 -1.56734,-3.67719 0.53851,-1.61551 1.23726,1.21131 2.00723,2.92936 1.71106,3.81789 -0.29618,0.88853 -1.30848,-0.10254 -2.24957,-2.20238 z M 87.877076,575.3333 c -0.119576,-0.73333 -0.355002,-2.60174 -0.523169,-4.15202 -0.168167,-1.55028 -0.727003,-3.50028 -1.241859,-4.33333 -0.514855,-0.83306 -0.30069,-1.51465 0.475923,-1.51465 0.776612,0 1.412022,0.85601 1.412022,1.90224 0,1.04623 0.858247,2.09623 1.907214,2.33333 1.640347,0.37078 1.646958,0.89752 0.04725,3.76443 -1.022982,1.83334 -1.957803,2.73334 -2.077379,2 z M 691.8055,552.41664 c -0.25972,-0.59584 -3.47222,-3.43235 -7.13889,-6.30337 -3.66666,-2.87101 -7.41666,-6.13569 -8.33333,-7.25484 -0.91667,-1.11914 -1.66667,-1.6126 -1.66667,-1.09657 0,1.18309 -11.00072,-5.64753 -12.2847,-7.62787 -0.52325,-0.80705 -1.42325,-1.32453 -2,-1.14996 -1.77886,0.5384 -5.71529,-1.09601 -5.71529,-2.373 0,-1.64813 7.78844,-5.56585 9.2586,-4.65724 0.64917,0.40121 1.38155,0.15414 1.62751,-0.54904 0.47099,-1.34645 14.59201,-5.40478 18.80604,-5.40478 1.35587,0 2.15964,0.49444 1.78616,1.09875 -0.37348,0.60431 0.62059,1.05431 2.20905,1 4.37932,-0.14973 6.73919,6.06216 6.51878,17.15945 -0.2734,13.76535 -1.51608,20.71704 -3.06726,17.15847 z m -591.26866,-3.76327 c 0.26391,-2.48624 1.28782,-4.157 2.72047,-4.43914 1.8797,-0.37017 2.04293,-0.007 0.89797,2 -3.50548,6.1436 -4.05066,6.5111 -3.61844,2.43914 z m 844.46309,-6.86977 c 0.91666,-0.36989 2.41666,-0.36989 3.33333,0 0.91667,0.36988 0.16667,0.67251 -1.66667,0.67251 -1.83333,0 -2.58333,-0.30263 -1.66666,-0.67251 z m -12.86615,-14.72299 c 0.97086,-1.61665 2.0522,-2.65236 2.40298,-2.30159 0.35077,0.35078 -0.44357,1.67349 -1.7652,2.93937 -2.29592,2.19905 -2.32433,2.17063 -0.63778,-0.63778 z M 117.92819,519.8838 c -0.49272,-0.79723 -0.3567,-1.98866 0.30226,-2.64762 0.70859,-0.70859 1.19811,-0.11636 1.19811,1.44951 0,3.02964 -0.24668,3.22662 -1.50037,1.19811 z m 785.36369,-30.61745 c -1.26696,-2.04998 0.46847,-3.37262 2.17978,-1.66131 0.95757,0.95757 0.98058,1.70337 0.0699,2.26619 -0.74656,0.4614 -1.75892,0.1892 -2.24969,-0.60488 z m -5.6772,-7.21876 c -2.25187,-2.67913 -2.24436,-2.68301 0.5803,-0.29944 1.93315,1.63127 3.03056,1.90831 3.38207,0.8538 0.37017,-1.11052 0.96598,-1.0241 2.06442,0.29944 1.23278,1.48542 1.01089,1.86049 -1.10065,1.86049 -1.4546,0 -3.67136,-1.22143 -4.92614,-2.71429 z m 8.47097,1.00989 c -0.72358,-1.90027 -0.57042,-2.05342 0.7464,-0.74639 0.91122,0.90444 1.32089,1.98032 0.91038,2.39083 -0.41052,0.41052 -1.15607,-0.32948 -1.65678,-1.64444 z m -20.93801,-16.27606 c -1.73124,-1.40355 -2.84771,-2.82548 -2.48104,-3.15985 0.36666,-0.33438 2.15405,0.81397 3.97196,2.55189 3.96111,3.78682 2.94249,4.20218 -1.49092,0.60796 z m -723.14765,-4.11478 c -0.45323,-0.73333 -0.63864,-1.37924 -0.41203,-1.43535 4.39005,-1.08695 5.13694,-0.90807 3.65651,0.87574 -1.868,2.25081 -2.16736,2.30244 -3.24448,0.55961 z m 700.56569,-19.66666 -3.23241,-3.66667 3.66666,3.23242 c 3.42705,3.02118 4.27812,4.10091 3.23242,4.10091 -0.23884,0 -1.88883,-1.65 -3.66667,-3.66666 z m -679.23236,-3 c 0.45322,-0.73334 1.08863,-1.33334 1.41202,-1.33334 0.32339,0 0.58798,0.6 0.58798,1.33334 0,0.73333 -0.63541,1.33333 -1.41202,1.33333 -0.77662,0 -1.04121,-0.6 -0.58798,-1.33333 z m 657.27054,-17.66491 c -5.21303,-5.60304 -5.21724,-5.61596 -0.3858,-1.18344 2.68664,2.4648 5.52976,4.08285 6.31806,3.59566 0.88464,-0.54674 1.12932,-0.0937 0.63922,1.18344 -0.43672,1.13809 -0.90808,2.06925 -1.04746,2.06925 -0.13938,0 -2.62519,-2.54921 -5.52402,-5.66491 z M 204.0204,421.71356 c 0.0485,-2.48612 2.14557,-4.1804 3.86157,-3.11985 1.41953,0.87732 1.19549,1.44937 -1.03519,2.6432 -1.56574,0.83796 -2.83761,1.05245 -2.82638,0.47665 z m 625.1428,-9.38025 c -1.6585,-2.11474 -1.61134,-2.1619 0.5034,-0.50341 2.221,1.74183 2.92731,2.83674 1.82993,2.83674 -0.27688,0 -1.32688,-1.04999 -2.33333,-2.33333 z M 225.87266,401.1273 c -0.55555,-0.89889 -0.36904,-1.17945 0.44826,-0.67432 0.7698,0.47576 1.74368,-0.0315 2.16417,-1.12733 0.83895,-2.18626 4.84823,-2.77003 4.84823,-0.70592 0,1.16005 -4.16144,4.04692 -5.83366,4.04692 -0.3716,0 -1.10375,-0.69271 -1.627,-1.53935 z m 22.12732,-14.42823 c 0,-0.83773 0.54875,-1.18399 1.21945,-0.76947 0.6707,0.41451 1.4707,0.29992 1.77778,-0.25465 0.30708,-0.55457 0.47083,-0.4458 0.36388,0.2417 -0.28727,1.84673 -3.36111,2.56228 -3.36111,0.78242 z m 13.33333,-8.55644 c 0,-0.28821 0.93117,-0.88133 2.06925,-1.31806 1.18657,-0.45533 1.72177,-0.2318 1.25465,0.52402 -0.78301,1.26693 -3.3239,1.87393 -3.3239,0.79404 z m 499.27847,-12.89802 c -0.48338,-0.78213 -0.59291,-1.708 -0.2434,-2.05751 0.3495,-0.3495 0.99075,0.29042 1.425,1.42204 0.90157,2.34948 0.13314,2.76275 -1.1816,0.63547 z m -472.6118,-3.01871 c 1.83333,-2.07575 3.18333,-4.02575 3,-4.33334 -1.60626,-2.69488 2.93056,-3.96467 5.88129,-1.64609 0.97215,0.76387 1.91675,0.61964 2.53935,-0.38776 0.62851,-1.01695 0.42794,-1.25586 -0.54797,-0.65272 -0.84663,0.52325 -1.53934,0.38015 -1.53934,-0.318 0,-0.69815 0.93116,-1.62669 2.06925,-2.06342 1.2968,-0.49763 1.7322,-0.24869 1.16636,0.66686 -0.60919,0.98569 0.1273,1.16917 2.26408,0.56405 2.5104,-0.71091 2.75233,-0.5922 1.16698,0.57261 -3.51886,2.58542 -9.65222,5.63321 -8.90579,4.42547 0.39657,-0.64168 -0.58739,-1.23008 -2.18658,-1.30757 -1.5992,-0.0775 -2.15763,0.14796 -1.24097,0.501 0.91667,0.35303 1.66667,1.29188 1.66667,2.08632 0,0.79445 -0.40549,1.03896 -0.90108,0.54336 -0.4956,-0.49559 -2.4456,0.45441 -4.33334,2.11112 l -3.43225,3.01219 z m 467.82989,-0.55925 c -1.6585,-2.11474 -1.61134,-2.1619 0.5034,-0.50341 2.221,1.74183 2.92731,2.83674 1.82993,2.83674 -0.27687,0 -1.32687,-1.05 -2.33333,-2.33333 z m -11.82993,-5.66667 c -1.20172,-0.77661 -1.36617,-1.30065 -0.41202,-1.31291 0.87339,-0.0112 1.9588,0.57958 2.41202,1.31291 1.02307,1.65537 0.5615,1.65537 -2,0 z m 39.766,-6.23223 c 0.56898,-2.79062 0.90426,-3.1259 1.29281,-1.29281 0.28853,1.36123 -0.0572,3.05672 -0.7682,3.76776 -0.83485,0.83485 -1.02068,-0.0419 -0.52461,-2.47495 z m -51.766,0.23223 c -1.83333,-1.04803 -2.69801,-1.92676 -1.9215,-1.95275 0.7765,-0.026 2.5765,0.83367 4,1.91035 3.29197,2.48992 2.24051,2.51137 -2.0785,0.0424 z m -60.71851,-23.86541 c -2.96185,-0.92786 -6.56185,-2.39597 -8,-3.26246 -2.29162,-1.38071 -2.12042,-1.4753 1.38518,-0.76535 2.2,0.44555 5.8,1.58088 8,2.52297 2.2,0.94209 4.9,2.03843 6,2.43631 4.30983,1.5589 -1.95989,0.76812 -7.38518,-0.93147 z m -299.79734,-1.04523 c 0.38508,-0.62307 1.25868,-0.78766 1.94135,-0.36575 1.7445,1.07817 1.54807,1.49862 -0.70015,1.49862 -1.06774,0 -1.62628,-0.50979 -1.2412,-1.13287 z m 8.51588,-1.61337 c 0,-0.28821 0.93116,-0.88134 2.06925,-1.31806 1.18657,-0.45533 1.72176,-0.2318 1.25464,0.52401 -0.78301,1.26694 -3.32389,1.87393 -3.32389,0.79405 z m 255.74998,-8.38681 c 0.9625,-0.38516 2.1125,-0.33779 2.55556,0.10527 0.44305,0.44305 -0.34445,0.75819 -1.75,0.70029 -1.55326,-0.064 -1.8692,-0.37992 -0.80556,-0.80556 z M 407.3333,310.66665 c 0.45323,-0.73333 1.08864,-1.33333 1.41202,-1.33333 0.32339,0 0.58798,0.6 0.58798,1.33333 0,0.73333 -0.63541,1.33333 -1.41202,1.33333 -0.77661,0 -1.0412,-0.6 -0.58798,-1.33333 z m 25.175,-0.95278 c 0.52403,-0.52403 2.27403,-1.04386 3.88889,-1.15519 1.61486,-0.11132 5.93611,-0.56609 9.60278,-1.01059 6.57932,-0.7976 6.56185,-0.78323 -1.33334,1.09701 -8.84994,2.1076 -13.61613,2.52657 -12.15833,1.06877 z m 169.82499,-0.002 c -2.77518,-0.4204 -3.62906,-1.26332 -3.512,-3.46689 0.10128,-1.90642 0.351,-2.17946 0.72344,-0.79096 0.34176,1.27415 3.07388,2.66432 6.84533,3.48307 6.12643,1.33 3.24326,1.88065 -4.05677,0.77478 z M 474.3333,304.45028 c 0.91666,-0.36989 2.41666,-0.36989 3.33333,0 0.91667,0.36988 0.16667,0.67251 -1.66667,0.67251 -1.83333,0 -2.58333,-0.30263 -1.66666,-0.67251 z m 86.33332,-0.34872 c -5.93417,-0.72351 -6.21229,-0.89168 -2.53124,-1.53056 2.27448,-0.39476 6.17448,0.0196 8.66667,0.92085 4.90096,1.77229 4.07401,1.85447 -6.13543,0.60971 z m 12.41667,0.32094 c 0.9625,-0.38516 2.1125,-0.33779 2.55555,0.10526 0.44306,0.44306 -0.34444,0.75819 -1.75,0.70029 -1.55325,-0.064 -1.86919,-0.37992 -0.80555,-0.80555 z m -87.39833,-1.37929 c 2.02675,-0.30647 5.02675,-0.29828 6.66667,0.0182 1.63991,0.31648 -0.0183,0.56723 -3.685,0.55722 -3.66667,-0.01 -5.00842,-0.26895 -2.98167,-0.57542 z m 33.98167,-1.35283 c 3.11666,-0.28072 8.21666,-0.28072 11.33333,0 3.11667,0.28071 0.56667,0.51038 -5.66667,0.51038 -6.23333,0 -8.78333,-0.22967 -5.66666,-0.51038 z"
         id="path9" />
      <path
         style="display:inline;fill:#1f81f3;fill-opacity:1"
         d="m 491.99996,1193.3333 c -1.1,-0.7109 -3.41244,-1.3017 -5.13876,-1.3129 -4.38867,-0.029 -16.70701,-12.9739 -26.1982,-27.5317 -9.76833,-14.9829 -12.66303,-21.7722 -12.66303,-29.7002 0,-7.0809 1.28818,-8.6934 12.66666,-15.8555 3.66667,-2.3079 7.39134,-4.812 8.27706,-5.5647 0.88571,-0.7526 1.94151,-1.3684 2.34622,-1.3684 0.40471,0 5.08003,-3.1651 10.38961,-7.0337 10.46696,-7.6262 18.93171,-13.4668 25.48588,-17.5852 2.29234,-1.4404 4.84463,-3.2404 5.67175,-4 1.74461,-1.6022 16.56824,-11.9378 41.16281,-28.7004 22.10747,-15.0674 57.75197,-39.7835 71.64744,-49.6807 5.92014,-4.2166 11.42488,-7.66662 12.23274,-7.66662 0.80787,0 2.23975,1.7416 3.18198,3.87022 2.6093,5.8948 23.80424,37.3323 36.13364,53.5953 3.00266,3.9606 5.46196,7.842 5.46512,8.6253 0.003,0.7832 -7.04427,6.1537 -15.66093,11.9344 -8.61667,5.7807 -15.96667,10.8398 -16.33333,11.2425 -0.36667,0.4028 -4.26667,3.2048 -8.66667,6.2269 -4.4,3.022 -10.7,7.3937 -14,9.715 -3.3,2.3212 -8.1,5.655 -10.66666,7.4084 -2.56667,1.7534 -8.56667,5.9484 -13.33334,9.3222 -4.76666,3.3739 -11.96666,8.3986 -16,11.166 -4.03333,2.7675 -10.63333,7.3689 -14.66666,10.2254 -12.24836,8.6745 -52.61976,36.5798 -68.16142,47.1141 -11.33776,7.6849 -10.45253,7.3117 -13.17191,5.5543 z m 127.01658,-115.3442 c 6.42579,-4.7607 12.27579,-8.6558 13,-8.6558 0.72421,0 1.31674,-0.6 1.31674,-1.3334 0,-0.7333 0.64006,-1.3333 1.42234,-1.3333 0.78229,0 3.60533,-2.0595 6.27344,-4.5767 5.5454,-5.2318 5.46422,-5.636 -3.52632,-17.5576 -7.24017,-9.6007 -9.38042,-9.417 -25.8822,2.2209 -7.49132,5.2833 -15.1063,10.6293 -16.92218,11.8799 -8.37213,5.7661 -4.09467,21.0862 7.30159,26.1513 2.2,0.9778 4.3,1.7964 4.66667,1.8192 0.36667,0.023 5.92413,-3.8538 12.34992,-8.6145 z m 88.87188,-26.3225 c -16.51592,-19.1238 -37.83812,-50.0374 -46.53818,-67.47245 -7.8287,-15.68883 -8.20969,-16.9656 -6.32597,-21.19948 1.93349,-4.34575 17.6675,-28.26747 23.13714,-35.17731 2.11119,-2.66709 4.73854,-6.19211 5.83854,-7.83338 1.1,-1.64127 3.03003,-4.2591 4.28897,-5.81741 2.26227,-2.80023 2.28949,-2.77592 2.33333,2.08398 0.16693,18.50415 12.50122,47.33737 34.21414,79.98058 12.45944,18.73157 32.88792,40.75247 44.3456,47.80237 7.0056,4.3106 7.75884,6.6331 2.15128,6.6331 -1.74677,0 -3.5058,0.5337 -3.90895,1.186 -0.40315,0.6523 -2.68856,1.5231 -5.07869,1.9351 -12.32121,2.1238 -19.8868,3.5761 -28.34569,5.4413 -16.11965,3.5544 -16.64121,3.4033 -26.11152,-7.5624 z M 815.127,959.66662 c -1.56983,-2.53942 -1.76515,-22.56205 -0.24774,-25.39736 2.26717,-4.23623 3.02955,-1.32843 3.44441,13.1373 0.3757,13.10039 -0.52995,16.57382 -3.19667,12.26006 z m 12.09123,-7.2414 c -0.42272,-1.3339 -1.23739,-3.62527 -1.8104,-5.09194 -1.39,-3.55786 -0.83045,-11.42958 1.06408,-14.96955 0.84042,-1.57032 1.52803,-3.57919 1.52803,-4.46416 0,-1.86529 24.34928,-26.56628 26.18801,-26.56628 1.86124,0 2.06476,19.70789 0.28571,27.66666 -0.86061,3.85 -2.06926,7 -2.6859,7 -0.61664,0 -1.12116,0.66366 -1.12116,1.4748 0,2.77452 -7.96845,11.53978 -12.32006,13.552 -8.12371,3.75648 -10.2946,4.02929 -11.12831,1.39847 z M 804.21111,926.838 c -1.13626,-0.72821 -1.83931,-4.02767 -1.92723,-9.04467 -0.1412,-8.05786 0.56734,-9.45873 9.38272,-18.55062 0.91667,-0.94542 1.66667,-2.05724 1.66667,-2.47071 0,-0.41347 1.17778,-2.10633 2.61728,-3.76191 1.43951,-1.65557 2.76853,-3.61014 2.95339,-4.34347 0.18485,-0.73333 1.66681,-2.83333 3.29324,-4.66667 4.18385,-4.71608 9.80276,-13.202 9.80276,-14.80456 0,-0.74405 0.56312,-1.00478 1.25138,-0.57941 0.68826,0.42536 1.73826,-0.0745 2.33333,-1.11087 0.59508,-1.03635 3.18195,-3.06165 5.74862,-4.50068 4.08408,-2.28977 4.61775,-3.1816 4.27482,-7.14377 -0.21552,-2.49006 -1.05213,-6.21075 -1.85915,-8.26822 -1.03116,-2.6289 -1.0483,-4.15985 -0.0577,-5.15049 2.22723,-2.22723 4.22203,-0.0582 4.23998,4.61038 0.0367,9.55169 1.90633,13.66386 9.11319,20.04428 7.03439,6.22772 7.05865,6.23668 16.89095,6.23668 11.14847,0 14.06454,0.75027 14.06454,3.61863 0,1.38109 -0.72206,1.70333 -2.33333,1.04132 -1.28334,-0.52728 -5.03334,-1.17524 -8.33333,-1.43991 -3.3,-0.26466 -7.30233,-0.79691 -8.89405,-1.18277 -5.04071,-1.22194 -7.10595,0.4983 -7.10595,5.91887 0,5.46474 -4.47451,11.26438 -13.33334,17.28202 -2.56666,1.74349 -9.46666,8.10332 -15.33333,14.13295 -5.86666,6.02963 -12.08897,11.6976 -13.82733,12.59549 -4.12255,2.12935 -12.35495,2.99496 -14.62816,1.53811 z m -36.45985,-12.5153 c 2.33628,-2.33628 3.16455,-2.44731 7.52389,-1.0086 3.03418,1.00137 6.76854,1.22726 9.81169,0.59351 2.70221,-0.56274 5.42625,-0.90113 6.05345,-0.75196 0.62719,0.14916 1.97719,-0.42332 2.99999,-1.27218 1.43729,-1.19283 1.85502,-1.12775 1.83924,0.28656 -0.0518,4.64501 -2.01954,5.24162 -16.51865,5.00847 -14.25957,-0.2293 -14.32109,-0.24431 -11.70961,-2.8558 z m 103.80423,-1.8783 c -0.48889,-0.48889 -0.88889,-2.23982 -0.88889,-3.89095 0,-4.41891 -1.36484,-7.22016 -3.51783,-7.22016 -1.04456,0 -2.23579,-0.87716 -2.64719,-1.94925 -0.4114,-1.07208 -1.95947,-2.33375 -3.44016,-2.8037 -2.42418,-0.76941 -2.48776,-1.05887 -0.63873,-2.9079 1.84902,-1.84903 2.27148,-1.83539 4.24391,0.13704 1.20476,1.20476 2.74762,2.19047 3.42857,2.19047 3.16402,0 6.1336,5.18884 6.35752,11.10866 0.21835,5.77283 -0.72422,7.50877 -2.8972,5.33579 z m -97.40623,-8.2711 c -2.02819,-2.24785 -2.2002,-3.17214 -0.88522,-4.7566 0.89768,-1.08163 1.26016,-2.56848 0.80552,-3.3041 -0.45465,-0.73563 -0.0563,-2.70971 0.88521,-4.38684 2.21489,-3.94544 13.24788,-14.32493 15.26739,-14.36308 0.85556,-0.0162 1.75607,-0.63093 2.00114,-1.36614 0.84414,-2.53244 18.57152,-4.97728 24.79481,-3.41955 l 5.68484,1.42296 -3.35151,3.60848 c -1.84333,1.98466 -3.3515,4.23466 -3.3515,5 0,0.76534 -0.47064,1.39152 -1.04586,1.39152 -0.57522,0 -2.10784,1.79781 -3.40583,3.99512 -3.61059,6.11224 -14.19135,16.29925 -16.149,15.54803 -0.95757,-0.36745 -2.32868,-0.0804 -3.04691,0.63778 -0.71823,0.71823 -4.54134,1.63809 -8.4958,2.04414 -6.15783,0.63229 -7.5513,0.33777 -9.70728,-2.05172 z m 48.62332,-42.06054 c -2.59546,-2.76273 -4.40163,-3.65787 -11.10598,-5.50409 -0.55,-0.15146 -1.9,-0.35038 -3,-0.44205 -1.1,-0.0917 -2,-0.76666 -2,-1.5 0,-2.14658 13.25574,-1.6014 15.49439,0.63725 1.08382,1.08382 2.76237,2.43382 3.73011,3 0.96773,0.56618 2.17855,2.37942 2.69069,4.02942 1.26883,4.08783 -1.87379,3.96854 -5.80921,-0.22053 z m 20.14785,-24.44614 c 0.24715,-1.28333 1.03292,-2.33333 1.74617,-2.33333 0.71325,0 1.49903,1.05 1.74617,2.33333 0.28107,1.45947 -0.37289,2.33334 -1.74617,2.33334 -1.37328,0 -2.02724,-0.87387 -1.74617,-2.33334 z"
         id="path5" />
      <path
         style="display:inline;fill:#1f2a44;fill-opacity:1"
         d="m 490.66663,1255.1841 c -47.98127,-3.2578 -100.78096,-15.2789 -144.78345,-32.9632 -19.67778,-7.9083 -53.52574,-24.9201 -73.04741,-36.713 C 204.79004,1144.4017 145.02513,1083.0769 106.34011,1014.6666 88.679652,983.436 81.326993,967.27046 69.239465,933.09721 58.992809,904.12839 52.465872,876.3272 47.226336,839.33329 44.003049,816.57517 43.330073,765.61219 45.899905,738.88563 51.838393,677.12465 67.350891,622.60334 94.31621,568.7183 c 23.97127,-47.90199 50.93773,-84.89745 90.92272,-124.73742 37.7439,-37.60703 75.54551,-64.92751 122.68303,-88.6671 22.45493,-11.30884 28.00848,-13.64588 57.25962,-24.09591 59.89595,-21.39794 128.75772,-30.52566 193.48504,-25.6467 19.93551,1.50268 59.94841,8.04716 80.46697,13.16112 110.64063,27.57558 207.38068,93.7547 275.26381,188.30583 37.37607,52.05932 65.87976,117.42064 78.10209,179.09456 5.45761,27.5391 7.54871,44.67313 8.76171,71.79177 5.339,119.36523 -31.25659,229.11722 -107.40104,322.10085 -16.0142,19.5557 -50.21275,53.5334 -69.19356,68.7466 -70.33611,56.3749 -151.42736,91.2937 -239.99998,103.3469 -19.28271,2.624 -74.1489,4.4132 -93.99999,3.0653 z m 17.43818,-68.2774 c 6.17567,-4.2679 28.62848,-19.8185 49.89515,-34.557 21.26666,-14.7384 43.29254,-29.9964 48.9464,-33.9068 5.65386,-3.9103 21.84868,-15.2096 35.98849,-25.1096 14.13982,-9.9 29.16394,-20.3303 33.38693,-23.1785 4.22299,-2.8481 7.67817,-5.7119 7.67817,-6.3639 0,-0.6521 -4.8103,-7.7721 -10.68956,-15.8223 -12.01129,-16.4465 -29.71909,-43.147 -32.14226,-48.46532 -0.87792,-1.92683 -2.15664,-3.50333 -2.8416,-3.50333 -1.25771,0 -9.06739,5.16235 -30.99324,20.48695 -28.26173,19.753 -52.72807,36.7242 -62.66667,43.4691 -5.86666,3.9814 -18.46666,12.7081 -27.99999,19.3927 -9.53334,6.6845 -28.59555,19.8427 -42.36048,29.2404 -13.76493,9.3977 -25.41493,17.7141 -25.88889,18.481 -2.2584,3.6542 -0.77574,16.4956 2.70462,23.4248 9.24418,18.4048 27.17516,39.8123 35.54475,42.4364 7.97119,2.4991 9.88109,1.9624 21.43818,-6.0246 z m 88.58682,-106.5734 c -3.84947,-4.1317 -6.57743,-12.4923 -5.34404,-16.3784 0.45048,-1.4194 8.01059,-7.5399 16.80023,-13.6011 8.78965,-6.0613 16.77059,-11.566 17.73542,-12.2327 0.96484,-0.6667 2.70725,-0.8465 3.87202,-0.3995 2.40945,0.9245 14.24469,16.6936 14.24469,18.9794 0,2.172 -4.17636,5.6442 -20.57882,17.1089 -16.69604,11.6699 -20.96401,12.7115 -26.7295,6.5234 z m 187.08488,21.7753 c 66.3274,-53.5418 114.90043,-125.29179 138.73762,-204.93727 12.13942,-40.5606 16.80426,-73.74322 16.65948,-118.5047 -0.10867,-33.59797 -1.8423,-51.12916 -8.04293,-81.33333 C 906.10852,575.44664 824.75214,469.1664 713.2355,412.68504 650.40886,380.86438 592.34822,366.71361 524.47457,366.67948 c -46.4324,-0.0233 -81.78941,5.29623 -125.14127,18.8279 -103.36752,32.26471 -187.61173,100.25476 -240.98931,194.49259 -26.96312,47.60325 -44.08044,101.53285 -50.57258,159.33332 -2.14053,19.05752 -2.10162,62.50418 0.0734,82 8.59133,77.0067 34.85291,143.527 80.80043,204.66661 10.83334,14.4153 28.03912,34 29.87005,34 0.51278,0 2.28169,-8.4392 3.93092,-18.7537 10.20208,-63.80586 42.67118,-125.25355 84.08948,-159.13915 5.20533,-4.25864 9.46424,-8.20212 9.46424,-8.76328 0,-0.56116 -1.95,-1.80155 -4.33334,-2.75641 -6.76777,-2.71145 -27.01176,-14.20238 -41.66666,-23.6509 -30.11987,-19.41932 -55.33333,-43.19579 -55.33333,-52.17972 0,-0.58829 4.5928,-7.89923 10.20622,-16.24653 12.3053,-18.29832 16.56331,-27.12692 38.8578,-80.56825 9.49714,-22.76523 18.56561,-43.93581 20.15217,-47.04573 1.58656,-3.10991 2.56856,-6.16585 2.18222,-6.79097 -1.82071,-2.94596 -8.77876,-34.09421 -10.00247,-44.77678 -3.69627,-32.26735 0.3645,-63.53724 12.18555,-93.8345 7.09823,-18.19271 10.48149,-21.75179 23.08517,-24.28487 12.52208,-2.51667 39.41589,-2.15934 55.99999,0.74407 15.66987,2.74336 34.9871,8.8624 52.66667,16.68303 6.96666,3.08173 14.23346,6.24942 16.14842,7.03931 2.79803,1.15414 6.85647,0.60984 20.66667,-2.77172 20.04267,-4.90765 47.16842,-8.20615 67.63402,-8.22432 23.53224,-0.0209 58.11333,5.04792 78.48277,11.50385 l 6.26523,1.98571 7.39996,-4.73369 c 25.84584,-16.53338 52.69519,-24.75916 75.16052,-23.02676 15.90917,1.22683 20.35236,3.13518 23.88368,10.25805 8.74313,17.63538 11.84636,48.88871 7.66207,77.16644 -2.37912,16.07819 -2.37681,16.22961 0.29193,19.18649 5.40326,5.98662 13.92282,19.86723 20.82151,33.92375 7.0784,14.42267 10.80352,25.02924 20.91995,59.56555 8.14509,27.80639 18.47784,47.41545 34.99492,66.41193 l 6.5972,7.58751 -4.72514,9.74583 c -22.45235,46.30907 -55.38787,83.98556 -98.20373,112.33984 -6.96667,4.61359 -15.75748,9.94743 -19.53513,11.85297 -7.40026,3.73286 -12.46487,9.05627 -12.46487,13.10178 0,1.38737 1.5462,7.15645 3.436,12.82019 l 3.436,10.2977 -12.76933,19.04921 c -8.32241,12.41531 -12.76897,20.30898 -12.76829,22.66666 0.003,10.49956 26.53015,53.21301 51.65132,83.16811 10.97459,13.0864 13.16151,14.0163 26.54455,11.2871 5.67327,-1.157 10.45181,-1.9668 10.61897,-1.7996 0.29115,0.2911 18.89755,42.3124 22.71275,51.2952 1.01226,2.3833 2.18188,4.3333 2.59915,4.3333 0.41727,0 7.75922,-5.6511 16.31544,-12.558 z m -12.44527,-57.9133 c -7.46818,-3.9072 -27.54639,-23.2684 -36.99254,-35.6716 -13.02976,-17.10861 -28.47055,-44.07062 -35.42476,-61.85708 -3.89341,-9.95801 -6.87045,-23.34057 -6.89429,-30.99164 -0.0184,-5.9136 0.34885,-6.59342 5.64696,-10.45252 3.11667,-2.27016 8.14852,-5.591 11.1819,-7.37965 l 5.51522,-3.25208 7.35483,2.75179 c 22.31371,8.34863 53.56201,43.55604 70.4105,79.33143 9.51927,20.2128 14.6251,44.59765 11.58962,55.35065 -0.6673,2.3638 -3.62766,4.8041 -10,8.2431 -14.52682,7.8398 -14.81337,7.8901 -22.38744,3.9276 z m 12.6687,-25.3154 c 0,-13.2571 -10.28674,-38.48541 -24.02043,-58.91033 -12.89507,-19.17772 -35.5052,-41.30295 -42.20816,-41.30295 -4.51874,0 0.6524,18.44519 10.65336,38 12.55935,24.55721 29.85941,47.65518 44.98778,60.06498 8.45272,6.9337 10.58745,7.3669 10.58745,2.1483 z M 506.45005,875.23583 c 29.9672,-4.4497 61.63808,-14.96014 84.07403,-27.90118 5.72252,-3.30075 11.92418,-6.00136 13.78148,-6.00136 1.8573,0 7.37386,1.50445 12.25902,3.34322 37.38061,14.07002 79.75831,6.03351 105.33763,-19.97624 11.00055,-11.18566 17.1173,-24.01007 12.7417,-26.71434 -0.74582,-0.46095 -5.04166,1.00364 -9.5463,3.25464 -10.81024,5.40194 -19.15319,5.52398 -29.12505,0.42605 -10.25802,-5.24422 -14.99521,-11.72322 -15.70047,-21.47335 -0.39725,-5.4919 0.0772,-9.00123 1.62025,-11.98522 4.32355,-8.36082 19.06711,-14.82595 33.88538,-14.85893 3.91111,-0.009 6.91111,-0.55289 6.66667,-1.20929 -0.24445,-0.65641 -5.24445,-4.75768 -11.11111,-9.11395 -5.86667,-4.35626 -14.71576,-11.60755 -19.66465,-16.11396 -10.02068,-9.12473 -12.8812,-10.2802 -22.6003,-9.12912 -15.41431,1.8256 -29.77896,13.76266 -48.80148,40.55415 -6.63726,9.34799 -16.14063,21.70242 -21.11859,27.45429 -28.03449,32.39297 -73.5537,51.27367 -116.48163,48.31487 -29.90536,-2.06122 -53.26295,-12.1108 -78.66666,-33.84626 -20.53088,-17.56626 -25.33333,-23.03255 -25.33333,-28.83516 0,-6.08839 2.34908,-8.14648 17.12696,-15.00536 13.57515,-6.30066 26.72035,-14.47006 27.79668,-17.27491 0.37281,-0.97153 -2.47097,-5.52648 -6.3195,-10.12211 -15.73519,-18.78976 -14.01941,-26.10536 9.90987,-42.25267 34.10938,-23.01677 92.18991,-45.43634 117.70818,-45.43634 18.90179,0 27.40398,4.25824 38.70422,19.38464 9.33839,12.50027 11.34496,13.94869 19.32385,13.94869 5.54074,0 7.25766,-0.63614 10.51895,-3.89743 3.54874,-3.54874 3.89744,-4.71423 3.89744,-13.0268 0,-22.15706 -11.62425,-47.58693 -36.76984,-80.43982 -10.98175,-14.34773 -37.6081,-41.02383 -44.60305,-44.68638 -5.93227,-3.10614 -29.84862,-4.22432 -43.96044,-2.05532 -11.92933,1.83354 -32.56391,6.9203 -43.68575,10.76925 l -8.01471,2.77365 -13.14976,-8.82385 c -27.87708,-18.70628 -50.90227,-26.98254 -78.4831,-28.21028 -17.68439,-0.7872 -25.68688,0.6079 -29.99168,5.22856 -5.97238,6.4106 -12.77247,31.05799 -14.08034,51.03509 -1.74776,26.69641 3.63815,52.70819 15.89845,76.78319 5.57666,10.95065 6.89262,14.64597 5.86777,16.47727 -0.72662,1.2984 -5.99922,13.91922 -11.71688,28.04627 -17.10605,42.2652 -28.37635,65.1883 -43.46531,88.40581 -3.94827,6.07523 -7.17867,11.57438 -7.17867,12.22031 0,1.67154 14.18013,12.11172 28.47274,20.96318 16.44122,10.18211 48.64187,26.76351 68.19392,35.11579 8.8,3.7592 19.9,8.97819 24.66666,11.59776 29.79536,16.37431 35.72916,18.76051 55.33333,22.2516 14.68013,2.61422 48.31365,2.63536 65.78342,0.0413 z M 343.3805,618.16837 c -12.29279,-12.29279 -18.43625,-43.46763 -13.34009,-67.69395 2.72446,-12.95162 5.45379,-17.35369 12.22831,-19.72269 4.98895,-1.74461 6.52493,-1.65798 17.27028,0.97396 14.7494,3.61268 30.69986,11.3997 42.89362,20.94066 15.62373,12.22473 14.71229,16.17086 -4.67885,20.25734 -17.18598,3.62176 -22.70341,6.01472 -24.61021,10.67366 -0.84097,2.05478 -4.40245,9.73595 -7.91441,17.06929 -9.61057,20.0679 -14.98074,24.36964 -21.84865,17.50173 z m 243.42177,112.85301 c 7.8543,-3.87233 19.89205,-14.10483 18.37634,-15.62053 -0.35643,-0.35644 -6.02329,-1.25698 -12.59301,-2.00121 -22.38356,-2.53564 -38.57091,-9.52589 -53.60095,-23.14672 l -8.78776,-7.96382 -2.35872,2.91289 c -2.90434,3.58671 -4.44938,13.10729 -3.29682,20.31504 1.27735,7.98811 5.25583,14.82432 12.1685,20.90909 8.73814,7.69162 14.82941,9.5874 29.42576,9.15812 10.5106,-0.30911 13.278,-0.92011 20.66666,-4.56286 z m 131.9669,-29.58552 c 2.9936,-2.99359 3.89744,-5.1202 3.89744,-9.17007 0,-8.36002 -2.06084,-9.03874 -14.57671,-4.8007 -5.91614,2.00329 -10.75662,4.17296 -10.75662,4.82149 0,2.48785 4.11598,8.97674 6.95573,10.96578 4.66863,3.27004 10.07139,2.59228 14.48016,-1.8165 z m -44.26725,-35.76923 c 1.87208,-1.56152 3.46894,-5.58044 4.82759,-12.14997 2.3557,-11.39055 4.90551,-16.29298 10.05688,-19.33597 6.1947,-3.6593 15.3399,-2.38607 28.5155,3.97005 3.62842,1.75041 6.78484,3.18256 7.01426,3.18256 1.41411,0 -0.12094,-5.1218 -3.50801,-11.70469 -18.94757,-36.82528 -59.14329,-71.7098 -101.40819,-88.00879 -10.07644,-3.88586 -26.67719,-8.72043 -27.41397,-7.98365 -0.3331,0.3331 2.32635,5.05123 5.90989,10.48472 8.91359,13.5151 27.35203,47.55105 46.52364,85.87908 15.16686,30.32168 18.26746,35.32115 22.98044,37.05408 3.16139,1.16242 3.5425,1.0811 6.50197,-1.38742 z m 20.99951,-115.99999 c 1.63349,-8.54646 1.11498,-24.71602 -0.92841,-28.95219 -2.58372,-5.35632 -8.41033,-6.9207 -18.67009,-5.01269 -7.89337,1.46792 -22.74906,8.05517 -23.4492,10.39774 -0.20281,0.67859 4.26212,3.79055 9.92207,6.91546 5.65995,3.1249 14.79081,9.22583 20.29081,13.55762 5.5,4.33178 10.42281,7.92504 10.93959,7.98502 0.51677,0.06 1.36962,-2.14096 1.89523,-4.89096 z"
         id="path2" />
    </g>
  </g>
</svg>
